<svg width="41" height="35" viewBox="0 0 41 35" fill="none" xmlns="http://www.w3.org/2000/svg">
<g clip-path="url(#clip0_1980_1078)">
<path d="M37.5489 16.0264C36.7068 6.76322 29.1278 0.657959 20.0752 0.657959C11.0226 0.657959 3.44362 6.76322 2.60151 16.2369C1.33836 16.2369 0.285725 17.5001 0.285725 18.7632V29.2895C0.285725 30.9738 1.54888 32.2369 3.02257 32.2369H8.70678C9.12783 33.079 10.391 34.3422 11.2331 34.3422C12.4963 34.3422 12.9173 32.2369 12.9173 30.9737V17.079C12.9173 16.0264 12.4963 13.7106 11.2331 13.7106C10.391 13.7106 9.12783 15.3948 8.70678 16.0264H6.39099C7.23309 8.65796 13.1278 4.23691 20.0752 4.23691C27.0226 4.23691 33.1278 8.65796 33.7594 16.0264H31.8647C31.8647 15.3948 30.391 13.7106 29.5489 13.7106C28.2857 13.7106 27.6541 15.8159 27.6541 17.079V30.9737C27.6541 32.0264 28.2857 34.3422 29.5489 34.3422C30.391 34.3422 31.8647 33.079 32.0752 32.2369H37.5489C39.0226 32.2369 40.2857 30.9737 40.2857 29.5001V18.9737C40.2857 17.2895 39.0226 16.2369 37.5489 16.0264ZM6.60151 18.5527V20.658L2.39099 23.3948V18.5527H6.60151ZM38.1805 20.4474L33.9699 23.1843V18.5527H38.1805V20.4474ZM24.7068 21.079L21.3384 22.1316V14.1316C21.3384 13.9211 21.1278 13.7106 20.9173 13.7106C20.7068 13.7106 20.4963 13.7106 20.4963 13.9211L15.4436 25.9211V26.3422C15.6541 26.5527 15.6541 26.5527 15.8647 26.5527L19.2331 25.9211V33.9211C19.2331 34.1316 18.812 34.3422 19.0226 34.3422H19.6541C19.8647 34.3422 20.0752 34.3422 20.0752 34.1316L25.1278 21.7106V21.2895C24.9173 21.079 24.7068 21.079 24.7068 21.079Z" fill="#7C5CFF"/>
</g>
<defs>
<clipPath id="clip0_1980_1078">
<rect width="40" height="35" fill="white" transform="translate(0.285725)"/>
</clipPath>
</defs>
</svg>
