<svg width="41" height="35" viewBox="0 0 41 35" fill="none" xmlns="http://www.w3.org/2000/svg">
<g clip-path="url(#clip0_1980_1046)">
<path d="M33.834 12.5588V5.35294C33.834 1.64706 31.7752 0 27.8635 0H6.86346C2.9517 0 0.892872 2.26471 0.892872 6.79412V28.2059C0.892872 32.7353 2.9517 35 6.86346 35H27.8635C31.7752 35 33.834 33.3529 33.834 29.6471V23.6765L39.3929 17.7059C39.3929 17.5 33.834 12.5588 33.834 12.5588ZM24.5693 11.1176C24.5693 10.0882 25.187 9.47059 26.0105 9.47059C26.834 9.47059 27.6576 10.0882 27.6576 11.1176V14.6176L27.0399 19.7647C27.0399 20.3824 26.6282 20.5882 26.2164 20.5882C25.8046 20.5882 25.3929 20.3824 25.3929 19.7647L24.7752 14.6176V11.1176H24.5693ZM16.7458 24.2941C16.7458 25.1176 16.5399 25.9412 15.3046 25.9412C14.2752 25.9412 13.8635 25.1176 13.8635 24.2941V18.7353C13.8635 17.2941 13.2458 16.4706 12.0105 16.4706C10.9811 16.4706 9.9517 17.2941 9.9517 18.9412V24.2941C9.9517 25.1176 9.74581 25.9412 8.51052 25.9412C7.27523 25.9412 7.06934 25.1176 7.06934 24.2941V11.1176C7.06934 10.0882 7.68699 9.47059 8.51052 9.47059C9.33405 9.47059 9.9517 10.0882 9.9517 11.1176V15.4412C10.5693 14.6176 11.3929 13.7941 13.0399 13.7941C14.687 13.7941 16.5399 14.8235 16.5399 17.9118C16.7458 18.1176 16.7458 24.2941 16.7458 24.2941ZM21.8929 24.2941C21.8929 25.1176 21.687 25.9412 20.4517 25.9412C19.4223 25.9412 19.0105 25.1176 19.0105 24.2941V15.4412C19.0105 14.6176 19.2164 13.7941 20.4517 13.7941C21.4811 13.7941 21.8929 14.6176 21.8929 15.4412V24.2941ZM20.4517 12.7647C19.6282 12.7647 19.0105 11.9412 19.0105 11.1176C19.0105 10.2941 19.6282 9.47059 20.4517 9.47059C21.2752 9.47059 21.8929 10.2941 21.8929 11.1176C21.8929 11.9412 21.2752 12.7647 20.4517 12.7647ZM26.2164 25.7353C25.3929 25.7353 24.5693 24.9118 24.5693 23.8824C24.5693 22.8529 25.187 22.0294 26.2164 22.0294C27.2458 22.0294 27.8635 22.8529 27.8635 23.8824C27.8635 24.9118 27.0399 25.7353 26.2164 25.7353Z" fill="#00B8FF"/>
</g>
<defs>
<clipPath id="clip0_1980_1046">
<rect width="40" height="35" fill="white" transform="translate(0.142872)"/>
</clipPath>
</defs>
</svg>
