<svg width="40" height="35" viewBox="0 0 40 35" fill="none" xmlns="http://www.w3.org/2000/svg">
<g clip-path="url(#clip0_1980_1014)">
<path d="M22.8824 10.5C22.4706 11.1176 21.853 13.3824 21.6471 15.8529L23.9118 15.6471C25.353 15.4412 26.5883 15.0294 27 14.6176C28.2353 13.3824 28.2353 11.7353 27 10.5C25.7647 9.47059 24.1177 9.47059 22.8824 10.5ZM20 0C10.3235 0 2.50002 7.82353 2.50002 17.5C2.50002 27.1765 10.3235 35 20 35C29.6765 35 37.5 27.1765 37.5 17.5C37.5 7.82353 29.6765 0 20 0ZM29.0588 16.8824C28.0294 17.9118 25.9706 18.5294 23.9118 18.7353L21.4412 19.1471C21.2353 21.8235 20.6177 25.1176 19.3824 26.5588C17.1177 28.8235 13.2059 29.0294 10.9412 26.5588C8.67649 24.2941 8.67649 20.3824 10.9412 18.1176C11.9706 17.0882 14.0294 16.4706 16.2941 16.2647V19.3529C13.8235 19.9706 13.2059 20.3824 13 20.3824C11.7647 21.6176 11.7647 23.2647 13 24.5C14.0294 25.5294 15.8824 25.5294 17.1177 24.5C17.5294 24.0882 18.1471 22.2353 18.353 19.3529L18.5588 17.5C18.5588 14.8235 18.9706 10.0882 20.6177 8.44118C22.8824 6.17647 26.7941 5.97059 29.0588 8.44118C31.5294 10.7059 31.5294 14.4118 29.0588 16.8824Z" fill="#01CF35"/>
</g>
<defs>
<clipPath id="clip0_1980_1014">
<rect width="40" height="35" fill="white"/>
</clipPath>
</defs>
</svg>
