<svg width="41" height="35" viewBox="0 0 41 35" fill="none" xmlns="http://www.w3.org/2000/svg">
<g clip-path="url(#clip0_1980_950)">
<path d="M34.9476 2.33333H28.6476L27.2476 0H13.2476L11.8476 2.33333H6.48095C3.44762 2.33333 0.880951 4.66667 0.880951 7.7V29.4C0.880951 32.4333 3.44762 35 6.48095 35H34.9476C37.9809 35 40.5476 32.4333 40.5476 29.4V7.7C40.5476 4.66667 37.9809 2.33333 34.9476 2.33333ZM20.2476 30.5667C13.481 30.5667 8.11428 25.2 8.11428 18.6667C8.11428 12.1333 13.481 6.76667 20.2476 6.76667C27.0143 6.76667 32.3809 12.1333 32.3809 18.6667C32.3809 25.2 27.0143 30.5667 20.2476 30.5667ZM34.0143 11.2C32.6143 11.2 31.4476 10.0333 31.4476 8.63333C31.4476 7.23333 32.6143 6.06667 34.0143 6.06667C35.4143 6.06667 36.581 7.23333 36.581 8.63333C36.581 10.0333 35.4143 11.2 34.0143 11.2ZM10.681 18.4333C10.681 21.2333 11.8476 23.5667 13.7143 25.4333C13.7143 24.9667 13.7143 24.5 13.481 24.0333C13.481 18.9 17.681 14.7 23.0476 14.7C25.6143 14.7 27.7143 15.6333 29.5809 17.2667C28.881 12.6 24.9143 9.33333 20.2476 9.33333C15.1143 9.1 10.681 13.3 10.681 18.4333Z" fill="#FF4930"/>
</g>
<defs>
<clipPath id="clip0_1980_950">
<rect width="40" height="35" fill="white" transform="translate(0.714279)"/>
</clipPath>
</defs>
</svg>
