<svg width="41" height="35" viewBox="0 0 41 35" fill="none" xmlns="http://www.w3.org/2000/svg">
<g clip-path="url(#clip0_1980_982)">
<path d="M9.09244 15.147C10.2689 10.9118 14.5042 7.85293 17.7983 5.2647L14.7395 2.20587C7.91597 6.44117 0.857147 13.9706 0.857147 22.2059C0.857147 28.0882 3.91597 32.7941 10.2689 32.7941C14.9748 32.7941 18.9748 29.2647 18.9748 24.3235C18.9748 18.6765 14.9748 15.147 9.09244 15.147ZM30.9748 15.147C31.916 10.9118 36.1513 7.85293 39.6807 5.2647L36.6219 2.20587C30.0336 6.44117 22.7395 13.9706 22.7395 22.2059C22.7395 27.8529 25.7983 32.7941 32.1513 32.7941C36.8572 32.7941 40.8571 29.2647 40.8571 24.3235C40.8571 18.6765 36.8572 15.147 30.9748 15.147Z" fill="#FF8A00"/>
</g>
<defs>
<clipPath id="clip0_1980_982">
<rect width="40" height="35" fill="white" transform="translate(0.857147)"/>
</clipPath>
</defs>
</svg>
