<svg width="153" height="116" viewBox="0 0 153 116" fill="none" xmlns="http://www.w3.org/2000/svg">
<rect x="37.2715" y="28.2916" width="88.0833" height="86.3333" rx="2.625" fill="black" stroke="black" stroke-width="1.75"/>
<rect x="32.0205" y="28.2917" width="88.0833" height="86.3333" rx="2.625" fill="white" stroke="black" stroke-width="1.75"/>
<mask id="path-3-inside-1_1030_3714" fill="white">
<rect x="85.9805" y="71.75" width="23.3333" height="43.75" rx="1.16667"/>
</mask>
<rect x="85.9805" y="71.75" width="23.3333" height="43.75" rx="1.16667" fill="#FF61CE" stroke="black" stroke-width="3.5" mask="url(#path-3-inside-1_1030_3714)"/>
<mask id="path-4-inside-2_1030_3714" fill="white">
<rect x="42.8125" y="73.4999" width="33.25" height="30.3333" rx="1.16667"/>
</mask>
<rect x="42.8125" y="73.4999" width="33.25" height="30.3333" rx="1.16667" fill="#FF61CE" stroke="black" stroke-width="3.5" mask="url(#path-4-inside-2_1030_3714)"/>
<path d="M45.1455 95.6667V75.8334H65.5622L45.1455 95.6667Z" fill="white" fill-opacity="0.25"/>
<path d="M45.1455 101.5V97.4167L67.3122 75.8334H73.7288V79.9167L51.5622 101.5H45.1455Z" fill="white" fill-opacity="0.25"/>
<path d="M73.7288 101.5H54.7705L73.7288 83.125V101.5Z" fill="white" fill-opacity="0.25"/>
<rect x="65.2716" y="14.2917" width="26.25" height="26.25" rx="3.20833" fill="black" stroke="black" stroke-width="0.583333"/>
<rect x="63.5205" y="14.875" width="25.0833" height="25.0833" rx="2.625" fill="white" stroke="black" stroke-width="1.75"/>
<path fill-rule="evenodd" clip-rule="evenodd" d="M77.9887 34.4167C75.7249 34.4167 74.038 33.3336 74.038 30.742V26.5918H72.2726C72.1115 26.5918 71.981 26.4612 71.981 26.3001V24.5741C71.981 24.4394 72.0737 24.3231 72.2031 24.2857C74.1827 23.7131 75.086 22.1354 75.2736 20.6873C75.2933 20.5354 75.4194 20.4167 75.5726 20.4167H77.3595C77.5206 20.4167 77.6512 20.5473 77.6512 20.7084V23.98H80.1019C80.263 23.98 80.3936 24.1106 80.3936 24.2716V26.3001C80.3936 26.4612 80.263 26.5918 80.1019 26.5918H77.6512V30.2056C77.6512 31.2888 78.2389 31.6633 79.1747 31.6633H80.211C80.3721 31.6633 80.5027 31.7939 80.5027 31.955V34.1251C80.5027 34.2861 80.3721 34.4167 80.211 34.4167H77.9887Z" fill="black"/>
<path fill-rule="evenodd" clip-rule="evenodd" d="M32.312 69.0215V47.8334H41.7818H42.3424H54.3904H55.1769L67.6422 47.8334H83.5435V47.8334L96.0096 47.8334H108.843H109.405H120.039L120.979 49.2335V69.4079C117.569 69.2488 114.725 66.9443 113.784 63.8232L113.77 63.7768C113.762 63.8036 113.754 63.8304 113.746 63.8571C112.743 67.0752 109.679 69.4167 106.056 69.4167C102.514 69.4167 99.5065 67.1788 98.4364 64.0718C97.4421 67.3286 94.4132 69.6976 90.831 69.6976C87.2326 69.6976 84.1924 67.307 83.2123 64.0273C82.232 67.307 79.1919 69.6976 75.5935 69.6976C71.9937 69.6976 68.9527 67.3052 67.9736 64.0236C66.9946 67.3052 63.9536 69.6976 60.3538 69.6976C56.7725 69.6976 53.7443 67.3298 52.7492 64.0743C51.6783 67.18 48.672 69.4167 45.1306 69.4167C41.5072 69.4167 38.4439 67.0752 37.4407 63.8571C37.4321 63.8296 37.4238 63.8019 37.4158 63.7743L37.4012 63.8232C36.6622 66.2738 34.7499 68.221 32.312 69.0215Z" fill="black" fill-opacity="0.6"/>
<path d="M25.014 54.1077L31.7714 44.0417H42.4066L38.6532 55.224C38.4056 55.9614 38.2472 56.7214 38.0976 57.4655C38.0872 57.517 38.0769 57.5683 38.0667 57.6196C37.9271 58.3154 37.7908 58.9953 37.5917 59.6556C36.6525 62.7703 33.7433 65.0417 30.2987 65.0417C27.5333 65.0417 25.1129 63.5778 23.7797 61.388C23.1067 60.2825 23.0273 59.0431 23.3128 57.7819C23.5993 56.5163 24.2505 55.245 25.014 54.1077Z" fill="black" stroke="black" stroke-width="0.583333"/>
<path d="M52.7727 57.3582L52.7635 57.4212V57.4848C52.7635 61.3167 49.5767 64.4583 45.6015 64.4583C42.3601 64.4583 39.6359 62.365 38.747 59.5134C38.3783 58.3308 38.6537 57.0023 39.1431 55.5685L42.8786 44.625H54.6355L52.7727 57.3582Z" fill="white" stroke="black" stroke-width="1.75"/>
<mask id="path-12-inside-3_1030_3714" fill="white">
<path fill-rule="evenodd" clip-rule="evenodd" d="M68.7755 43.7501H54.8619L52.8743 57.6636H68.7755V43.7501ZM52.8726 57.6637L52.8726 57.6637H68.7738V57.6637C68.7738 62.0547 65.2142 65.6143 60.8232 65.6143C56.4322 65.6143 52.8726 62.0547 52.8726 57.6637Z"/>
</mask>
<path fill-rule="evenodd" clip-rule="evenodd" d="M68.7755 43.7501H54.8619L52.8743 57.6636H68.7755V43.7501ZM52.8726 57.6637L52.8726 57.6637H68.7738V57.6637C68.7738 62.0547 65.2142 65.6143 60.8232 65.6143C56.4322 65.6143 52.8726 62.0547 52.8726 57.6637Z" fill="black"/>
<path d="M54.8619 43.7501V42.0001H53.3441L53.1295 43.5026L54.8619 43.7501ZM68.7755 43.7501H70.5255V42.0001H68.7755V43.7501ZM52.8743 57.6636L51.1418 57.4162L50.8565 59.4136H52.8743V57.6636ZM68.7755 57.6636V59.4136H70.5255V57.6636H68.7755ZM52.8726 57.6637V55.9137H51.1226L51.1226 57.6636L52.8726 57.6637ZM52.8726 57.6637L51.1226 57.6637V57.6637H52.8726ZM68.7738 57.6637H70.5238V55.9137H68.7738V57.6637ZM54.8619 45.5001H68.7755V42.0001H54.8619V45.5001ZM54.6067 57.9111L56.5943 43.9975L53.1295 43.5026L51.1418 57.4162L54.6067 57.9111ZM68.7755 55.9136H52.8743V59.4136H68.7755V55.9136ZM67.0255 43.7501V57.6636H70.5255V43.7501H67.0255ZM51.1226 57.6636L51.1226 57.6637L54.6226 57.6637L54.6226 57.6637L51.1226 57.6636ZM68.7738 55.9137H52.8726V59.4137H68.7738V55.9137ZM70.5238 57.6637V57.6637H67.0238V57.6637H70.5238ZM60.8232 67.3643C66.1807 67.3643 70.5238 63.0212 70.5238 57.6637H67.0238C67.0238 61.0882 64.2477 63.8643 60.8232 63.8643V67.3643ZM51.1226 57.6637C51.1226 63.0212 55.4657 67.3643 60.8232 67.3643V63.8643C57.3987 63.8643 54.6226 61.0882 54.6226 57.6637H51.1226Z" fill="black" mask="url(#path-12-inside-3_1030_3714)"/>
<mask id="path-14-inside-4_1030_3714" fill="white">
<path fill-rule="evenodd" clip-rule="evenodd" d="M84.0146 43.75H68.1133V57.6636H68.1128V57.6636C68.1128 62.0546 71.6724 65.6142 76.0634 65.6142C80.4544 65.6142 84.014 62.0546 84.014 57.6636L84.0146 57.6636V43.75Z"/>
</mask>
<path fill-rule="evenodd" clip-rule="evenodd" d="M84.0146 43.75H68.1133V57.6636H68.1128V57.6636C68.1128 62.0546 71.6724 65.6142 76.0634 65.6142C80.4544 65.6142 84.014 62.0546 84.014 57.6636L84.0146 57.6636V43.75Z" fill="white"/>
<path d="M68.1133 43.75V42H66.3633V43.75H68.1133ZM84.0146 43.75H85.7646V42H84.0146V43.75ZM68.1133 57.6636V59.4136H69.8633V57.6636H68.1133ZM68.1128 57.6636V55.9136H66.3628V57.6636H68.1128ZM84.014 57.6636L84.0172 55.9136L82.264 55.9104V57.6636H84.014ZM84.0146 57.6636L84.0114 59.4136L85.7646 59.4167V57.6636H84.0146ZM68.1133 45.5H84.0146V42H68.1133V45.5ZM69.8633 57.6636V43.75H66.3633V57.6636H69.8633ZM68.1133 55.9136H68.1128V59.4136H68.1133V55.9136ZM66.3628 57.6636V57.6636H69.8628V57.6636H66.3628ZM66.3628 57.6636C66.3628 63.0211 70.7059 67.3642 76.0634 67.3642V63.8642C72.6389 63.8642 69.8628 61.0881 69.8628 57.6636H66.3628ZM76.0634 67.3642C81.4209 67.3642 85.764 63.0211 85.764 57.6636H82.264C82.264 61.0881 79.4879 63.8642 76.0634 63.8642V67.3642ZM84.0177 55.9136L84.0172 55.9136L84.0109 59.4136L84.0114 59.4136L84.0177 55.9136ZM82.2646 43.75V57.6636H85.7646V43.75H82.2646Z" fill="black" mask="url(#path-14-inside-4_1030_3714)"/>
<mask id="path-16-inside-5_1030_3714" fill="white">
<path fill-rule="evenodd" clip-rule="evenodd" d="M83.3521 43.75H97.2656L99.2533 57.6636L99.254 57.6636V57.6636C99.254 62.0546 95.6944 65.6142 91.3034 65.6142C86.9124 65.6142 83.3528 62.0546 83.3528 57.6636L83.3528 57.6636L83.3521 57.6636V43.75Z"/>
</mask>
<path fill-rule="evenodd" clip-rule="evenodd" d="M83.3521 43.75H97.2656L99.2533 57.6636L99.254 57.6636V57.6636C99.254 62.0546 95.6944 65.6142 91.3034 65.6142C86.9124 65.6142 83.3528 62.0546 83.3528 57.6636L83.3528 57.6636L83.3521 57.6636V43.75Z" fill="black"/>
<path d="M97.2656 43.75L98.998 43.5025L98.7834 42H97.2656V43.75ZM83.3521 43.75V42H81.6021V43.75H83.3521ZM99.2533 57.6636L97.5209 57.9111L97.7375 59.4273L99.269 59.4135L99.2533 57.6636ZM99.254 57.6636H101.004V55.8978L99.2383 55.9136L99.254 57.6636ZM83.3528 57.6636L81.6028 57.6636V57.6636H83.3528ZM83.3528 57.6636L85.1028 57.6636L85.1028 55.8978L83.337 55.9136L83.3528 57.6636ZM83.3521 57.6636H81.6021V59.4294L83.3678 59.4135L83.3521 57.6636ZM97.2656 42H83.3521V45.5H97.2656V42ZM100.986 57.4161L98.998 43.5025L95.5332 43.9975L97.5209 57.9111L100.986 57.4161ZM99.2383 55.9136L99.2375 55.9137L99.269 59.4135L99.2698 59.4135L99.2383 55.9136ZM101.004 57.6636V57.6636H97.504V57.6636H101.004ZM91.3034 67.3642C96.6609 67.3642 101.004 63.0211 101.004 57.6636H97.504C97.504 61.0881 94.7279 63.8642 91.3034 63.8642V67.3642ZM81.6028 57.6636C81.6028 63.0211 85.9459 67.3642 91.3034 67.3642V63.8642C87.8789 63.8642 85.1028 61.0881 85.1028 57.6636H81.6028ZM81.6028 57.6636L81.6028 57.6636L85.1028 57.6636L85.1028 57.6636L81.6028 57.6636ZM83.3678 59.4135L83.3685 59.4135L83.337 55.9136L83.3363 55.9137L83.3678 59.4135ZM81.6021 43.75V57.6636H85.1021V43.75H81.6021Z" fill="black" mask="url(#path-16-inside-5_1030_3714)"/>
<path d="M99.3628 57.4848V57.4212L99.3536 57.3582L97.4908 44.625H109.248L112.983 55.5685C113.473 57.0023 113.748 58.3308 113.379 59.5134C112.49 62.365 109.766 64.4583 106.525 64.4583C102.55 64.4583 99.3628 61.3167 99.3628 57.4848Z" fill="white" stroke="black" stroke-width="1.75"/>
<path d="M114.024 55.0384L110.529 44.625H120.042L126.626 54.4328C127.367 55.5372 127.978 56.741 128.242 57.9106C128.504 59.0676 128.42 60.1422 127.846 61.0846C126.615 63.1068 124.38 64.4583 121.825 64.4583C118.643 64.4583 115.957 62.3601 115.091 59.4872C114.9 58.8546 114.769 58.2007 114.628 57.4984C114.618 57.4494 114.608 57.4001 114.598 57.3505C114.449 56.6082 114.285 55.8149 114.024 55.0384Z" fill="black" stroke="black" stroke-width="1.75"/>
<path d="M88.3125 90.7083V74.0833H106.979L88.3125 90.7083Z" fill="white" fill-opacity="0.25"/>
<path d="M88.312 113.167V108.5V106.458L106.979 89.8333V113.167H88.312Z" fill="white" fill-opacity="0.25"/>
<path d="M106.979 87.2084V75.5417L88.312 92.1667V103.833L106.979 87.2084Z" fill="white" fill-opacity="0.25"/>
<rect x="92.2803" y="82.9772" width="11.6667" height="5.83333" rx="0.583333" transform="rotate(-7.06346 92.2803 82.9772)" fill="black"/>
<path d="M97.3007 79.8514L96.0334 82.4881C95.8334 82.904 96.1728 83.3765 96.6308 83.3197L99.9452 82.909C100.416 82.8507 100.624 82.2845 100.303 81.9353L98.2558 79.7093C97.9767 79.4057 97.4793 79.4798 97.3007 79.8514Z" stroke="black" stroke-width="1.16667"/>
<path d="M95.5042 86.19C95.8833 86.1693 96.2101 85.4121 96.4646 85.1786C96.6245 85.0319 96.8978 84.5912 97.1343 84.6252C97.5288 84.6818 97.5848 85.2538 97.6736 85.5678C97.704 85.6751 97.7959 86.2555 97.9413 85.9654C98.2369 85.3752 98.7449 84.7955 99.275 84.3986C99.4259 84.2856 99.5465 84.9714 99.7091 85.0949C99.8908 85.2329 100.291 85.407 100.502 85.2494C100.759 85.0566 100.886 84.453 101.164 84.3606" stroke="white" stroke-width="1.16667" stroke-linecap="round"/>
<rect x="87.7295" y="92.1667" width="20.4167" height="3.5" fill="black"/>
<ellipse cx="88.3128" cy="93.9167" rx="0.583333" ry="0.583333" fill="white"/>
<path d="M147.994 20.2069C143.66 20.9317 140.774 21.886 138.839 23.983C136.913 26.07 136.025 29.1882 135.372 33.9524C135.358 33.9613 135.322 33.9763 135.269 33.9763C135.215 33.9763 135.179 33.9613 135.165 33.9523C134.513 29.1892 133.626 26.0712 131.701 23.984C129.766 21.8867 126.88 20.9319 122.545 20.207C122.544 20.2068 122.544 20.2067 122.543 20.2065C122.536 20.1963 122.524 20.1683 122.524 20.125C122.524 20.0817 122.536 20.0537 122.543 20.0435C122.544 20.0434 122.544 20.0432 122.545 20.043C126.88 19.318 129.766 18.3632 131.701 16.2659C133.627 14.1787 134.515 11.0604 135.167 6.29704C135.181 6.28805 135.217 6.27312 135.271 6.27313C135.324 6.27313 135.36 6.28807 135.374 6.29706C136.026 11.0605 136.913 14.1787 138.839 16.266C140.773 18.3633 143.659 19.3181 147.994 20.0431C147.995 20.0433 147.996 20.0434 147.997 20.0436C148.003 20.0538 148.016 20.0818 148.016 20.125C148.016 20.1683 148.003 20.1963 147.997 20.2064C147.996 20.2066 147.995 20.2068 147.994 20.2069ZM122.545 20.2096C122.545 20.2096 122.545 20.2096 122.545 20.2095C122.545 20.2095 122.545 20.2096 122.545 20.2096ZM122.545 20.0404C122.545 20.0404 122.545 20.0405 122.545 20.0405C122.545 20.0405 122.545 20.0404 122.545 20.0404Z" fill="white" stroke="black" stroke-width="1.16667"/>
<path d="M24.3881 37.1237C21.0906 37.8113 18.8047 38.7109 17.2375 40.5946C15.6881 42.4569 14.9222 45.1876 14.3835 49.3071C14.3832 49.3073 14.3829 49.3076 14.3825 49.3078C14.36 49.3228 14.3063 49.344 14.2298 49.344C14.1532 49.344 14.0995 49.3228 14.0771 49.3078C14.0767 49.3076 14.0764 49.3073 14.0761 49.3071C13.5382 45.1885 12.773 42.4579 11.224 40.5954C9.65717 38.7116 7.37126 37.8115 4.0733 37.1238C4.07092 37.1233 4.06923 37.1228 4.06809 37.1225C4.0678 37.1221 4.06746 37.1216 4.06707 37.1211C4.0604 37.1114 4.04793 37.0839 4.04793 37.0417C4.04793 36.9995 4.0604 36.972 4.06707 36.9623C4.06746 36.9618 4.0678 36.9613 4.06809 36.9609C4.06923 36.9606 4.07092 36.9601 4.0733 36.9596C7.37139 36.2718 9.65737 35.3717 11.2244 33.4878C12.7736 31.6253 13.5391 28.8945 14.0776 24.7755C14.0779 24.7753 14.0782 24.7751 14.0786 24.7748C14.101 24.7599 14.1547 24.7387 14.2312 24.7387C14.3077 24.7387 14.3613 24.7599 14.3838 24.7749C14.3841 24.7751 14.3844 24.7753 14.3848 24.7755C14.9227 28.8946 15.6878 31.6254 17.2369 33.4879C18.8038 35.3719 21.0898 36.2719 24.388 36.9597C24.3904 36.9602 24.3921 36.9606 24.3933 36.961C24.3935 36.9614 24.3939 36.9618 24.3943 36.9624C24.4009 36.9721 24.4134 36.9996 24.4134 37.0417C24.4134 37.0839 24.4009 37.1114 24.3943 37.121C24.3939 37.1216 24.3936 37.122 24.3933 37.1224C24.3921 37.1228 24.3904 37.1232 24.3881 37.1237Z" fill="white" stroke="black" stroke-width="1.16667"/>
<path d="M142.96 59.4402C143.906 60.5365 145.218 61.1165 146.978 61.5417C145.218 61.9667 143.906 62.5465 142.961 63.6426C141.991 64.7668 141.48 66.3511 141.128 68.6019C141.121 68.6026 141.113 68.6031 141.104 68.6031C141.096 68.6031 141.088 68.6026 141.08 68.6019C140.729 66.3516 140.218 64.7674 139.249 63.6431C138.304 62.5468 136.992 61.9669 135.231 61.5417C136.992 61.1165 138.304 60.5365 139.249 59.4401C140.219 58.3158 140.729 56.7315 141.081 54.4809C141.089 54.4802 141.097 54.4797 141.105 54.4797C141.113 54.4797 141.121 54.4802 141.129 54.4809C141.48 56.7315 141.991 58.3158 142.96 59.4402Z" fill="white" stroke="black" stroke-width="1.16667"/>
<path d="M5.04463 45.3859C5.13789 44.9093 5.8198 44.9093 5.91306 45.3859L5.94262 45.537C6.29856 47.3563 7.58588 48.8538 9.33106 49.4788V49.4788C9.70294 49.612 9.70294 50.1379 9.33106 50.2711V50.2711C7.58588 50.8961 6.29856 52.3936 5.94262 54.2129L5.91306 54.364C5.8198 54.8406 5.13789 54.8406 5.04463 54.364L5.01506 54.2129C4.65912 52.3936 3.37181 50.8961 1.62662 50.2711V50.2711C1.25475 50.1379 1.25475 49.612 1.62662 49.4788V49.4788C3.37181 48.8538 4.65912 47.3563 5.01506 45.537L5.04463 45.3859Z" fill="black"/>
<path d="M125.775 5.43416C125.832 5.14402 126.247 5.14402 126.303 5.43416L126.321 5.52614C126.538 6.6335 127.322 7.54505 128.384 7.92549V7.92549C128.61 8.00656 128.61 8.32668 128.384 8.40775V8.40775C127.322 8.78819 126.538 9.69973 126.321 10.8071L126.303 10.8991C126.247 11.1892 125.832 11.1892 125.775 10.8991L125.757 10.8071C125.54 9.69973 124.757 8.78819 123.694 8.40775V8.40775C123.468 8.32668 123.468 8.00656 123.694 7.92549V7.92549C124.757 7.54505 125.54 6.6335 125.757 5.52614L125.775 5.43416Z" fill="black"/>
</svg>
