<svg width="1660" height="975" viewBox="0 0 1660 975" fill="none" xmlns="http://www.w3.org/2000/svg">
<path d="M1110.94 0.123893C1095.87 -0.151978 1188.33 75.7603 1228.21 136.498C1248.85 167.921 1238.72 200.375 1227.55 205.375C1194.78 220.039 1222.51 268.354 1180.05 277.772C1137.59 287.189 1056.99 232.717 1023.76 250.579C990.521 268.44 1059.43 350.832 1020.53 363.506C981.626 376.18 885.16 307.185 837.036 311.415C788.913 315.646 832.254 374.636 789.533 383.812C746.812 392.988 661.256 333.981 631.975 355.461C602.695 376.941 690.521 476.655 648.986 486.917C607.451 497.178 476.382 396.506 432.607 404.717C388.831 412.928 470.122 506.659 438.865 526.33C407.608 546.001 326.807 494.967 282.572 499.137C268.023 500.508 210.968 489.552 171.108 465.246C89.7809 415.655 7.96917 332.483 0.13525 339.083" fill="#7C5CFF"/>
<path d="M564.239 973.934C579.311 973.559 483.662 901.706 441.194 842.745C419.222 812.241 427.936 779.381 438.884 773.903C470.991 757.84 441.209 710.765 483.221 699.525C525.232 688.285 608.108 739.23 640.541 719.952C672.973 700.674 600.579 621.331 638.896 606.99C677.213 592.65 776.565 657.42 824.462 651.118C872.358 644.816 826.513 587.75 868.798 576.74C911.084 565.73 999.105 620.992 1027.43 598.269C1055.76 575.546 963.713 479.713 1004.77 467.669C1045.82 455.625 1181.11 550.551 1224.49 540.459C1267.87 530.367 1182.61 440.23 1212.99 419.229C1243.37 398.229 1326.3 445.73 1370.31 439.656C1384.79 437.658 1442.26 446.144 1483.13 468.707C1566.53 514.745 1651.85 594.311 1659.39 587.379" fill="#7C5CFF"/>
</svg>
