<svg width="21" height="22" viewBox="0 0 21 22" fill="none" xmlns="http://www.w3.org/2000/svg">
<g clip-path="url(#clip0_1_8)">
<path d="M10.5 21.5C4.72018 21.5 0 16.7798 0 11C0 5.22018 4.72018 0.5 10.5 0.5C16.2798 0.5 21 5.22018 21 11C21 16.7798 16.2798 21.5 10.5 21.5ZM11.5596 2.52294C11.078 2.42661 9.82569 2.42661 9.63303 2.52294C5.68349 2.90826 2.40826 6.08716 1.92661 10.0367C1.83028 10.5183 1.83028 11.7706 1.92661 11.9633C2.31193 16.0092 5.58716 19.2844 9.63303 19.6697H11.5596C15.5092 19.1881 18.6881 16.0092 19.0734 11.9633V10.0367C18.4954 6.08716 15.4128 3.00459 11.5596 2.52294ZM13.1972 13.4083C13.1009 13.6009 13.0046 13.6972 12.8119 13.7936L6.3578 16.2018C5.87615 16.3945 5.29816 15.9128 5.49083 15.3349L7.89908 8.88073C7.99541 8.68807 8.09174 8.59174 8.2844 8.49541L14.7385 6.08716C15.2202 5.8945 15.7982 6.37615 15.6055 6.95413L13.1972 13.4083ZM11.367 10.2294C10.8853 9.74771 10.1147 9.74771 9.72936 10.2294C9.24771 10.711 9.24771 11.4817 9.72936 11.867C10.211 12.3486 10.9817 12.3486 11.367 11.867C11.7523 11.4817 11.7523 10.711 11.367 10.2294Z" fill="white"/>
</g>
<defs>
<clipPath id="clip0_1_8">
<rect width="21" height="21" fill="white" transform="translate(0 0.5)"/>
</clipPath>
</defs>
</svg>
