<svg width="21" height="22" viewBox="0 0 21 22" fill="none" xmlns="http://www.w3.org/2000/svg">
<g clip-path="url(#clip0_1_16)">
<path d="M10.5 0.5C4.7 0.5 0 5.222 0 11.05C0 13.26 0.7 15.27 1.8 16.878L1.1 20.998L5.6 20.294C7.1 21.098 8.8 21.5 10.5 21.5C16.3 21.5 21 16.778 21 10.95C21 5.122 16.3 0.5 10.5 0.5ZM5.9 8.136C5.9 7.232 6.7 6.428 7.6 6.428C8.5 6.428 9.3 7.232 9.3 8.136C9.3 9.041 8.5 9.844 7.6 9.844C6.7 9.844 5.9 9.041 5.9 8.136ZM10.5 16.576C8.4 16.576 6.6 15.471 5.9 13.864C5.6 13.261 6.2 12.557 7 12.557H13.8C14.6 12.557 15.2 13.261 14.9 13.864C14.4 15.471 12.6 16.576 10.5 16.576ZM13.4 9.744C12.5 9.744 11.7 8.94 11.7 8.036C11.7 7.132 12.5 6.328 13.4 6.328C14.3 6.328 15.1 7.132 15.1 8.036C15.1 8.94 14.4 9.744 13.4 9.744Z" fill="white"/>
</g>
<defs>
<clipPath id="clip0_1_16">
<rect width="21" height="21" fill="white" transform="translate(0 0.5)"/>
</clipPath>
</defs>
</svg>
