<svg width="21" height="21" viewBox="0 0 21 21" fill="none" xmlns="http://www.w3.org/2000/svg">
<g clip-path="url(#clip0_3_25)">
<path d="M21 9.21025L20.685 9.10525L18.1125 8.2635L17.43 6.57913L18.7425 3.73712L17.0625 2.00025L16.7475 2.15775L14.3325 3.42125L12.705 2.737L11.655 0H9.3975L9.2925 0.368375L8.3475 2.737L6.72 3.42125L3.9375 2.05275L2.2575 3.78875L3.6225 6.57825L2.94 8.26262L0 9.26275V11.7372L0.315 11.8423L2.8875 12.7899L3.57 14.4734L2.2575 17.3688L3.9375 19.1056L4.2525 18.9481L6.6675 17.6846L8.295 18.368L9.345 21H11.6025L11.7075 20.685L12.6525 18.4214L14.28 17.7371L17.0625 19.1056L18.7425 17.3688L18.585 17.0529L17.3775 14.5793L18.06 12.8949L20.9475 11.8423V9.21025H21ZM6.3 10.4738C6.3 8.15763 8.19 6.26325 10.5 6.26325C12.81 6.26325 14.7 8.15763 14.7 10.4738C14.7 12.7899 12.81 14.6842 10.5 14.6842C8.19 14.6842 6.3 12.7899 6.3 10.4738V10.4738Z" fill="white"/>
</g>
<defs>
<clipPath id="clip0_3_25">
<rect width="21" height="21" fill="white"/>
</clipPath>
</defs>
</svg>
