<svg width="21" height="21" viewBox="0 0 21 21" fill="none" xmlns="http://www.w3.org/2000/svg">
<path d="M15.738 9.3983C15.8238 9.58917 15.8716 9.70369 15.9193 9.81821C16.4442 11.0589 17.6657 11.746 18.8778 11.4883C20.1852 11.202 21.0632 10.1332 20.9964 8.76843C20.9678 8.11947 20.8151 7.45142 20.6051 6.83109C20.1184 5.41865 19.5554 4.0253 19.0114 2.6224C18.5437 1.42946 17.9425 1 16.6637 1C12.5504 1 8.43716 1 4.3239 1C3.05461 1 2.42474 1.44855 1.96665 2.61286C1.42267 4.01575 0.850061 5.40911 0.372885 6.83109C0.14384 7.51823 0.0197747 8.26262 0.000687611 8.98793C-0.027943 10.1904 0.840518 11.1734 2.043 11.4597C3.13096 11.7174 4.29527 11.2116 4.87743 10.2C5.01104 9.97091 5.10647 9.71323 5.24962 9.41739C5.65045 10.6485 6.42348 11.4215 7.68322 11.4979C9.07658 11.5838 9.96412 10.8203 10.4986 9.43647C11.0044 10.8107 11.8919 11.5647 13.2566 11.4979C14.5259 11.4406 15.3276 10.6867 15.738 9.37921V9.3983ZM8.41807 19.9248C8.41807 18.4837 8.40853 17.1572 8.41807 15.8306C8.41807 15.1053 8.78073 14.714 9.48695 14.6854C10.155 14.6568 10.8135 14.6568 11.4815 14.6854C12.1878 14.714 12.56 15.1053 12.5695 15.8211C12.5886 16.7086 12.5695 17.5962 12.5695 18.4837C12.5695 18.9609 12.5695 19.4381 12.5695 19.9534C14.0774 19.9534 15.4516 19.9725 16.8355 19.9534C17.4558 19.9439 17.8662 19.6003 17.8757 18.9418C17.8852 17.1954 17.8757 15.4489 17.8757 13.7501C17.1886 13.4734 16.5587 13.1966 15.9193 12.9676C15.7666 12.9199 15.5471 12.9867 15.3944 13.063C13.877 13.836 12.3786 13.8169 10.8612 13.0821C10.6608 12.9867 10.3363 12.9771 10.1454 13.0821C8.62803 13.836 7.12015 13.8456 5.61228 13.0821C5.45004 13.0057 5.23054 12.9199 5.07784 12.9771C4.43842 13.2062 3.80855 13.4829 3.12142 13.7597C3.12142 15.4775 3.12142 17.2431 3.12142 19.0182C3.12142 19.5908 3.48407 19.9248 3.98988 19.9439C5.43095 19.9916 6.88157 19.963 8.42762 19.963L8.41807 19.9248Z" fill="white"/>
</svg>
