<?xml version="1.0" encoding="UTF-8" standalone="no"?>
<!DOCTYPE svg PUBLIC "-//W3C//DTD SVG 1.1//EN" "http://www.w3.org/Graphics/SVG/1.1/DTD/svg11.dtd">
<svg xmlns="http://www.w3.org/2000/svg" version="1.1" viewBox="0.00 0.00 1024.00 1024.00">
<path fill="#fffaf0" d="
  M 0.00 0.00
  L 1024.00 0.00
  L 1024.00 1024.00
  L 0.00 1024.00
  L 0.00 0.00
  Z"
/>
<path fill="#18082d" d="
  M 736.36 730.54
  L 736.28 748.77
  Q 736.27 749.27 736.77 749.27
  L 756.77 749.21
  Q 757.32 749.21 757.32 748.66
  L 757.19 730.03
  L 757.12 712.03
  A 0.88 0.88 0.0 0 1 758.00 711.15
  L 777.54 711.20
  A 0.66 0.66 0.0 0 1 778.19 711.86
  L 778.24 749.15
  L 778.16 768.53
  A 0.70 0.70 0.0 0 1 777.46 769.23
  L 736.10 769.21
  L 337.79 769.37
  L 284.75 769.41
  A 0.68 0.67 -90.0 0 1 284.08 768.73
  L 284.15 749.78
  Q 284.15 749.22 284.72 749.22
  L 305.24 749.13
  Q 305.75 749.13 305.75 748.62
  L 305.83 711.09
  L 305.73 691.47
  A 0.53 0.52 90.0 0 1 306.25 690.94
  L 347.41 691.04
  A 0.70 0.70 0.0 0 0 348.11 690.34
  L 348.07 671.00
  A 0.43 0.43 0.0 0 1 348.50 670.57
  L 368.88 670.54
  Q 369.75 670.54 369.75 671.40
  L 369.79 691.06
  Q 369.94 691.94 368.50 691.89
  Q 358.44 691.55 349.01 691.72
  A 0.96 0.96 0.0 0 0 348.07 692.67
  L 347.85 710.96
  L 327.16 711.05
  A 0.49 0.49 0.0 0 0 326.68 711.54
  L 326.72 748.03
  A 0.72 0.71 -0.0 0 0 327.44 748.74
  L 347.34 748.74
  Q 354.80 748.48 359.00 748.48
  Q 402.38 748.48 445.76 748.18
  C 465.00 748.04 484.40 748.72 503.75 748.44
  C 534.07 748.00 564.43 748.55 594.71 748.40
  L 653.70 748.66
  Q 654.80 748.66 654.79 747.57
  L 654.53 710.34
  L 654.51 692.44
  Q 654.51 691.64 653.71 691.64
  L 634.51 691.55
  L 634.77 670.77
  L 653.70 670.10
  A 1.05 1.04 89.2 0 0 654.71 669.05
  L 654.63 364.61
  Q 654.63 362.79 652.80 362.81
  L 634.54 363.01
  L 634.78 342.71
  A 0.79 0.78 -89.6 0 0 634.00 341.91
  L 614.85 341.97
  A 0.63 0.62 0.0 0 1 614.22 341.35
  L 614.34 321.29
  A 0.55 0.54 0.0 0 0 613.79 320.75
  L 595.25 320.75
  A 0.99 0.99 0.0 0 1 594.26 319.75
  L 594.54 300.45
  A 1.08 1.07 0.3 0 0 593.45 299.36
  L 575.53 299.65
  A 1.13 1.12 -0.5 0 1 574.38 298.53
  L 574.26 278.80
  A 0.73 0.73 0.0 0 0 573.53 278.08
  L 554.31 278.13
  L 453.20 278.15
  A 1.12 1.11 89.7 0 0 452.09 279.28
  L 452.26 298.74
  A 0.75 0.75 0.0 0 1 451.51 299.50
  L 433.17 299.50
  A 1.82 1.82 0.0 0 0 431.35 301.33
  L 431.46 319.77
  A 0.73 0.73 0.0 0 1 430.73 320.50
  L 411.65 320.52
  A 0.66 0.66 0.0 0 0 410.99 321.18
  L 411.01 341.50
  A 0.26 0.26 0.0 0 1 410.75 341.76
  L 391.02 341.74
  A 0.54 0.54 0.0 0 0 390.48 342.28
  L 390.76 451.20
  L 390.53 670.73
  L 370.61 670.79
  Q 370.07 670.79 370.07 670.25
  L 370.16 341.75
  Q 370.16 341.46 370.45 341.46
  L 390.19 341.46
  A 0.29 0.29 0.0 0 0 390.48 341.17
  L 390.47 320.98
  A 1.06 1.05 -90.0 0 1 391.52 319.92
  L 409.67 319.90
  A 1.07 1.07 0.0 0 0 410.74 318.83
  L 410.75 299.27
  Q 410.75 298.78 411.23 298.78
  L 430.56 298.83
  Q 431.45 298.84 431.44 297.94
  L 431.28 278.20
  Q 431.27 277.67 431.80 277.67
  L 451.00 277.52
  A 0.76 0.76 0.0 0 0 451.76 276.75
  L 451.51 256.92
  A 0.57 0.56 -0.5 0 1 452.08 256.35
  L 593.89 256.25
  A 0.65 0.64 89.5 0 1 594.53 256.89
  L 594.70 276.98
  Q 594.71 277.51 595.23 277.50
  L 614.22 277.43
  Q 614.77 277.42 614.77 277.97
  L 614.71 297.84
  Q 614.70 298.72 615.59 298.72
  L 634.48 298.73
  A 0.75 0.75 0.0 0 1 635.22 299.48
  L 635.31 319.24
  A 0.44 0.43 89.3 0 0 635.74 319.67
  L 655.22 319.71
  Q 655.74 319.71 655.74 320.22
  L 655.76 340.95
  A 0.44 0.43 89.4 0 0 656.20 341.39
  L 675.03 341.28
  Q 675.53 341.28 675.53 341.78
  L 675.54 669.89
  Q 675.54 670.50 676.14 670.50
  L 696.00 670.50
  A 0.25 0.25 0.0 0 1 696.25 670.75
  L 696.19 690.49
  Q 696.19 691.04 696.74 691.04
  L 735.98 690.97
  A 0.29 0.29 0.0 0 1 736.27 691.26
  L 736.36 730.54
  Z"
/>
<path fill="#fffaf0" d="
  M 554.31 278.13
  L 554.39 298.01
  A 0.63 0.63 0.0 0 1 553.76 298.64
  L 493.00 298.72
  Q 492.69 298.72 492.69 299.03
  L 492.53 319.28
  L 471.87 319.61
  L 452.05 319.71
  A 0.35 0.35 0.0 0 0 451.70 320.06
  L 451.69 341.38
  L 431.96 341.55
  Q 431.42 341.56 431.42 342.09
  L 431.28 362.62
  L 411.51 362.57
  Q 410.98 362.57 410.98 363.09
  L 411.04 421.58
  L 410.97 451.03
  L 390.76 451.20
  L 390.48 342.28
  A 0.54 0.54 0.0 0 1 391.02 341.74
  L 410.75 341.76
  A 0.26 0.26 0.0 0 0 411.01 341.50
  L 410.99 321.18
  A 0.66 0.66 0.0 0 1 411.65 320.52
  L 430.73 320.50
  A 0.73 0.73 0.0 0 0 431.46 319.77
  L 431.35 301.33
  A 1.82 1.82 0.0 0 1 433.17 299.50
  L 451.51 299.50
  A 0.75 0.75 0.0 0 0 452.26 298.74
  L 452.09 279.28
  A 1.12 1.11 89.7 0 1 453.20 278.15
  L 554.31 278.13
  Z"
/>
<path fill="#4d7372" d="
  M 634.54 363.01
  L 634.71 383.22
  L 615.39 383.40
  A 0.88 0.88 0.0 0 1 614.50 382.53
  L 614.46 363.58
  Q 614.46 362.25 613.14 362.27
  L 595.76 362.53
  Q 594.47 362.55 594.48 361.26
  L 594.59 341.94
  A 0.90 0.89 -90.0 0 0 593.69 341.03
  L 574.94 341.16
  A 0.75 0.74 -0.8 0 1 574.19 340.44
  L 573.64 320.41
  Q 573.61 319.28 572.48 319.28
  L 492.53 319.28
  L 492.69 299.03
  Q 492.69 298.72 493.00 298.72
  L 553.76 298.64
  A 0.63 0.63 0.0 0 0 554.39 298.01
  L 554.31 278.13
  L 573.53 278.08
  A 0.73 0.73 0.0 0 1 574.26 278.80
  L 574.38 298.53
  A 1.13 1.12 -0.5 0 0 575.53 299.65
  L 593.45 299.36
  A 1.08 1.07 0.3 0 1 594.54 300.45
  L 594.26 319.75
  A 0.99 0.99 0.0 0 0 595.25 320.75
  L 613.79 320.75
  A 0.55 0.54 -0.0 0 1 614.34 321.29
  L 614.22 341.35
  A 0.63 0.62 -0.0 0 0 614.85 341.97
  L 634.00 341.91
  A 0.79 0.78 -89.6 0 1 634.78 342.71
  L 634.54 363.01
  Z"
/>
<path fill="#18082d" d="
  M 492.53 319.28
  L 572.48 319.28
  Q 573.61 319.28 573.64 320.41
  L 574.19 340.44
  A 0.75 0.74 -0.8 0 0 574.94 341.16
  L 593.69 341.03
  A 0.90 0.89 -90.0 0 1 594.59 341.94
  L 594.48 361.26
  Q 594.47 362.55 595.76 362.53
  L 613.14 362.27
  Q 614.46 362.25 614.46 363.58
  L 614.50 382.53
  A 0.88 0.88 0.0 0 0 615.39 383.40
  L 634.71 383.22
  Q 635.33 386.06 635.28 389.50
  C 634.49 438.56 635.14 487.67 634.91 536.74
  C 634.74 572.79 635.14 608.88 635.30 645.11
  A 1.33 1.33 0.0 0 1 633.96 646.44
  L 595.20 646.20
  A 0.72 0.72 0.0 0 0 594.47 646.92
  L 594.58 671.16
  L 431.32 671.08
  L 431.29 643.78
  L 431.49 623.56
  Q 431.49 623.27 431.19 623.27
  L 411.23 623.28
  L 410.95 561.76
  A 0.64 0.63 -0.4 0 1 411.59 561.12
  L 429.94 561.18
  A 0.88 0.88 0.0 0 0 430.82 560.31
  L 431.05 542.97
  Q 431.06 542.73 431.21 542.55
  L 431.46 542.27
  L 450.92 542.25
  A 0.71 0.71 0.0 0 0 451.63 541.54
  L 451.59 501.80
  A 0.70 0.70 0.0 0 1 452.29 501.10
  L 471.76 500.97
  Q 472.50 500.97 472.50 500.24
  L 472.54 481.03
  Q 472.54 480.52 472.03 480.53
  L 452.11 480.61
  Q 451.51 480.61 451.51 480.01
  L 451.52 451.99
  A 0.24 0.24 0.0 0 1 451.76 451.75
  L 472.23 451.71
  Q 472.75 451.71 472.75 452.23
  L 472.73 479.81
  Q 472.73 480.40 473.32 480.40
  L 492.20 480.34
  A 0.54 0.54 0.0 0 0 492.74 479.80
  L 492.79 432.18
  A 0.62 0.61 90.0 0 0 492.18 431.56
  L 431.75 431.52
  A 0.50 0.50 0.0 0 0 431.25 432.02
  L 431.24 542.03
  Q 430.68 542.58 430.50 542.26
  Q 421.11 542.03 411.73 542.26
  A 0.75 0.75 0.0 0 1 410.97 541.51
  L 410.97 451.03
  L 411.04 421.58
  L 411.63 405.98
  A 1.29 1.29 0.0 0 1 412.99 404.74
  Q 418.78 405.06 424.49 404.20
  Q 426.40 403.91 431.28 404.67
  L 450.44 404.92
  A 1.39 1.39 0.0 0 0 451.85 403.52
  L 451.67 385.20
  A 0.76 0.76 0.0 0 0 450.91 384.45
  L 431.39 384.38
  Q 430.97 384.19 431.00 383.00
  Q 431.39 369.58 431.28 362.62
  L 431.42 342.09
  Q 431.42 341.56 431.96 341.55
  L 451.69 341.38
  L 452.35 342.02
  L 452.43 362.66
  L 452.42 382.52
  A 0.81 0.81 0.0 0 0 453.23 383.33
  L 472.00 383.29
  Q 472.51 383.29 472.51 382.78
  L 472.49 362.52
  L 472.17 341.59
  C 472.22 341.05 472.45 340.61 472.47 340.12
  Q 472.83 329.97 471.87 319.61
  L 492.53 319.28
  Z"
/>
<path fill="#1e475d" d="
  M 471.87 319.61
  Q 472.83 329.97 472.47 340.12
  C 472.45 340.61 472.22 341.05 472.17 341.59
  Q 462.71 341.69 453.25 341.59
  Q 452.63 341.58 452.35 342.02
  L 451.69 341.38
  L 451.70 320.06
  A 0.35 0.35 0.0 0 1 452.05 319.71
  L 471.87 319.61
  Z"
/>
<path fill="#fffaf0" d="
  M 472.17 341.59
  L 472.49 362.52
  L 452.43 362.66
  L 452.35 342.02
  Q 452.63 341.58 453.25 341.59
  Q 462.71 341.69 472.17 341.59
  Z"
/>
<rect fill="#4d7372" x="553.75" y="341.75" width="20.02" height="20.72" rx="0.94"/>
<path fill="#4d7372" d="
  M 472.49 362.52
  L 472.51 382.78
  Q 472.51 383.29 472.00 383.29
  L 453.23 383.33
  A 0.81 0.81 0.0 0 1 452.42 382.52
  L 452.43 362.66
  L 472.49 362.52
  Z"
/>
<path fill="#1e475d" d="
  M 431.28 362.62
  Q 431.39 369.58 431.00 383.00
  Q 430.97 384.19 431.39 384.38
  L 431.28 404.67
  Q 426.40 403.91 424.49 404.20
  Q 418.78 405.06 412.99 404.74
  A 1.29 1.29 0.0 0 0 411.63 405.98
  L 411.04 421.58
  L 410.98 363.09
  Q 410.98 362.57 411.51 362.57
  L 431.28 362.62
  Z"
/>
<path fill="#0d324e" d="
  M 634.54 363.01
  L 652.80 362.81
  Q 654.63 362.79 654.63 364.61
  L 654.71 669.05
  A 1.05 1.04 89.2 0 1 653.70 670.10
  L 634.77 670.77
  L 594.58 671.16
  L 594.47 646.92
  A 0.72 0.72 0.0 0 1 595.20 646.20
  L 633.96 646.44
  A 1.33 1.33 0.0 0 0 635.30 645.11
  C 635.14 608.88 634.74 572.79 634.91 536.74
  C 635.14 487.67 634.49 438.56 635.28 389.50
  Q 635.33 386.06 634.71 383.22
  L 634.54 363.01
  Z"
/>
<rect fill="#4d7372" x="-9.89" y="-10.02" transform="translate(543.93,373.26) rotate(0.2)" width="19.78" height="20.04" rx="0.70"/>
<path fill="#4d7372" d="
  M 431.39 384.38
  L 450.91 384.45
  A 0.76 0.76 0.0 0 1 451.67 385.20
  L 451.85 403.52
  A 1.39 1.39 0.0 0 1 450.44 404.92
  L 431.28 404.67
  L 431.39 384.38
  Z"
/>
<path fill="#fffaf0" d="
  M 431.46 542.27
  Q 430.87 542.10 431.24 542.03
  L 431.25 432.02
  A 0.50 0.50 0.0 0 1 431.75 431.52
  L 492.18 431.56
  A 0.62 0.61 -90.0 0 1 492.79 432.18
  L 492.74 479.80
  A 0.54 0.54 0.0 0 1 492.20 480.34
  L 473.32 480.40
  Q 472.73 480.40 472.73 479.81
  L 472.75 452.23
  Q 472.75 451.71 472.23 451.71
  L 451.76 451.75
  A 0.24 0.24 0.0 0 0 451.52 451.99
  L 451.51 480.01
  Q 451.51 480.61 452.11 480.61
  L 472.03 480.53
  Q 472.54 480.52 472.54 481.03
  L 472.50 500.24
  Q 472.50 500.97 471.76 500.97
  L 452.29 501.10
  A 0.70 0.70 0.0 0 0 451.59 501.80
  L 451.63 541.54
  A 0.71 0.71 0.0 0 1 450.92 542.25
  L 431.46 542.27
  Z"
/>
<rect fill="#fffaf0" x="513.71" y="431.67" width="20.06" height="110.54" rx="0.27"/>
<path fill="#fffaf0" d="
  M 574.05 542.32
  L 554.56 542.24
  A 0.31 0.31 0.0 0 1 554.25 541.93
  L 554.25 431.98
  A 0.31 0.31 0.0 0 1 554.56 431.67
  L 614.10 431.55
  A 0.31 0.31 0.0 0 1 614.41 431.86
  L 614.53 500.52
  A 0.31 0.31 0.0 0 1 614.22 500.83
  L 574.51 500.75
  A 0.31 0.31 0.0 0 0 574.20 501.06
  L 574.36 542.01
  A 0.31 0.31 0.0 0 1 574.05 542.32
  Z"
/>
<path fill="#4d7372" d="
  M 410.97 451.03
  L 410.97 541.51
  A 0.75 0.75 0.0 0 0 411.73 542.26
  Q 421.11 542.03 430.50 542.26
  Q 430.68 542.58 431.24 542.03
  Q 430.87 542.10 431.46 542.27
  L 431.21 542.55
  Q 431.06 542.73 431.05 542.97
  L 430.82 560.31
  A 0.88 0.88 0.0 0 1 429.94 561.18
  L 411.59 561.12
  A 0.64 0.63 -0.4 0 0 410.95 561.76
  L 411.23 623.28
  L 411.02 643.57
  Q 411.02 643.76 411.20 643.82
  Q 411.40 643.87 411.48 643.82
  Q 410.73 644.05 410.73 644.50
  Q 410.70 656.63 410.75 669.37
  A 1.50 1.50 0.0 0 0 412.24 670.87
  L 421.96 670.91
  L 390.53 670.73
  L 390.76 451.20
  L 410.97 451.03
  Z"
/>
<rect fill="#18082d" x="-10.20" y="-14.67" transform="translate(584.45,466.17) rotate(-0.2)" width="20.40" height="29.34" rx="0.73"/>
<rect fill="#fffaf0" x="-10.12" y="-20.33" transform="translate(482.62,522.09) rotate(-0.1)" width="20.24" height="40.66" rx="0.68"/>
<rect fill="#4d7372" x="594.52" y="561.99" width="19.72" height="39.82" rx="0.60"/>
<rect fill="#4d7372" x="-10.10" y="-10.02" transform="translate(503.68,591.76) rotate(0.2)" width="20.20" height="20.04" rx="0.48"/>
<rect fill="#fffaf0" x="-10.13" y="-10.15" transform="translate(441.61,612.65) rotate(-0.3)" width="20.26" height="20.30" rx="0.61"/>
<rect fill="#4d7372" x="-9.95" y="-20.69" transform="translate(482.93,623.22) rotate(-0.1)" width="19.90" height="41.38" rx="0.80"/>
<path fill="#fffaf0" d="
  M 411.23 623.28
  L 431.19 623.27
  Q 431.49 623.27 431.49 623.56
  L 431.29 643.78
  L 411.48 643.82
  Q 411.40 643.87 411.20 643.82
  Q 411.02 643.76 411.02 643.57
  L 411.23 623.28
  Z"
/>
<path fill="#1e475d" d="
  M 411.48 643.82
  L 431.29 643.78
  L 431.32 671.08
  L 421.96 670.91
  L 412.24 670.87
  A 1.50 1.50 0.0 0 1 410.75 669.37
  Q 410.70 656.63 410.73 644.50
  Q 410.73 644.05 411.48 643.82
  Z"
/>
<path fill="#4d7372" d="
  M 594.58 671.16
  L 634.77 670.77
  L 634.51 691.55
  L 431.34 690.86
  L 431.32 671.08
  L 594.58 671.16
  Z"
/>
<rect fill="#0d324e" x="-10.06" y="-9.89" transform="translate(665.16,681.13) rotate(-0.3)" width="20.12" height="19.78" rx="1.41"/>
<path fill="#4d7372" d="
  M 369.79 691.06
  L 378.97 691.29
  L 371.38 691.37
  A 1.58 1.57 88.6 0 0 369.83 693.01
  Q 369.91 695.36 371.53 696.91
  Q 371.91 697.27 371.99 697.79
  L 372.97 704.21
  A 1.00 0.98 -69.2 0 0 373.18 704.69
  C 374.61 706.50 373.50 707.71 374.24 709.07
  Q 374.71 709.93 375.76 709.90
  Q 376.15 709.89 376.46 710.14
  Q 377.38 710.91 378.50 710.93
  C 395.01 711.11 413.20 710.40 431.46 710.94
  L 431.47 729.69
  Q 429.73 730.13 429.16 730.13
  Q 399.51 730.15 369.74 730.11
  L 370.10 712.52
  A 1.58 1.57 0.5 0 0 368.51 710.91
  L 347.85 710.96
  L 348.07 692.67
  A 0.96 0.96 0.0 0 1 349.01 691.72
  Q 358.44 691.55 368.50 691.89
  Q 369.94 691.94 369.79 691.06
  Z"
/>
<path fill="#1e475d" d="
  M 431.34 690.86
  L 634.51 691.55
  L 653.71 691.64
  Q 654.51 691.64 654.51 692.44
  L 654.53 710.34
  Q 645.02 710.75 635.75 710.28
  Q 634.90 710.23 634.73 711.03
  L 554.35 710.95
  L 431.46 710.94
  C 413.20 710.40 395.01 711.11 378.50 710.93
  Q 377.38 710.91 376.46 710.14
  Q 376.15 709.89 375.76 709.90
  Q 374.71 709.93 374.24 709.07
  C 373.50 707.71 374.61 706.50 373.18 704.69
  A 1.00 0.98 -69.2 0 1 372.97 704.21
  L 371.99 697.79
  Q 371.91 697.27 371.53 696.91
  Q 369.91 695.36 369.83 693.01
  A 1.58 1.57 88.6 0 1 371.38 691.37
  L 378.97 691.29
  Q 404.89 691.36 430.82 691.24
  Q 431.01 691.24 431.16 691.17
  Q 431.67 690.94 431.34 690.86
  Z"
/>
<path fill="#0d324e" d="
  M 715.35 711.85
  L 715.76 747.57
  A 0.92 0.92 0.0 0 1 714.85 748.50
  L 676.46 748.80
  A 0.92 0.92 0.0 0 1 675.54 747.89
  L 675.38 692.20
  A 0.92 0.92 0.0 0 1 676.32 691.28
  L 694.17 691.68
  A 0.92 0.92 0.0 0 1 695.07 692.59
  L 695.34 710.31
  A 0.92 0.92 0.0 0 0 696.27 711.22
  L 714.42 710.94
  A 0.92 0.92 0.0 0 1 715.35 711.85
  Z"
/>
<path fill="#0d324e" d="
  M 654.53 710.34
  L 654.79 747.57
  Q 654.80 748.66 653.70 748.66
  L 594.71 748.40
  Q 597.64 746.08 601.91 746.71
  Q 602.37 746.78 602.67 746.44
  Q 603.58 745.42 605.07 745.39
  A 0.16 0.16 0.0 0 1 605.10 745.71
  Q 604.79 745.77 604.87 746.04
  Q 604.95 746.30 605.22 746.34
  L 607.45 746.67
  Q 607.89 746.74 607.89 746.30
  L 607.89 743.30
  Q 607.89 742.87 608.23 742.60
  Q 609.93 741.29 610.23 739.21
  Q 610.31 738.70 610.82 738.61
  Q 611.46 738.51 611.61 737.97
  A 0.92 0.01 -74.1 0 1 611.87 737.11
  L 612.33 736.74
  Q 612.70 736.43 612.62 735.95
  Q 612.40 734.71 611.61 733.76
  Q 611.22 733.30 611.53 732.77
  Q 612.00 731.97 612.99 732.14
  A 0.13 0.12 -86.2 0 0 613.13 732.01
  Q 613.13 731.88 613.13 731.74
  Q 613.13 731.33 613.54 731.39
  Q 614.22 731.49 614.57 730.94
  Q 614.87 730.49 615.40 730.57
  Q 617.59 730.89 619.49 730.27
  L 633.64 730.45
  A 1.12 1.12 0.0 0 0 634.78 729.32
  L 634.73 711.03
  Q 634.90 710.23 635.75 710.28
  Q 645.02 710.75 654.53 710.34
  Z"
/>
<path fill="#f98d68" d="
  M 305.83 711.09
  L 305.75 748.62
  Q 305.75 749.13 305.24 749.13
  L 284.72 749.22
  Q 284.15 749.22 284.15 749.78
  L 284.08 768.73
  A 0.68 0.67 -90.0 0 0 284.75 769.41
  L 337.79 769.37
  L 347.75 769.48
  A 1.29 1.29 0.0 0 1 349.02 770.78
  L 348.87 787.51
  A 1.08 1.08 0.0 0 0 349.96 788.60
  L 358.96 788.55
  L 349.37 788.71
  Q 348.83 788.72 348.83 789.26
  L 348.79 807.98
  A 0.77 0.76 0.0 0 1 348.02 808.74
  L 307.16 808.86
  Q 305.97 808.86 305.99 807.66
  L 306.41 789.04
  Q 306.42 788.67 306.04 788.67
  L 264.46 788.67
  Q 263.25 788.67 263.25 787.46
  L 263.23 769.74
  A 0.25 0.24 88.8 0 0 262.99 769.50
  L 243.29 769.50
  A 1.21 1.21 0.0 0 1 242.08 768.29
  L 242.02 750.84
  Q 242.02 749.94 242.92 749.91
  L 262.51 749.26
  A 0.77 0.77 0.0 0 0 263.26 748.49
  L 263.44 731.59
  A 0.99 0.99 0.0 0 1 264.41 730.61
  L 283.73 730.28
  A 0.76 0.76 0.0 0 0 284.48 729.52
  L 284.39 711.22
  A 0.37 0.37 0.0 0 1 284.76 710.85
  L 305.83 711.09
  Z"
/>
<path fill="#fffaf0" d="
  M 369.74 730.11
  L 348.33 730.29
  A 0.63 0.62 0.5 0 0 347.71 730.89
  L 347.34 748.74
  L 327.44 748.74
  A 0.72 0.71 0.0 0 1 326.72 748.03
  L 326.68 711.54
  A 0.49 0.49 0.0 0 1 327.16 711.05
  L 347.85 710.96
  L 368.51 710.91
  A 1.58 1.57 0.5 0 1 370.10 712.52
  L 369.74 730.11
  Z"
/>
<path fill="#4d7372" d="
  M 634.73 711.03
  L 634.78 729.32
  A 1.12 1.12 0.0 0 1 633.64 730.45
  L 619.49 730.27
  Q 588.34 730.24 557.25 730.25
  Q 555.62 730.25 554.45 729.79
  L 554.35 710.95
  L 634.73 711.03
  Z"
/>
<path fill="#fffaf0" d="
  M 431.46 710.94
  L 554.35 710.95
  L 554.45 729.79
  Q 553.97 730.45 551.75 730.45
  Q 492.00 730.50 432.25 730.25
  Q 431.62 730.25 431.47 729.69
  L 431.46 710.94
  Z"
/>
<path fill="#f98d68" d="
  M 757.19 730.03
  L 757.32 748.66
  Q 757.32 749.21 756.77 749.21
  L 736.77 749.27
  Q 736.27 749.27 736.28 748.77
  L 736.36 730.54
  L 757.19 730.03
  Z"
/>
<path fill="#1e475d" d="
  M 431.47 729.69
  Q 431.62 730.25 432.25 730.25
  Q 492.00 730.50 551.75 730.45
  Q 553.97 730.45 554.45 729.79
  Q 555.62 730.25 557.25 730.25
  Q 588.34 730.24 619.49 730.27
  Q 617.59 730.89 615.40 730.57
  Q 614.87 730.49 614.57 730.94
  Q 614.22 731.49 613.54 731.39
  Q 613.13 731.33 613.13 731.74
  Q 613.13 731.88 613.13 732.01
  A 0.13 0.12 -86.2 0 1 612.99 732.14
  Q 612.00 731.97 611.53 732.77
  Q 611.22 733.30 611.61 733.76
  Q 612.40 734.71 612.62 735.95
  Q 612.70 736.43 612.33 736.74
  L 611.87 737.11
  A 0.92 0.01 -74.1 0 0 611.61 737.97
  Q 611.46 738.51 610.82 738.61
  Q 610.31 738.70 610.23 739.21
  Q 609.93 741.29 608.23 742.60
  Q 607.89 742.87 607.89 743.30
  L 607.89 746.30
  Q 607.89 746.74 607.45 746.67
  L 605.22 746.34
  Q 604.95 746.30 604.87 746.04
  Q 604.79 745.77 605.10 745.71
  A 0.16 0.16 0.0 0 0 605.07 745.39
  Q 603.58 745.42 602.67 746.44
  Q 602.37 746.78 601.91 746.71
  Q 597.64 746.08 594.71 748.40
  C 564.43 748.55 534.07 748.00 503.75 748.44
  C 484.40 748.72 465.00 748.04 445.76 748.18
  Q 402.38 748.48 359.00 748.48
  Q 354.80 748.48 347.34 748.74
  L 347.71 730.89
  A 0.63 0.62 0.5 0 1 348.33 730.29
  L 369.74 730.11
  Q 399.51 730.15 429.16 730.13
  Q 429.73 730.13 431.47 729.69
  Z"
/>
<path fill="#f98d68" d="
  M 778.24 749.15
  L 796.67 749.00
  Q 797.95 748.99 797.96 750.27
  L 798.20 787.74
  A 1.19 1.19 0.0 0 1 797.01 788.94
  L 778.77 788.99
  A 0.67 0.67 0.0 0 0 778.10 789.65
  L 777.98 808.00
  Q 777.98 808.74 777.25 808.74
  L 758.50 808.82
  Q 757.16 808.83 757.18 807.49
  L 757.47 789.46
  A 0.83 0.82 0.7 0 0 756.64 788.62
  L 736.05 788.82
  L 736.10 769.21
  L 777.46 769.23
  A 0.70 0.70 0.0 0 0 778.16 768.53
  L 778.24 749.15
  Z"
/>
<rect fill="#f98d68" x="-9.67" y="-9.80" transform="translate(850.56,759.47) rotate(-0.1)" width="19.34" height="19.60" rx="1.31"/>
<path fill="#c87277" d="
  M 736.10 769.21
  L 736.05 788.82
  Q 735.71 788.86 735.48 789.18
  L 695.22 788.80
  L 674.44 788.71
  L 634.65 788.31
  L 613.65 788.85
  Q 605.39 788.89 597.00 788.57
  C 592.20 788.38 586.64 788.66 582.67 788.64
  Q 528.09 788.31 473.50 788.49
  Q 452.48 788.56 431.45 788.70
  L 410.56 788.85
  L 370.13 788.37
  L 358.96 788.55
  L 349.96 788.60
  A 1.08 1.08 0.0 0 1 348.87 787.51
  L 349.02 770.78
  A 1.29 1.29 0.0 0 0 347.75 769.48
  L 337.79 769.37
  L 736.10 769.21
  Z"
/>
<path fill="#f98d68" d="
  M 674.44 788.71
  L 674.49 807.88
  A 1.07 1.06 -90.0 0 1 673.43 808.95
  L 635.28 808.74
  A 0.70 0.69 -90.0 0 1 634.59 808.04
  L 634.65 788.31
  L 674.44 788.71
  Z"
/>
<path fill="#f98d68" d="
  M 410.56 788.85
  L 410.61 807.97
  A 0.81 0.81 0.0 0 1 409.80 808.78
  L 370.70 808.77
  A 0.66 0.66 0.0 0 1 370.04 808.11
  L 370.13 788.37
  L 410.56 788.85
  Z"
/>
<path fill="#f98d68" d="
  M 613.65 788.85
  L 613.89 807.54
  A 1.26 1.26 0.0 0 1 612.60 808.82
  Q 582.95 808.23 553.74 808.73
  C 513.19 809.42 472.54 808.97 432.04 808.59
  A 0.72 0.71 0.8 0 1 431.33 807.87
  L 431.45 788.70
  Q 452.48 788.56 473.50 788.49
  Q 528.09 788.31 582.67 788.64
  C 586.64 788.66 592.20 788.38 597.00 788.57
  Q 605.39 788.89 613.65 788.85
  Z"
/>
<path fill="#f98d68" d="
  M 735.48 789.18
  L 735.78 808.05
  Q 735.79 808.85 735.00 808.84
  L 695.99 808.64
  A 0.90 0.90 0.0 0 1 695.09 807.73
  L 695.22 788.80
  L 735.48 789.18
  Z"
/>
</svg>
