<svg viewBox="0 0 1024 1024" xmlns="http://www.w3.org/2000/svg"><path d="m0 0h1024v1024h-1024z" fill="#fff0e4"/><g fill="#1d3345"><path d="m497.16 273.48c3.69 4.29 10 2.2 13.3-1.57 10.44-11.93 11.76-30.92 8.26-45.91q-1.66-7.1-3.27-12.05-1.29-3.95-1.18-5.52c.36-5.32 6.43-7.73 10.91-4.83q3.97 2.56 8.25 7.23c27.09 29.54 29.07 74.96-5.44 99.83-7.01 5.04-17.48 9.74-26.12 14.61-6.16 3.47-10.09 7.17-14.48 12.35-4.13 4.88-10.95 3.02-14.42-1.61-12.81-17.1-11.7-41.56-3.73-60.14 2.97-6.93 7.77-13.72 12.57-19.82 3.36-4.27 8.5-9.99 14.35-5.47q3.31 2.55 2.96 6.87c-.39 4.81-5.75 11.64-1.96 16.03z"/><path d="m480.24 614.62c6.22-23.9 1.69-50.34-18.53-66.07-13.63-10.61-28.89-8.26-45.04-6.35-11.32 1.34-21.77.55-35.92.36-35.94-.48-64.75-16.32-85.7-44.91q-4.1-5.59-4.98-11.14c-1.37-8.69 8.6-14.07 15.38-9.22 19.03 13.63 38.5 22.08 61.05 22.41q9.76.14 19.51.21c13.59.09 16.65-18.42 3.35-22.88q-2.21-.74-7.3-.81c-9.75-.15-18.24.27-28.55-2.53-34.49-9.34-63.59-26.3-78.6-60.36-2.66-6.05-5.26-15.94-1.43-21.59 2.47-3.63 8.56-5.49 12.59-2.04q7.95 6.8 16.07 13.39c19.58 15.86 41.88 25.22 66.62 29.53 8.51 1.49 15.92-5.52 13.19-14.11-2.87-9.06-16.86-10.49-24.63-12.92-36.29-11.39-76.68-40.31-79.84-82.08-1.55-20.52 3.15-38.87 14.9-54.89 2.76-3.77 6.64-8.46 11.63-8.97 8.57-.87 9.38 7.13 8.42 13.43-6.72 43.95 24.69 80.42 62.71 96.72 13.18 5.65 25.76 10.03 35.05 18.99 7.63 7.37 12.64 16.95 15.46 27.25q1.77 6.49 3.69 12.95c4.94 16.58 18.91 39.41 38.64 38.93q4.37-.11 7.25-2.88 1.85-1.77 3.19-6.3 5.06-17.14 11.18-30.38c4.08-8.84 7.88-15.86 9.14-23.25 1.9-11.12-5.42-16.96-15.93-16.09-11.02.91-20.46 7.7-27.72 15.6q-.33.37-.77.13-1.89-1.06-2.12-2.74c-1.32-9.57 1.25-20.16 7.4-27.69 8.62-10.54 21.14-8.57 32.64-12.75 11.03-4.01 16.78-12.98 26-19.13q10.63-7.1 22.76-7.55 25.89-.94 51.74.75 3.59.23 6.27 1.57c4.22 2.1 3.39 7.46-.81 8.98-5.2 1.87-9.87 3.57-14.38 6.28-18.28 11.02-28.37 26.79-33.46 47.16-3.48 13.9-5.9 28.58-4.66 42.87 1.47 17.09 14.77 30.8 32.92 23.4 13.16-5.35 21.79-18.38 26.81-31.91 2.46-6.62 3.64-15.37 5.33-21.5 4.19-15.2 17.07-27.25 31.44-33.49 14.8-6.43 27.88-11.74 42.05-22.04 26.2-19.07 42.64-48.16 38.93-81.2-.38-3.45-1.59-8.37-.04-11.6 2.61-5.45 8.43-6.2 13.07-2.33q3.6 3.01 6.94 7.75 23.26 33.08 10.73 72.11c-2.58 8.06-6.91 15.05-12.64 22.82-16.59 22.47-43.66 37-70.21 43.99-5.79 1.52-11.37 2.82-14.68 7.04-6.14 7.81-.51 17.57 8.91 17.56q4.42-.01 8.76-.97 41.3-9.17 71.11-39c2.61-2.61 5.38-5.57 9.4-5.32 5.08.31 8.62 5.34 8.43 10.2q-.45 11.6-6.4 23.04-12.93 24.9-38.48 38.51-21.84 11.65-44.9 15.65c-6.07 1.06-12.51.92-18.84 1.03q-6.3.1-9 1.23c-6.51 2.73-9.6 10.37-5.6 16.78 3.31 5.28 7.16 5.74 13.53 5.61 8.63-.18 18.12.31 25.95-.82 20.12-2.9 34.83-11.24 51.33-22.51q3.33-2.27 6.99-1.01c6.1 2.09 8.26 8.91 5.67 14.74q-2.76 6.22-7.72 12.92-15.04 20.31-38.26 30.31-19.29 8.32-36.47 9.26-7.83.43-29.39.09c-12.35-.19-24.28-3.18-36.6-1.94-18.25 1.82-31.96 14.92-37.75 31.79-12.04 35.01 6.01 64.79 26.19 91.82 14.11 18.9 29.76 40.03 32.81 64q4.49 35.23-17.89 62.11c-4.11 4.92-14.74 15.99-20.98 14.59-4.39-.99-6.43-5.17-5.32-9.46 1.36-5.25 3.92-12.5 4.72-18.48q3.37-25.12-8.47-47.85-7.23-13.89-15.32-27.3-2.59-4.29-4.4-5.88c-4.49-3.95-11.22-4.77-15.6.02-5.5 5.99-1.44 16.61 2.03 22.96 8.42 15.45 17.05 28.77 18.18 47q2.15 34.78-21.28 61.72c-4.54 5.22-10.52 12.21-18.07 9.25q-2.23-.87-5.96-5.09c-21.15-23.9-30.76-54.51-19.76-85.6 3.65-10.33 12.31-23.77 16.8-33.8q3.03-6.76 1.07-12.95c-2.4-7.58-11.86-8.44-17.42-3.64q-3.07 2.65-5.1 6.17-7.41 12.84-14.13 26.07c-10.86 21.37-13.98 43.88-5.95 66.7q1.8 5.13-1.64 8.22c-8.69 7.8-20.6-8.49-25.32-14.59-20.27-26.17-22.28-60.89-6.39-89.66 12.7-23.01 31.01-42.43 43-65.86q5.3-10.38 7.42-18.54z"/><path d="m439.79 595.79c-23.79 9.54-50.98 6.7-72.03-8.03q-3.69-2.58-6.18-5.58c-5.53-6.64-1.84-14.34 6.68-14.35q35.69-.04 71.38-.09c7.41 0 13.56 1.47 14.84 9.34 1.59 9.72-6.99 15.62-14.69 18.71z"/><path d="m622.76 601.47c-12.77.29-41.19-4.28-42.05-21.81-.33-6.64 4.4-11.84 11.29-11.83q35.99.02 71.98-.06 5.17-.01 7.55 1.38 5 2.92 3.73 10.07-.26 1.48-3.62 4.91-2.92 2.99-9.1 6.46-18.5 10.38-39.78 10.88z"/></g></svg>