<?xml version="1.0" encoding="UTF-8" standalone="no"?>
<!DOCTYPE svg PUBLIC "-//W3C//DTD SVG 1.1//EN" "http://www.w3.org/Graphics/SVG/1.1/DTD/svg11.dtd">
<svg xmlns="http://www.w3.org/2000/svg" version="1.1" viewBox="0.00 0.00 1024.00 1024.00">
<path fill="#ffffff" d="
  M 0.00 0.00
  L 1024.00 0.00
  L 1024.00 1024.00
  L 0.00 1024.00
  L 0.00 0.00
  Z"
/>
<path fill="#010909" d="
  M 711.95 569.32
  C 723.69 573.72 736.80 578.03 747.22 582.63
  C 783.96 598.83 825.83 625.43 831.60 669.82
  C 835.48 699.72 821.68 726.04 800.76 746.52
  C 774.52 772.22 738.96 789.83 703.94 802.15
  Q 667.59 814.93 640.50 820.20
  C 622.83 823.64 599.36 828.22 579.01 830.17
  Q 516.03 836.20 451.72 830.32
  C 431.82 828.49 413.50 825.35 394.50 821.97
  Q 380.56 819.48 355.98 812.77
  Q 319.64 802.83 286.59 787.90
  C 247.51 770.24 208.68 741.73 196.39 698.45
  C 185.32 659.52 209.31 624.02 240.45 603.22
  C 263.07 588.12 287.80 578.02 313.68 569.97
  A 1.70 1.69 -9.9 0 0 314.87 568.29
  Q 313.24 521.42 308.81 474.49
  C 304.45 428.19 301.46 395.61 296.64 355.18
  Q 295.60 346.46 294.03 335.35
  Q 289.69 304.83 285.86 274.24
  C 285.32 269.94 284.61 265.86 285.71 261.33
  C 292.98 231.09 345.70 217.61 371.25 211.27
  Q 380.97 208.86 406.68 204.51
  C 464.37 194.75 524.58 193.87 583.50 199.46
  C 601.19 201.14 616.49 203.91 632.98 206.78
  Q 666.27 212.58 697.70 224.91
  C 713.63 231.16 737.70 243.52 740.89 262.47
  Q 741.58 266.52 740.38 275.48
  C 736.45 305.00 732.14 334.54 728.74 364.11
  Q 724.99 396.83 721.42 429.56
  C 716.38 475.69 713.37 522.22 711.47 568.60
  A 0.75 0.74 11.6 0 0 711.95 569.32
  Z"
/>
<path fill="#ffffff" d="
  M 360.49 311.94
  Q 359.96 313.24 360.29 315.00
  Q 362.57 327.07 364.15 339.27
  Q 373.14 408.44 375.28 430.00
  Q 377.67 454.16 381.25 502.50
  Q 381.92 511.57 376.03 516.29
  C 368.72 522.14 356.54 520.03 352.84 511.00
  Q 351.93 508.78 351.47 502.85
  C 348.24 460.49 344.27 425.65 338.95 379.50
  Q 334.22 338.56 325.56 288.05
  C 324.36 281.08 324.48 274.92 329.82 270.56
  Q 339.36 262.79 348.27 270.91
  C 350.89 273.31 351.46 277.15 355.15 278.22
  C 368.01 281.94 381.38 286.30 393.72 289.11
  Q 424.75 296.20 456.40 299.66
  C 481.13 302.36 506.38 302.75 531.24 302.11
  Q 563.95 301.28 586.25 297.49
  C 599.45 295.24 613.55 293.16 625.79 290.42
  Q 649.07 285.22 671.77 277.87
  C 673.36 277.35 674.37 275.70 675.23 273.96
  C 679.36 265.59 689.84 265.39 696.43 270.61
  C 704.01 276.60 701.19 285.94 699.05 294.25
  Q 697.99 298.37 696.44 309.56
  C 694.27 325.33 691.23 340.97 689.28 356.75
  Q 684.05 398.90 679.55 441.13
  Q 679.06 445.68 677.53 448.32
  C 672.65 456.75 661.17 458.43 654.22 451.95
  Q 649.27 447.34 649.99 438.99
  Q 655.45 375.87 665.86 313.46
  A 1.66 1.66 0.0 0 0 663.79 311.59
  Q 635.62 319.16 606.60 324.36
  C 525.74 338.84 440.22 333.11 361.78 311.31
  A 1.09 1.08 -70.8 0 0 360.49 311.94
  Z"
/>
<rect fill="#ffffff" x="-15.08" y="-59.32" transform="translate(447.69,425.80) rotate(-0.1)" width="30.16" height="118.64" rx="14.67"/>
<path fill="#ffffff" d="
  M 474.85 588.93
  Q 513.14 591.67 551.50 589.22
  C 565.76 588.31 578.77 586.21 593.85 583.61
  Q 618.74 579.32 642.92 571.98
  C 648.93 570.15 656.90 567.07 662.98 565.44
  C 674.32 562.40 679.90 573.56 679.21 583.02
  C 678.66 590.62 673.07 593.37 665.94 595.66
  C 639.68 604.06 613.15 611.31 585.86 615.50
  C 544.13 621.92 502.00 622.61 460.08 617.49
  C 450.93 616.37 441.50 615.34 432.68 613.87
  C 403.47 608.98 379.57 602.07 355.24 593.61
  C 341.05 588.67 346.61 564.09 361.26 564.73
  Q 363.50 564.82 368.45 566.56
  C 402.02 578.39 439.39 586.39 474.85 588.93
  Z"
/>
<path fill="#ffffff" d="
  M 372.56 624.67
  C 436.29 646.61 506.55 650.62 574.25 643.19
  Q 584.48 642.07 603.93 638.37
  C 623.12 634.72 642.26 629.55 660.00 622.68
  Q 669.21 619.11 675.16 624.51
  C 683.92 632.47 681.13 647.42 669.80 651.40
  Q 630.73 665.11 593.25 671.00
  C 540.68 679.26 486.85 679.44 434.35 670.96
  C 408.28 666.76 383.07 659.69 357.22 650.58
  C 352.10 648.77 348.83 646.25 347.17 640.93
  C 344.72 633.09 347.95 623.07 356.67 621.28
  C 361.95 620.19 367.06 622.77 372.56 624.67
  Z"
/>
<path fill="#ffffff" d="
  M 448.87 762.12
  C 475.32 765.03 497.03 765.99 528.00 765.55
  Q 592.86 764.63 655.22 746.92
  C 671.16 742.39 694.44 733.81 711.42 725.42
  C 725.06 718.67 741.04 707.90 750.66 696.16
  C 755.27 690.54 760.97 680.39 760.67 672.93
  C 760.49 668.42 757.48 664.62 757.65 659.99
  C 758.03 649.69 768.28 643.72 777.69 648.05
  Q 783.64 650.79 786.91 658.56
  C 796.65 681.64 785.85 704.43 769.20 720.95
  C 754.42 735.63 734.06 747.93 715.40 756.09
  Q 692.17 766.26 670.05 772.84
  C 656.71 776.80 641.37 781.03 626.83 783.87
  C 607.21 787.71 587.44 791.28 567.50 793.03
  C 524.84 796.79 483.80 795.79 441.47 790.73
  C 429.19 789.26 416.36 786.65 403.83 784.33
  Q 393.40 782.40 384.29 780.10
  C 373.13 777.29 361.91 774.54 350.95 770.91
  Q 344.99 768.93 339.03 766.94
  Q 312.18 757.94 287.63 744.05
  C 257.31 726.90 222.19 695.33 240.49 656.29
  C 245.53 645.54 258.73 643.24 266.40 652.59
  Q 269.54 656.42 268.80 661.52
  Q 268.78 661.65 266.67 667.85
  C 263.24 677.98 269.16 689.50 276.01 696.99
  C 294.20 716.89 319.84 728.71 344.61 737.75
  Q 395.25 756.22 448.87 762.12
  Z"
/>
<path fill="#ffffff" d="
  M 371.61 680.52
  C 408.35 692.74 446.55 700.09 485.24 701.72
  Q 525.62 703.43 563.00 700.23
  C 577.26 699.00 593.26 696.06 607.43 693.35
  Q 635.77 687.94 664.01 677.79
  C 682.91 671.00 689.09 699.97 672.99 705.70
  C 664.88 708.59 657.37 711.23 648.56 713.71
  C 641.83 715.60 634.94 717.94 628.41 719.45
  C 595.34 727.08 563.19 731.53 533.25 732.24
  C 473.15 733.68 412.08 727.26 355.50 706.21
  C 348.11 703.47 344.60 697.11 345.60 689.45
  C 346.78 680.34 352.98 674.97 362.52 677.73
  Q 368.11 679.35 371.61 680.52
  Z"
/>
</svg>
