<?xml version="1.0" encoding="UTF-8" standalone="no"?>
<!DOCTYPE svg PUBLIC "-//W3C//DTD SVG 1.1//EN" "http://www.w3.org/Graphics/SVG/1.1/DTD/svg11.dtd">
<svg xmlns="http://www.w3.org/2000/svg" version="1.1" viewBox="0.00 0.00 1024.00 1024.00">
<path fill="#54505b" d="
  M 0.00 0.00
  L 1024.00 0.00
  L 1024.00 1024.00
  L 0.00 1024.00
  L 0.00 0.00
  Z"
/>
<path fill="#1b1e31" d="
  M 737.40 779.55
  Q 737.07 778.73 736.23 778.31
  Q 736.60 778.21 736.81 778.01
  Q 737.00 777.84 737.00 777.44
  Q 737.09 759.77 736.94 742.29
  L 737.01 356.03
  A 0.75 0.75 0.0 0 0 736.26 355.28
  L 699.24 355.25
  Q 698.72 355.25 698.72 354.75
  L 698.40 293.61
  Q 698.40 293.08 697.86 293.08
  L 660.11 292.96
  A 0.61 0.61 0.0 0 1 659.51 292.35
  L 659.70 264.75
  A 0.25 0.24 90.0 0 0 659.46 264.50
  L 622.97 264.50
  Q 622.44 264.50 622.44 263.97
  L 622.43 233.81
  Q 622.43 233.44 622.06 233.43
  L 583.13 233.37
  A 0.49 0.48 90.0 0 1 582.65 232.88
  L 582.59 202.04
  Q 582.59 201.49 582.04 201.49
  L 453.18 201.50
  A 0.40 0.39 -90.0 0 0 452.79 201.90
  L 452.74 232.79
  A 0.61 0.61 0.0 0 1 452.13 233.40
  L 415.04 233.45
  A 0.77 0.76 -0.0 0 0 414.27 234.21
  L 414.26 264.00
  Q 414.26 264.52 413.74 264.52
  L 377.58 264.48
  Q 377.13 264.47 377.13 264.92
  L 377.27 292.50
  Q 377.27 293.02 376.75 293.02
  L 339.22 292.72
  Q 338.68 292.72 338.58 293.25
  Q 338.00 296.58 338.01 300.02
  Q 338.08 327.23 338.08 354.58
  Q 338.08 355.21 337.45 355.21
  L 299.48 355.19
  A 0.67 0.66 -0.0 0 0 298.81 355.85
  C 298.44 445.29 298.60 534.79 298.50 624.25
  Q 298.44 683.17 298.90 742.42
  L 298.83 777.01
  A 1.14 1.14 0.0 0 0 299.97 778.16
  L 337.81 778.07
  Q 338.33 778.07 338.33 777.55
  L 338.29 742.75
  L 375.75 742.68
  Q 376.96 742.68 376.96 741.46
  L 376.77 711.22
  A 0.76 0.75 -90.0 0 1 377.52 710.46
  L 414.36 710.34
  L 414.40 742.60
  L 414.49 777.36
  Q 414.49 778.16 415.30 778.16
  L 453.45 778.17
  A 0.33 0.33 0.0 0 0 453.78 777.84
  L 453.81 743.97
  Q 453.86 743.48 454.00 743.22
  Q 454.14 742.99 454.61 742.98
  Q 473.16 742.78 491.68 742.40
  L 492.02 777.79
  L 491.97 778.72
  L 454.31 778.53
  Q 453.55 778.52 453.55 779.28
  L 453.31 822.88
  A 0.58 0.57 -89.5 0 1 452.74 823.45
  L 415.02 823.52
  A 1.00 0.99 89.7 0 1 414.02 822.52
  L 413.93 778.99
  A 0.69 0.69 0.0 0 0 413.24 778.30
  L 338.91 778.73
  Q 338.05 778.74 338.05 779.59
  L 338.16 822.63
  Q 338.16 823.42 337.37 823.42
  L 299.50 823.27
  A 0.77 0.76 90.0 0 1 298.74 822.50
  L 299.00 778.99
  Q 299.00 778.48 298.49 778.48
  L 260.83 778.49
  A 0.74 0.73 -89.6 0 1 260.09 777.73
  C 260.68 752.72 260.16 727.67 260.26 702.65
  C 260.37 677.02 260.13 651.38 260.40 625.75
  Q 260.66 601.38 260.50 577.00
  C 260.21 531.93 259.93 486.82 260.34 441.76
  Q 260.73 398.38 260.04 354.93
  A 0.46 0.46 0.0 0 1 260.49 354.47
  L 297.89 354.21
  A 0.79 0.78 -87.6 0 0 298.67 353.49
  Q 298.99 349.92 299.00 348.75
  Q 299.25 321.02 298.95 293.02
  A 0.77 0.77 0.0 0 1 299.72 292.24
  L 337.08 292.19
  A 1.53 1.52 -0.2 0 0 338.60 290.67
  L 338.68 242.45
  A 0.38 0.38 0.0 0 1 339.06 242.07
  L 375.51 242.01
  A 1.27 1.26 90.0 0 0 376.77 240.74
  L 376.79 211.19
  Q 376.79 210.16 377.81 210.17
  L 412.47 210.28
  Q 413.98 210.28 413.97 208.78
  L 413.81 179.48
  A 0.95 0.95 0.0 0 1 414.76 178.52
  L 451.73 178.44
  Q 453.41 178.44 453.40 176.76
  L 453.38 170.33
  A 0.54 0.53 -0.0 0 1 453.92 169.80
  L 582.06 169.84
  A 0.47 0.46 90.0 0 1 582.52 170.31
  L 582.50 177.52
  A 1.25 1.25 0.0 0 0 583.77 178.77
  L 621.76 178.38
  Q 622.39 178.38 622.39 179.01
  L 622.33 209.35
  A 0.77 0.76 -0.0 0 0 623.11 210.12
  L 659.68 209.97
  A 0.71 0.71 0.0 0 1 660.39 210.68
  L 660.28 241.44
  A 0.66 0.66 0.0 0 0 660.94 242.10
  L 697.91 241.96
  A 0.29 0.28 90.0 0 1 698.19 242.25
  L 698.11 291.61
  A 0.75 0.75 0.0 0 0 698.86 292.36
  L 736.93 292.14
  A 0.61 0.54 -90.0 0 1 737.47 292.75
  L 737.12 353.23
  A 1.11 1.10 0.3 0 0 738.23 354.34
  L 774.93 354.18
  A 0.47 0.47 0.0 0 1 775.41 354.66
  Q 775.21 366.28 775.22 378.00
  Q 775.35 551.00 775.54 724.00
  Q 775.56 750.95 775.05 777.90
  A 0.65 0.64 -0.0 0 1 774.41 778.53
  Q 756.36 778.60 738.25 778.79
  Q 737.92 778.79 737.40 779.55
  Z"
/>
<path fill="#fffffb" d="
  M 736.94 742.29
  L 698.49 742.72
  L 698.50 709.68
  L 698.56 647.81
  A 1.57 1.56 90.0 0 0 697.00 646.24
  L 661.23 646.22
  A 1.00 0.99 0.0 0 1 660.23 645.23
  L 660.30 583.69
  A 1.10 1.10 0.0 0 0 659.19 582.59
  L 623.39 582.80
  Q 622.81 582.81 622.59 583.36
  Q 622.18 584.42 622.18 586.00
  Q 622.23 632.47 622.07 679.10
  L 622.16 710.28
  L 622.24 742.61
  L 582.46 742.64
  L 582.38 709.71
  L 582.20 679.56
  A 0.66 0.65 0.0 0 0 581.54 678.91
  L 545.32 678.99
  Q 544.83 678.99 544.83 679.48
  L 544.70 709.95
  L 544.72 742.66
  L 544.78 778.02
  L 492.41 777.99
  Q 492.27 777.99 492.14 777.88
  Q 492.09 777.83 492.02 777.79
  L 491.68 742.40
  L 491.98 710.76
  Q 491.98 710.50 491.84 710.27
  Q 491.75 710.14 491.69 710.05
  Q 491.75 709.86 491.84 709.68
  Q 491.95 709.46 491.95 709.21
  L 492.03 647.27
  A 0.99 0.98 -90.0 0 0 491.05 646.28
  Q 474.02 646.25 457.25 646.25
  Q 455.82 646.25 454.60 646.54
  A 0.95 0.93 83.5 0 0 453.88 647.46
  L 453.86 709.85
  L 453.80 742.42
  L 414.40 742.60
  L 414.36 710.34
  L 414.62 679.13
  L 414.69 615.78
  A 1.25 1.25 0.0 0 0 413.45 614.53
  L 377.55 614.18
  A 0.77 0.76 0.0 0 0 376.77 614.95
  L 377.10 644.69
  Q 377.12 646.25 375.56 646.26
  L 339.36 646.48
  A 0.95 0.95 0.0 0 0 338.41 647.43
  L 338.46 710.02
  L 338.43 741.83
  C 337.35 743.05 335.36 742.21 334.19 742.23
  Q 316.61 742.55 298.90 742.42
  Q 298.44 683.17 298.50 624.25
  C 298.60 534.79 298.44 445.29 298.81 355.85
  A 0.67 0.66 -0.0 0 1 299.48 355.19
  L 337.45 355.21
  Q 338.08 355.21 338.08 354.58
  Q 338.08 327.23 338.01 300.02
  Q 338.00 296.58 338.58 293.25
  Q 338.68 292.72 339.22 292.72
  L 376.75 293.02
  Q 377.27 293.02 377.27 292.50
  L 377.13 264.92
  Q 377.13 264.47 377.58 264.48
  L 413.74 264.52
  Q 414.26 264.52 414.26 264.00
  L 414.27 234.21
  A 0.77 0.76 -0.0 0 1 415.04 233.45
  L 452.13 233.40
  A 0.61 0.61 0.0 0 0 452.74 232.79
  L 452.79 201.90
  A 0.40 0.39 90.0 0 1 453.18 201.50
  L 582.04 201.49
  Q 582.59 201.49 582.59 202.04
  L 582.65 232.88
  A 0.49 0.48 90.0 0 0 583.13 233.37
  L 622.06 233.43
  Q 622.43 233.44 622.43 233.81
  L 622.44 263.97
  Q 622.44 264.50 622.97 264.50
  L 659.46 264.50
  A 0.25 0.24 90.0 0 1 659.70 264.75
  L 659.51 292.35
  A 0.61 0.61 0.0 0 0 660.11 292.96
  L 697.86 293.08
  Q 698.40 293.08 698.40 293.61
  L 698.72 354.75
  Q 698.72 355.25 699.24 355.25
  L 736.26 355.28
  A 0.75 0.75 0.0 0 1 737.01 356.03
  L 736.94 742.29
  Z"
/>
<rect fill="#1b1e31" x="402.77" y="346.60" width="49.46" height="139.52" rx="0.58"/>
<path fill="#1b1e31" d="
  M 633.95 346.68
  L 671.94 346.60
  A 0.51 0.51 0.0 0 1 672.45 347.11
  L 672.67 389.97
  A 0.51 0.51 0.0 0 1 672.16 390.48
  L 653.36 390.50
  A 0.51 0.51 0.0 0 0 652.85 391.01
  L 652.74 408.75
  A 0.51 0.51 0.0 0 1 652.24 409.25
  L 636.30 409.34
  A 0.51 0.51 0.0 0 0 635.79 409.85
  L 635.82 428.00
  A 0.51 0.51 0.0 0 0 636.33 428.51
  L 652.31 428.55
  A 0.51 0.51 0.0 0 1 652.81 429.05
  L 652.96 447.78
  A 0.51 0.51 0.0 0 0 653.47 448.29
  L 671.98 448.31
  A 0.51 0.51 0.0 0 1 672.49 448.82
  L 672.76 485.50
  A 0.51 0.51 0.0 0 1 672.25 486.01
  L 633.76 486.01
  A 0.51 0.51 0.0 0 1 633.25 485.50
  L 633.19 468.72
  A 0.51 0.51 0.0 0 0 632.68 468.21
  L 616.48 468.11
  A 0.51 0.51 0.0 0 1 615.97 467.60
  L 615.95 449.84
  A 0.51 0.51 0.0 0 0 615.44 449.33
  L 597.26 449.48
  A 0.51 0.51 0.0 0 0 596.75 449.98
  L 596.47 467.54
  A 0.51 0.51 0.0 0 1 595.96 468.04
  L 579.01 468.06
  A 0.51 0.51 0.0 0 0 578.50 468.56
  L 578.05 485.50
  A 0.51 0.51 0.0 0 1 577.54 486.00
  L 544.76 485.99
  A 0.51 0.51 0.0 0 1 544.25 485.48
  L 544.26 449.02
  A 0.51 0.51 0.0 0 1 544.77 448.51
  L 561.76 448.50
  A 0.51 0.51 0.0 0 0 562.26 448.00
  L 562.45 428.77
  A 0.51 0.51 0.0 0 1 562.96 428.26
  L 580.90 428.27
  A 0.51 0.51 0.0 0 0 581.41 427.76
  L 581.42 409.72
  A 0.51 0.51 0.0 0 0 580.91 409.21
  L 562.97 409.24
  A 0.51 0.51 0.0 0 1 562.46 408.73
  L 562.28 390.97
  A 0.51 0.51 0.0 0 0 561.78 390.46
  L 544.88 390.24
  A 0.51 0.51 0.0 0 1 544.37 389.72
  L 544.55 347.03
  A 0.51 0.51 0.0 0 1 545.06 346.52
  L 577.74 346.53
  A 0.51 0.51 0.0 0 1 578.25 347.03
  L 578.71 368.72
  A 0.51 0.51 0.0 0 0 579.22 369.22
  L 596.09 369.22
  A 0.51 0.51 0.0 0 1 596.60 369.73
  L 596.60 387.99
  A 0.51 0.51 0.0 0 0 597.12 388.50
  L 615.29 388.30
  A 0.51 0.51 0.0 0 0 615.80 387.79
  L 616.08 369.74
  A 0.51 0.51 0.0 0 1 616.59 369.24
  L 632.93 369.14
  A 0.51 0.51 0.0 0 0 633.44 368.63
  L 633.44 347.19
  A 0.51 0.51 0.0 0 1 633.95 346.68
  Z"
/>
<path fill="#accae2" d="
  M 698.50 709.68
  L 660.88 710.12
  A 0.38 0.38 0.0 0 1 660.49 709.74
  L 660.38 679.77
  A 0.80 0.79 0.0 0 0 659.58 678.98
  L 622.07 679.10
  Q 622.23 632.47 622.18 586.00
  Q 622.18 584.42 622.59 583.36
  Q 622.81 582.81 623.39 582.80
  L 659.19 582.59
  A 1.10 1.10 0.0 0 1 660.30 583.69
  L 660.23 645.23
  A 1.00 0.99 -0.0 0 0 661.23 646.22
  L 697.00 646.24
  A 1.57 1.56 90.0 0 1 698.56 647.81
  L 698.50 709.68
  Z"
/>
<path fill="#accae2" d="
  M 414.62 679.13
  L 377.04 679.24
  A 0.30 0.29 -90.0 0 0 376.75 679.54
  L 376.91 709.43
  A 0.65 0.64 -0.4 0 1 376.26 710.08
  L 338.46 710.02
  L 338.41 647.43
  A 0.95 0.95 0.0 0 1 339.36 646.48
  L 375.56 646.26
  Q 377.12 646.25 377.10 644.69
  L 376.77 614.95
  A 0.77 0.76 0.0 0 1 377.55 614.18
  L 413.45 614.53
  A 1.25 1.25 0.0 0 1 414.69 615.78
  L 414.62 679.13
  Z"
/>
<path fill="#accae2" d="
  M 491.69 710.05
  L 453.86 709.85
  L 453.88 647.46
  A 0.95 0.93 83.5 0 1 454.60 646.54
  Q 455.82 646.25 457.25 646.25
  Q 474.02 646.25 491.05 646.28
  A 0.99 0.98 90.0 0 1 492.03 647.27
  L 491.95 709.21
  Q 491.95 709.46 491.84 709.68
  Q 491.75 709.86 491.69 710.05
  Z"
/>
<path fill="#accae2" d="
  M 582.38 709.71
  L 544.70 709.95
  L 544.83 679.48
  Q 544.83 678.99 545.32 678.99
  L 581.54 678.91
  A 0.66 0.65 0.0 0 1 582.20 679.56
  L 582.38 709.71
  Z"
/>
<path fill="#7099b8" d="
  M 698.50 709.68
  L 698.49 742.72
  Q 698.49 742.81 698.49 742.91
  L 661.21 742.91
  A 0.90 0.90 0.0 0 1 660.31 742.00
  L 660.48 711.01
  A 0.86 0.85 0.3 0 0 659.62 710.15
  L 622.16 710.28
  L 622.07 679.10
  L 659.58 678.98
  A 0.80 0.79 -0.0 0 1 660.38 679.77
  L 660.49 709.74
  A 0.38 0.38 0.0 0 0 660.88 710.12
  L 698.50 709.68
  Z"
/>
<path fill="#7099b8" d="
  M 414.62 679.13
  L 414.36 710.34
  L 377.52 710.46
  A 0.76 0.75 90.0 0 0 376.77 711.22
  L 376.96 741.46
  Q 376.96 742.68 375.75 742.68
  L 338.29 742.75
  Q 338.54 742.30 338.43 741.83
  L 338.46 710.02
  L 376.26 710.08
  A 0.65 0.64 -0.4 0 0 376.91 709.43
  L 376.75 679.54
  A 0.30 0.29 -90.0 0 1 377.04 679.24
  L 414.62 679.13
  Z"
/>
<path fill="#7099b8" d="
  M 453.86 709.85
  L 491.69 710.05
  Q 491.75 710.14 491.84 710.27
  Q 491.98 710.50 491.98 710.76
  L 491.68 742.40
  Q 473.16 742.78 454.61 742.98
  Q 454.14 742.99 454.00 743.22
  Q 453.86 743.48 453.81 743.97
  Q 453.94 743.19 453.80 742.42
  L 453.86 709.85
  Z"
/>
<path fill="#7099b8" d="
  M 582.38 709.71
  L 582.46 742.64
  Q 582.53 742.60 582.60 742.56
  L 544.72 742.66
  L 544.70 709.95
  L 582.38 709.71
  Z"
/>
<path fill="#1b1e31" d="
  M 622.16 710.28
  L 659.62 710.15
  A 0.86 0.85 0.3 0 1 660.48 711.01
  L 660.31 742.00
  A 0.90 0.90 0.0 0 0 661.21 742.91
  L 698.49 742.91
  L 698.50 777.79
  A 0.30 0.29 -0.0 0 0 698.80 778.08
  L 736.00 778.14
  Q 736.15 778.14 736.18 778.20
  Q 736.20 778.26 736.23 778.31
  Q 737.07 778.73 737.40 779.55
  L 737.33 822.63
  A 0.80 0.80 0.0 0 1 736.53 823.43
  L 700.18 823.20
  Q 698.92 823.19 698.91 821.93
  L 698.74 779.52
  Q 698.73 778.51 697.72 778.51
  L 623.54 778.78
  A 1.19 1.18 -89.8 0 0 622.36 779.96
  L 622.29 822.98
  A 0.38 0.38 0.0 0 1 621.91 823.36
  L 584.24 823.23
  Q 583.02 823.23 583.01 822.01
  L 582.78 778.11
  L 621.67 778.17
  Q 622.23 778.17 622.23 777.61
  L 622.24 742.61
  L 622.16 710.28
  Z"
/>
<path fill="#accae2" d="
  M 338.43 741.83
  Q 338.54 742.30 338.29 742.75
  L 338.33 777.55
  Q 338.33 778.07 337.81 778.07
  L 299.97 778.16
  A 1.14 1.14 0.0 0 1 298.83 777.01
  L 298.90 742.42
  Q 316.61 742.55 334.19 742.23
  C 335.36 742.21 337.35 743.05 338.43 741.83
  Z"
/>
<path fill="#accae2" d="
  M 453.80 742.42
  Q 453.94 743.19 453.81 743.97
  L 453.78 777.84
  A 0.33 0.33 0.0 0 1 453.45 778.17
  L 415.30 778.16
  Q 414.49 778.16 414.49 777.36
  L 414.40 742.60
  L 453.80 742.42
  Z"
/>
<path fill="#accae2" d="
  M 622.24 742.61
  L 622.23 777.61
  Q 622.23 778.17 621.67 778.17
  L 582.78 778.11
  Q 582.60 777.69 582.70 777.51
  L 582.60 742.56
  Q 582.53 742.60 582.46 742.64
  L 622.24 742.61
  Z"
/>
<path fill="#accae2" d="
  M 736.94 742.29
  Q 737.09 759.77 737.00 777.44
  Q 737.00 777.84 736.81 778.01
  Q 736.60 778.21 736.23 778.31
  Q 736.20 778.26 736.18 778.20
  Q 736.15 778.14 736.00 778.14
  L 698.80 778.08
  A 0.30 0.29 -0.0 0 1 698.50 777.79
  L 698.49 742.91
  Q 698.49 742.81 698.49 742.72
  L 736.94 742.29
  Z"
/>
<path fill="#1b1e31" d="
  M 544.72 742.66
  L 582.60 742.56
  L 582.70 777.51
  Q 582.48 778.49 581.00 778.47
  Q 563.15 778.23 550.28 778.47
  C 548.51 778.50 546.97 778.04 545.03 778.99
  Q 544.90 778.07 544.78 778.02
  L 544.72 742.66
  Z"
/>
<path fill="#accae2" d="
  M 492.02 777.79
  Q 492.09 777.83 492.14 777.88
  Q 492.27 777.99 492.41 777.99
  L 544.78 778.02
  Q 544.90 778.07 545.03 778.99
  Q 544.80 779.56 544.80 779.75
  Q 544.85 801.00 545.04 822.25
  Q 545.04 822.71 544.46 822.61
  L 492.03 822.65
  L 491.97 778.72
  L 492.02 777.79
  Z"
/>
<path fill="#1b1e31" d="
  M 544.46 822.61
  Q 544.91 822.71 544.91 823.00
  Q 545.04 836.32 544.85 849.90
  A 0.56 0.56 0.0 0 0 545.41 850.47
  L 775.26 850.57
  A 0.44 0.43 90.0 0 1 775.69 851.01
  L 775.34 872.63
  Q 775.32 873.83 774.12 873.83
  L 260.20 873.75
  A 0.55 0.54 -90.0 0 1 259.66 873.20
  L 259.70 851.50
  A 1.04 1.04 0.0 0 1 260.74 850.47
  L 490.93 850.56
  Q 491.81 850.56 491.82 849.68
  L 492.03 822.65
  L 544.46 822.61
  Z"
/>
</svg>
