<?xml version="1.0" encoding="UTF-8" standalone="no"?>
<!DOCTYPE svg PUBLIC "-//W3C//DTD SVG 1.1//EN" "http://www.w3.org/Graphics/SVG/1.1/DTD/svg11.dtd">
<svg xmlns="http://www.w3.org/2000/svg" version="1.1" viewBox="0.00 0.00 1024.00 1024.00">
<path fill="#00001c" d="
  M 0.00 0.00
  L 1024.00 0.00
  L 1024.00 1024.00
  L 0.00 1024.00
  L 0.00 0.00
  Z"
/>
<rect fill="#ffc300" x="536.89" y="87.78" width="20.38" height="48.74" rx="0.39"/>
<path fill="#e61737" d="
  M 774.52 124.71
  L 753.70 124.84
  L 753.69 106.77
  A 0.82 0.82 0.0 0 1 754.50 105.95
  L 773.48 105.76
  Q 774.66 105.75 774.65 106.93
  L 774.52 124.71
  Z"
/>
<path fill="#ffc300" d="
  M 774.52 124.71
  L 774.78 139.29
  L 775.21 248.78
  Q 771.70 253.63 766.70 257.12
  Q 759.90 261.87 759.55 262.17
  Q 752.54 267.96 746.30 274.59
  C 741.97 279.20 738.10 280.87 731.69 280.60
  L 731.36 257.81
  A 0.58 0.58 0.0 0 1 731.94 257.22
  L 752.05 256.90
  Q 753.48 256.88 753.48 255.45
  L 753.63 209.68
  Q 753.99 207.17 753.99 204.50
  Q 753.97 164.61 753.70 124.84
  L 774.52 124.71
  Z"
/>
<path fill="#ffc300" d="
  M 266.77 209.45
  L 266.76 232.15
  Q 266.34 232.21 265.59 232.40
  Q 264.98 232.56 264.39 232.53
  Q 254.67 232.20 244.92 232.33
  A 0.46 0.46 0.0 0 1 244.46 231.87
  L 244.91 156.31
  L 245.25 125.26
  Q 245.25 124.75 245.75 124.75
  L 265.75 124.74
  Q 266.27 124.74 266.27 125.26
  L 266.77 209.45
  Z"
/>
<rect fill="#ffc300" x="-11.60" y="-9.55" transform="translate(624.68,145.25) rotate(-0.3)" width="23.20" height="19.10" rx="0.37"/>
<path fill="#ffffe6" d="
  M 358.85 160.21
  Q 359.27 158.60 358.00 158.61
  Q 347.75 158.71 337.58 158.51
  L 337.52 136.25
  A 0.48 0.48 0.0 0 1 338.00 135.77
  L 358.49 135.76
  Q 358.91 135.76 358.91 136.18
  L 358.85 160.21
  Z"
/>
<rect fill="#ffc300" x="-11.52" y="-10.42" transform="translate(474.64,147.05) rotate(0.1)" width="23.04" height="20.84" rx="0.47"/>
<rect fill="#e61737" x="-5.64" y="-8.18" transform="translate(710.07,145.05) rotate(0.4)" width="11.28" height="16.36" rx="0.60"/>
<path fill="#ff5a0d" d="
  M 570.04 279.50
  C 567.86 279.97 566.14 281.00 563.92 281.00
  Q 551.57 280.97 539.25 281.20
  Q 536.84 281.25 535.44 282.13
  Q 534.79 281.04 532.34 281.08
  A 1.63 1.62 0.2 0 1 530.68 279.42
  C 530.77 275.92 530.20 273.16 527.64 270.47
  Q 524.55 267.24 521.33 264.14
  C 519.23 262.13 517.86 259.44 514.26 258.27
  Q 513.74 258.10 513.65 257.79
  Q 513.55 257.47 513.55 256.92
  L 565.46 257.23
  A 1.20 1.19 -89.5 0 0 566.65 256.05
  L 566.94 233.95
  A 0.73 0.72 -89.6 0 0 566.22 233.21
  L 534.41 233.21
  Q 535.68 231.17 535.61 228.75
  Q 535.41 222.21 535.49 211.27
  Q 535.51 208.74 533.31 208.29
  Q 540.36 201.92 544.86 196.86
  C 548.16 193.17 543.59 186.31 548.45 182.18
  Q 555.60 176.10 562.65 169.90
  Q 565.75 167.18 565.76 163.01
  Q 565.77 155.34 565.74 147.10
  A 2.48 2.48 0.0 0 1 566.59 145.21
  C 571.92 140.57 575.87 136.55 583.49 137.93
  Q 584.39 138.09 584.39 139.02
  Q 584.34 174.65 583.92 208.26
  C 583.88 211.55 581.48 211.55 579.76 212.93
  Q 574.53 217.10 569.48 220.69
  A 5.20 5.17 -17.1 0 0 567.29 224.80
  L 567.10 232.52
  A 0.67 0.67 0.0 0 0 567.77 233.21
  L 584.41 233.16
  Q 586.22 233.15 586.23 231.34
  L 586.24 210.32
  A 0.96 0.95 89.7 0 1 587.18 209.36
  L 605.71 209.24
  A 0.58 0.58 0.0 0 1 606.29 209.82
  Q 606.53 223.96 606.57 237.26
  Q 606.60 244.15 602.19 247.70
  C 596.55 252.23 588.70 257.60 585.67 264.21
  Q 584.53 266.71 583.33 267.97
  Q 577.17 274.40 570.04 279.50
  Z"
/>
<path fill="#ff5a0d" d="
  M 774.78 139.29
  L 774.90 139.97
  A 0.47 0.47 0.0 0 0 775.54 140.33
  Q 777.07 139.72 778.06 140.91
  Q 783.87 147.90 792.65 152.07
  C 794.32 152.86 794.98 154.34 795.06 156.24
  Q 795.58 167.92 794.85 179.65
  Q 794.81 180.26 795.42 180.27
  C 798.30 180.33 803.04 175.22 805.01 173.01
  Q 809.48 167.99 814.84 163.35
  Q 814.75 166.89 814.99 170.13
  C 815.55 177.83 815.31 185.54 815.23 193.25
  C 815.21 195.10 815.31 196.02 813.49 196.97
  C 811.66 197.93 810.32 198.65 808.69 200.20
  C 805.46 203.28 794.72 208.72 794.87 213.25
  Q 795.13 221.00 794.95 228.75
  C 794.91 230.71 794.47 231.81 792.82 233.08
  Q 790.93 234.53 788.57 237.07
  Q 783.36 242.66 775.21 248.78
  L 774.78 139.29
  Z"
/>
<path fill="#ff5a0d" d="
  M 244.91 156.31
  L 244.46 231.87
  A 0.46 0.46 0.0 0 0 244.92 232.33
  Q 254.67 232.20 264.39 232.53
  Q 264.98 232.56 265.59 232.40
  Q 266.34 232.21 266.76 232.15
  L 268.49 232.56
  Q 268.03 247.02 268.23 257.25
  C 268.27 258.86 268.42 260.48 269.68 261.82
  C 273.28 265.64 277.91 269.82 280.72 274.20
  Q 271.53 274.07 262.45 273.68
  C 258.49 273.51 256.02 272.77 253.61 269.88
  Q 250.20 265.80 246.81 261.69
  C 242.19 256.11 236.31 251.31 231.21 245.84
  Q 230.02 244.55 227.45 240.67
  Q 225.30 237.44 222.28 235.13
  C 221.18 233.62 222.93 232.18 222.72 230.68
  Q 223.65 228.90 223.66 226.87
  Q 223.78 205.18 223.76 183.50
  Q 223.76 182.35 223.50 181.00
  Q 223.71 181.32 224.16 180.73
  A 0.87 0.84 -27.6 0 0 224.33 180.22
  L 223.92 146.97
  Q 223.91 146.10 224.74 145.85
  Q 226.91 145.18 228.71 147.03
  Q 232.45 150.87 236.54 154.33
  C 239.21 156.58 241.62 156.62 244.91 156.31
  Z"
/>
<path fill="#e61737" d="
  M 795.01 280.83
  Q 794.40 280.80 794.19 281.30
  Q 788.01 281.55 781.75 281.55
  C 778.92 281.55 776.90 283.71 774.84 285.28
  A 1.76 1.73 71.7 0 0 774.16 286.67
  L 774.27 304.75
  Q 770.94 305.18 770.00 305.18
  Q 748.29 305.10 726.78 305.22
  Q 715.70 305.67 704.75 305.51
  Q 699.80 305.44 698.35 304.04
  L 698.15 281.48
  A 0.78 0.78 0.0 0 1 698.93 280.69
  L 731.69 280.60
  C 738.10 280.87 741.97 279.20 746.30 274.59
  Q 752.54 267.96 759.55 262.17
  Q 759.90 261.87 766.70 257.12
  Q 771.70 253.63 775.21 248.78
  Q 783.36 242.66 788.57 237.07
  Q 790.93 234.53 792.82 233.08
  C 794.47 231.81 794.91 230.71 794.95 228.75
  Q 795.13 221.00 794.87 213.25
  C 794.72 208.72 805.46 203.28 808.69 200.20
  C 810.32 198.65 811.66 197.93 813.49 196.97
  C 815.31 196.02 815.21 195.10 815.23 193.25
  C 815.31 185.54 815.55 177.83 814.99 170.13
  Q 814.75 166.89 814.84 163.35
  Q 817.41 161.84 820.69 160.87
  Q 822.77 160.25 824.62 159.20
  C 826.81 157.95 829.75 157.25 831.36 155.45
  C 832.41 154.27 833.06 152.85 834.15 151.74
  Q 836.06 149.79 837.38 147.82
  Q 839.22 145.07 839.21 148.38
  L 839.05 207.23
  A 0.79 0.79 0.0 0 1 838.27 208.02
  L 817.35 208.35
  A 1.07 1.07 0.0 0 0 816.30 209.42
  Q 816.38 223.13 816.20 237.12
  C 816.16 239.82 815.67 241.68 813.54 243.57
  Q 805.75 250.50 797.20 256.42
  C 795.42 257.65 794.49 259.82 794.47 262.13
  Q 794.43 270.20 794.80 278.25
  Q 794.84 279.18 794.56 280.04
  Q 794.46 280.33 794.73 280.48
  Q 794.90 280.57 795.01 280.83
  Z"
/>
<path fill="#ffc300" d="
  M 337.58 158.51
  Q 347.75 158.71 358.00 158.61
  Q 359.27 158.60 358.85 160.21
  L 358.76 178.52
  Q 358.68 179.45 358.41 180.07
  Q 358.20 180.54 357.69 180.54
  L 337.52 180.55
  L 337.58 158.51
  Z"
/>
<path fill="#e61737" d="
  M 418.98 178.66
  L 400.33 178.98
  A 0.90 0.90 0.0 0 1 399.42 178.08
  L 399.54 159.93
  A 0.90 0.90 0.0 0 1 400.44 159.04
  L 419.17 159.05
  A 0.90 0.90 0.0 0 1 420.07 159.96
  L 419.86 177.78
  A 0.90 0.90 0.0 0 1 418.98 178.66
  Z"
/>
<path fill="#ffc300" d="
  M 698.61 178.96
  L 676.23 179.48
  A 0.38 0.38 0.0 0 1 675.84 179.10
  L 675.82 159.59
  A 0.38 0.38 0.0 0 1 676.20 159.21
  L 698.62 159.07
  A 0.38 0.38 0.0 0 1 699.00 159.45
  L 698.98 178.58
  A 0.38 0.38 0.0 0 1 698.61 178.96
  Z"
/>
<path fill="#e61737" d="
  M 223.50 181.00
  Q 223.76 182.35 223.76 183.50
  Q 223.78 205.18 223.66 226.87
  Q 223.65 228.90 222.72 230.68
  Q 218.88 231.20 215.12 229.56
  A 1.23 1.23 0.0 0 1 214.43 228.75
  Q 213.81 226.41 211.57 225.50
  Q 211.07 225.29 210.83 224.82
  Q 209.47 222.15 206.92 220.45
  Q 206.49 220.17 205.98 220.18
  L 200.64 220.31
  A 0.67 0.67 0.0 0 1 199.96 219.64
  L 200.26 160.00
  A 0.82 0.81 18.4 0 1 201.56 159.35
  C 204.70 161.64 206.65 164.70 209.51 167.39
  C 210.91 168.71 211.78 170.43 213.07 171.65
  Q 215.89 174.34 218.69 177.02
  C 220.14 178.42 220.65 180.60 223.50 181.00
  Z"
/>
<path fill="#ff5a0d" d="
  M 358.76 178.52
  L 358.43 207.34
  A 0.70 0.70 0.0 0 1 357.73 208.03
  L 338.02 208.02
  A 0.53 0.52 -0.0 0 1 337.49 207.50
  L 337.52 180.55
  L 357.69 180.54
  Q 358.20 180.54 358.41 180.07
  Q 358.68 179.45 358.76 178.52
  Z"
/>
<rect fill="#710a2f" x="-5.63" y="-7.52" transform="translate(428.83,193.93) rotate(-0.8)" width="11.26" height="15.04" rx="1.66"/>
<rect fill="#ffc300" x="-12.46" y="-10.62" transform="translate(660.25,197.13) rotate(-0.1)" width="24.92" height="21.24" rx="0.37"/>
<rect fill="#710a2f" x="-5.10" y="-7.22" transform="translate(297.34,195.16) rotate(0.7)" width="10.20" height="14.44" rx="1.08"/>
<path fill="#ffc300" d="
  M 533.31 208.29
  Q 535.51 208.74 535.49 211.27
  Q 535.41 222.21 535.61 228.75
  Q 535.68 231.17 534.41 233.21
  L 460.21 233.17
  L 460.36 222.65
  Q 460.37 222.14 460.72 221.79
  Q 468.49 213.99 472.90 210.61
  C 474.65 209.27 480.78 209.42 483.00 209.41
  Q 505.00 209.36 527.00 209.46
  Q 531.25 209.48 533.31 208.29
  Z"
/>
<path fill="#ffffe6" d="
  M 266.77 209.45
  L 287.01 209.52
  Q 287.58 209.52 287.58 210.10
  L 287.60 232.38
  L 268.49 232.56
  L 266.76 232.15
  L 266.77 209.45
  Z"
/>
<rect fill="#ff5a0d" x="-11.75" y="-11.42" transform="translate(390.27,220.69) rotate(-0.2)" width="23.50" height="22.84" rx="0.63"/>
<path fill="#ffffe6" d="
  M 753.63 209.68
  L 753.48 255.45
  Q 753.48 256.88 752.05 256.90
  L 731.94 257.22
  A 0.58 0.58 0.0 0 0 731.36 257.81
  L 731.69 280.60
  L 698.93 280.69
  A 0.78 0.78 0.0 0 0 698.15 281.48
  L 698.35 304.04
  Q 698.28 304.62 697.38 304.62
  C 683.94 304.56 670.18 304.09 656.77 304.78
  Q 656.18 304.81 656.18 305.40
  L 656.22 328.93
  A 0.66 0.65 90.0 0 1 655.57 329.59
  L 636.20 329.82
  A 0.57 0.57 0.0 0 0 635.64 330.38
  L 635.49 352.36
  Q 634.94 352.99 634.25 353.02
  Q 624.09 353.39 614.16 353.53
  A 0.50 0.50 0.0 0 0 613.67 354.03
  L 613.44 377.07
  A 1.28 1.27 -90.0 0 1 612.18 378.34
  L 585.94 378.56
  Q 585.20 378.57 585.20 379.31
  L 585.25 403.24
  A 0.66 0.66 0.0 0 1 584.59 403.90
  L 511.20 404.03
  Q 510.56 404.03 510.56 404.67
  L 510.40 426.84
  Q 510.40 428.07 509.16 428.07
  L 495.81 428.08
  A 0.78 0.77 -0.0 0 1 495.03 427.31
  L 494.95 404.96
  A 1.17 1.17 0.0 0 0 493.77 403.79
  L 473.97 403.98
  A 1.15 1.14 89.3 0 1 472.81 402.84
  L 472.77 379.47
  A 1.30 1.29 0.9 0 0 471.51 378.18
  L 462.55 377.90
  L 462.47 354.30
  A 0.31 0.31 0.0 0 1 462.78 353.99
  L 478.24 353.96
  Q 478.68 353.96 478.69 353.52
  L 478.73 329.91
  L 480.94 329.53
  L 503.65 329.55
  A 0.37 0.37 0.0 0 0 504.02 329.18
  L 503.79 305.59
  A 0.91 0.90 90.0 0 0 502.90 304.69
  L 487.28 304.60
  L 487.30 281.31
  Q 488.87 280.97 488.92 277.25
  Q 489.04 267.62 488.84 257.90
  Q 488.82 257.27 488.20 257.28
  L 463.25 257.33
  L 440.80 257.37
  L 440.83 234.00
  A 0.55 0.54 -0.5 0 1 441.37 233.46
  L 460.21 233.17
  L 534.41 233.21
  L 566.22 233.21
  A 0.73 0.72 -89.6 0 1 566.94 233.95
  L 566.65 256.05
  A 1.20 1.19 -89.5 0 1 565.46 257.23
  L 513.55 256.92
  L 511.31 257.02
  Q 510.63 257.04 510.63 257.72
  L 510.51 280.70
  A 0.45 0.45 0.0 0 0 510.96 281.15
  L 529.97 281.27
  A 0.56 0.56 0.0 0 1 530.52 281.82
  Q 531.01 305.33 530.97 329.00
  Q 530.97 330.92 531.80 335.75
  Q 528.61 338.74 525.76 342.07
  C 523.87 344.28 523.87 346.53 523.83 349.26
  Q 523.61 363.89 523.93 378.04
  A 1.20 1.20 0.0 0 0 525.13 379.21
  L 559.51 379.24
  A 0.50 0.49 -0.6 0 0 560.01 378.74
  L 559.96 355.03
  Q 559.95 354.02 560.97 354.02
  L 595.74 354.24
  A 0.49 0.48 -0.0 0 0 596.23 353.76
  L 596.24 330.76
  A 0.76 0.75 -90.0 0 1 596.99 330.00
  L 618.13 329.90
  Q 618.92 329.90 618.92 329.12
  L 618.99 282.19
  A 1.07 1.07 0.0 0 1 620.06 281.12
  L 661.39 281.29
  Q 662.08 281.29 662.08 280.61
  L 662.00 259.21
  A 1.54 1.54 0.0 0 1 663.54 257.66
  L 717.82 257.64
  A 0.46 0.45 -90.0 0 0 718.27 257.18
  L 718.36 234.06
  A 0.58 0.58 0.0 0 1 718.94 233.48
  L 734.75 233.47
  Q 735.22 233.47 735.21 233.00
  L 735.21 210.26
  Q 735.21 209.76 735.71 209.76
  L 753.63 209.68
  Z"
/>
<path fill="#ffc300" d="
  M 287.60 232.38
  Q 287.63 233.17 288.27 233.29
  L 288.45 256.11
  Q 288.46 257.15 289.50 257.15
  L 299.82 257.14
  Q 301.03 257.14 301.03 258.35
  L 301.05 280.74
  L 288.88 280.72
  A 2.62 2.61 -23.7 0 1 287.11 280.03
  L 280.72 274.20
  C 277.91 269.82 273.28 265.64 269.68 261.82
  C 268.42 260.48 268.27 258.86 268.23 257.25
  Q 268.03 247.02 268.49 232.56
  L 287.60 232.38
  Z"
/>
<path fill="#ffffe6" d="
  M 288.27 233.29
  L 316.00 233.46
  A 0.77 0.76 0.4 0 1 316.76 234.22
  L 316.76 257.24
  Q 316.76 257.73 317.24 257.73
  L 357.33 257.71
  A 0.37 0.36 -90.0 0 1 357.69 258.08
  L 357.52 280.53
  Q 357.52 281.05 358.03 281.05
  L 379.76 281.02
  A 0.49 0.48 89.4 0 1 380.25 281.51
  L 380.25 329.46
  A 0.47 0.46 -90.0 0 0 380.71 329.93
  L 397.83 329.85
  Q 398.81 329.85 398.80 330.83
  L 398.57 353.62
  A 0.56 0.55 1.0 0 0 399.12 354.18
  L 419.25 354.19
  Q 419.76 354.19 419.77 354.71
  L 419.82 376.90
  L 415.93 377.37
  A 1.64 1.64 0.0 0 0 415.05 377.76
  Q 406.89 384.87 399.92 393.21
  L 398.79 393.73
  A 1.81 1.81 0.0 0 1 396.25 392.37
  Q 395.26 386.15 395.51 379.75
  A 1.25 1.25 0.0 0 0 394.25 378.45
  L 380.64 378.64
  A 1.25 1.24 -0.2 0 1 379.37 377.39
  L 379.39 353.96
  A 0.55 0.55 0.0 0 0 378.83 353.41
  L 359.07 353.92
  L 358.99 330.92
  A 1.22 1.22 0.0 0 0 357.76 329.70
  L 337.28 329.74
  Q 336.97 329.74 336.97 329.43
  L 337.02 281.29
  A 0.47 0.47 0.0 0 0 336.55 280.82
  L 314.51 280.85
  L 301.05 280.74
  L 301.03 258.35
  Q 301.03 257.14 299.82 257.14
  L 289.50 257.15
  Q 288.46 257.15 288.45 256.11
  L 288.27 233.29
  Z"
/>
<path fill="#e61737" d="
  M 222.28 235.13
  Q 225.30 237.44 227.45 240.67
  Q 230.02 244.55 231.21 245.84
  C 236.31 251.31 242.19 256.11 246.81 261.69
  Q 250.20 265.80 253.61 269.88
  C 256.02 272.77 258.49 273.51 262.45 273.68
  Q 271.53 274.07 280.72 274.20
  L 287.11 280.03
  A 2.62 2.61 -23.7 0 0 288.88 280.72
  L 301.05 280.74
  L 314.51 280.85
  Q 313.29 284.91 314.17 288.67
  C 315.19 293.03 319.82 294.80 320.01 299.50
  Q 320.13 302.34 319.99 304.55
  A 1.18 1.17 1.8 0 1 318.81 305.65
  L 282.74 305.50
  L 249.35 305.40
  Q 247.98 305.40 247.97 304.03
  C 247.90 297.30 250.49 281.28 239.00 281.29
  Q 232.37 281.29 225.81 281.20
  A 0.54 0.53 0.5 0 0 225.27 281.72
  Q 224.99 294.67 225.68 307.74
  Q 225.87 311.32 226.91 312.56
  Q 234.12 321.12 242.94 327.98
  C 244.53 329.21 245.83 329.53 247.75 329.52
  Q 254.97 329.46 262.85 329.57
  Q 264.26 329.59 264.52 330.98
  Q 264.61 331.47 265.20 332.65
  C 268.73 339.63 274.29 348.10 280.78 352.52
  Q 281.16 353.61 280.00 353.74
  Q 272.37 354.54 261.25 353.95
  C 256.34 353.69 252.23 357.32 252.23 362.25
  Q 252.23 370.03 252.02 377.57
  A 0.87 0.87 0.0 0 0 252.89 378.46
  L 312.35 378.21
  A 1.20 1.20 0.0 0 1 313.56 379.42
  L 313.42 408.28
  A 1.17 1.16 -5.4 0 1 312.47 409.42
  C 307.87 410.27 302.88 411.45 299.48 415.12
  Q 296.71 418.10 295.33 419.14
  C 292.56 421.23 288.98 423.25 287.84 426.77
  Q 287.35 428.28 288.94 428.28
  Q 305.87 428.20 323.25 428.16
  C 331.48 428.14 337.07 428.12 343.20 422.26
  Q 348.07 417.59 353.02 413.02
  Q 357.39 408.99 359.65 404.80
  C 364.89 403.13 373.38 403.97 379.08 403.90
  A 0.89 0.88 -0.3 0 1 379.98 404.78
  L 380.05 422.30
  A 0.54 0.53 66.7 0 0 380.97 422.67
  L 397.43 405.43
  Q 398.58 404.22 398.78 402.56
  L 399.92 393.21
  Q 406.89 384.87 415.05 377.76
  A 1.64 1.64 0.0 0 1 415.93 377.37
  L 419.82 376.90
  Q 419.48 376.99 419.90 377.40
  Q 420.25 377.73 420.73 377.75
  Q 430.30 378.09 439.87 377.81
  Q 440.62 377.79 440.94 377.25
  Q 441.42 378.08 442.69 378.33
  L 442.97 427.97
  Q 442.97 428.49 443.49 428.48
  L 466.02 428.02
  A 0.62 0.61 -0.5 0 1 466.65 428.63
  Q 466.55 441.04 466.49 453.58
  C 466.45 463.39 470.63 467.72 475.46 475.36
  Q 475.79 475.87 476.40 475.87
  L 491.27 475.80
  A 0.60 0.60 0.0 0 1 491.87 476.39
  L 492.17 499.22
  A 0.55 0.54 88.9 0 0 492.72 499.76
  L 505.97 499.47
  Q 506.49 499.45 506.49 499.97
  L 506.89 522.76
  Q 506.90 523.38 507.52 523.38
  L 521.29 523.35
  A 0.69 0.69 0.0 0 1 521.98 524.04
  L 521.95 546.04
  A 0.56 0.55 -1.0 0 0 522.54 546.60
  L 534.25 545.95
  A 3.23 3.22 -23.7 0 1 536.73 546.91
  C 538.80 549.02 541.47 551.65 541.48 554.75
  C 541.50 562.31 540.82 570.97 541.98 578.38
  Q 542.34 580.65 543.87 582.31
  Q 547.63 586.39 552.55 588.96
  C 559.44 592.55 564.58 599.20 559.25 606.91
  Q 554.87 613.24 546.50 613.46
  Q 545.95 613.48 545.89 614.02
  Q 545.40 618.12 545.28 622.25
  Q 544.78 639.88 544.82 658.40
  A 0.81 0.81 0.0 0 1 544.03 659.21
  L 528.34 659.55
  A 0.55 0.55 0.0 0 0 527.80 660.09
  Q 527.67 668.13 527.50 676.25
  C 527.39 681.63 522.93 684.49 519.42 688.00
  C 513.60 693.82 507.07 703.18 498.66 705.02
  C 494.51 705.93 491.94 708.26 489.17 711.17
  C 483.41 717.20 477.93 723.43 471.47 728.74
  Q 470.01 729.93 464.96 729.82
  L 424.70 729.88
  Q 424.74 728.31 422.00 728.32
  Q 398.87 728.38 375.76 728.93
  Q 371.46 729.03 370.25 729.24
  C 366.44 729.90 361.41 735.23 358.93 738.16
  Q 358.52 738.64 358.50 739.27
  L 358.22 749.53
  A 0.88 0.88 0.0 0 1 357.36 750.39
  C 354.88 750.44 352.90 750.50 350.76 751.95
  Q 342.21 757.71 336.37 765.21
  L 336.32 736.35
  A 3.18 3.18 0.0 0 1 337.24 734.09
  L 341.61 729.64
  C 346.44 728.34 352.08 728.65 357.09 728.26
  A 0.76 0.76 0.0 0 0 357.79 727.47
  C 357.38 718.64 363.97 712.12 370.55 707.28
  C 373.20 705.34 378.81 705.59 382.00 705.58
  Q 420.39 705.47 459.63 705.52
  A 1.54 1.54 0.0 0 0 461.17 704.03
  C 461.29 700.76 461.49 697.20 463.93 694.43
  Q 468.04 689.78 473.07 686.13
  C 475.50 684.36 479.70 684.61 482.57 684.29
  A 1.14 1.13 89.4 0 0 483.58 683.25
  C 484.27 675.14 492.19 668.53 500.23 661.20
  Q 500.98 660.51 504.30 659.09
  Q 504.76 658.89 504.84 658.39
  C 506.00 651.01 505.46 643.60 505.57 635.72
  Q 506.47 625.02 505.77 612.69
  L 505.91 546.93
  Q 505.92 546.46 505.45 546.46
  L 466.91 546.59
  Q 465.97 546.60 465.97 545.66
  L 466.10 524.00
  Q 466.11 523.44 465.50 522.95
  Q 465.24 522.75 464.50 522.75
  Q 452.98 522.72 441.90 523.00
  Q 440.86 523.02 440.86 521.98
  L 440.93 477.22
  A 0.46 0.45 0.6 0 0 440.47 476.76
  L 421.51 476.77
  A 0.73 0.73 0.0 0 0 420.78 477.49
  L 420.13 521.30
  A 1.30 1.30 0.0 0 1 418.84 522.58
  L 378.94 522.80
  Q 378.06 522.80 378.06 521.93
  L 378.02 502.70
  Q 378.02 500.79 379.92 500.78
  L 398.30 500.65
  A 0.80 0.80 0.0 0 0 399.09 499.86
  Q 399.16 476.94 399.23 454.00
  Q 399.24 453.33 398.32 452.01
  Q 400.31 444.72 399.89 435.82
  A 0.80 0.80 0.0 0 0 399.11 435.05
  Q 392.38 434.82 385.50 434.74
  Q 380.67 434.68 377.34 438.08
  Q 371.34 444.22 364.92 449.92
  C 362.10 452.42 359.26 451.99 356.34 453.71
  C 358.54 444.79 357.82 437.58 357.73 429.32
  A 1.01 1.00 -22.2 0 0 356.03 428.61
  C 348.25 436.12 339.54 441.91 331.08 448.60
  Q 328.00 451.03 324.00 451.05
  Q 282.11 451.28 240.41 451.26
  A 0.53 0.52 0.5 0 1 239.88 450.73
  L 240.14 414.73
  Q 240.15 413.11 241.77 413.10
  L 288.74 412.76
  A 0.51 0.51 0.0 0 0 289.25 412.26
  L 289.50 399.02
  Q 289.52 398.03 288.52 398.03
  L 222.49 398.07
  A 0.83 0.82 -90.0 0 1 221.67 397.24
  L 221.82 377.63
  A 0.27 0.26 89.0 0 0 221.55 377.36
  L 200.64 377.48
  A 0.84 0.84 0.0 0 1 199.79 376.64
  L 199.88 354.60
  A 0.80 0.79 -0.0 0 1 200.68 353.81
  L 242.60 353.73
  A 1.61 1.59 6.0 0 0 244.17 352.47
  C 244.51 350.93 244.04 349.84 242.77 348.86
  Q 232.17 340.69 229.27 337.47
  Q 219.72 326.88 208.67 317.84
  Q 206.05 315.70 202.39 315.73
  A 1.18 1.17 -2.7 0 1 201.22 314.67
  L 200.45 305.80
  A 0.94 0.93 -70.2 0 0 200.18 305.22
  Q 194.03 299.33 188.00 293.39
  C 186.57 291.99 185.09 291.65 183.26 291.12
  Q 182.75 290.98 182.73 290.44
  C 182.15 271.71 182.45 252.86 182.86 234.12
  A 0.39 0.38 0.0 0 1 183.25 233.74
  L 199.85 233.80
  A 0.68 0.67 90.0 0 1 200.52 234.48
  L 200.51 248.24
  A 3.85 3.84 -66.7 0 0 201.56 250.88
  Q 203.80 253.24 206.28 255.98
  C 209.37 259.40 210.34 257.92 214.02 257.78
  Q 217.93 257.63 221.62 257.69
  A 1.12 1.12 0.0 0 0 222.75 256.55
  L 222.28 235.13
  Z"
/>
<path fill="#e61737" d="
  M 671.48 435.02
  Q 666.00 433.27 660.01 433.48
  Q 659.62 433.49 659.34 433.76
  L 659.11 433.98
  Q 658.70 434.37 658.54 433.83
  Q 658.50 433.69 658.48 433.49
  C 658.58 429.55 659.59 421.72 656.22 418.94
  C 652.13 415.56 648.52 412.79 643.53 409.90
  Q 639.15 407.37 635.05 404.38
  C 632.52 402.54 632.49 401.18 632.52 398.24
  Q 632.61 388.78 632.86 379.40
  A 0.65 0.65 0.0 0 1 633.48 378.76
  Q 641.74 378.41 649.99 378.18
  Q 652.64 378.10 653.72 379.53
  C 659.52 387.28 666.33 393.89 673.23 400.63
  C 676.46 403.79 679.22 405.06 683.47 403.45
  Q 685.72 403.46 686.50 405.29
  C 688.00 408.75 690.34 411.74 693.07 413.92
  Q 700.12 419.55 704.79 425.95
  C 705.87 427.44 706.74 427.88 708.50 427.96
  Q 725.88 428.70 743.26 427.91
  Q 745.15 427.82 745.39 425.74
  A 1.43 1.43 0.0 0 0 744.30 424.19
  Q 742.09 423.68 741.55 421.47
  A 2.42 2.42 0.0 0 0 739.31 419.64
  C 734.65 419.42 728.97 420.23 725.33 416.67
  Q 721.95 413.38 710.29 401.64
  C 706.30 397.62 701.98 394.19 697.63 390.63
  Q 695.77 389.10 693.94 386.95
  C 691.67 384.27 688.52 382.15 688.53 378.23
  L 711.16 378.11
  L 789.77 378.53
  A 1.18 1.17 -87.7 0 0 790.95 377.44
  C 791.33 372.50 791.73 366.33 787.77 362.38
  C 783.42 358.02 781.27 354.27 774.20 354.07
  Q 764.47 353.79 754.75 354.23
  Q 750.30 354.43 749.66 352.77
  L 749.65 329.42
  L 774.55 329.22
  Q 783.11 322.46 790.06 315.82
  Q 792.12 313.85 797.81 307.67
  Q 807.59 298.23 817.31 288.05
  C 822.83 282.26 827.44 280.59 835.44 281.37
  A 1.54 1.54 0.0 0 0 837.13 279.84
  L 837.12 257.50
  Q 836.76 253.72 836.81 247.75
  C 836.82 245.79 836.77 244.76 838.24 243.28
  Q 842.58 238.90 846.37 235.87
  C 849.31 233.52 854.88 233.65 858.46 233.96
  Q 858.97 234.01 858.97 234.52
  L 858.98 289.52
  Q 858.98 290.16 858.35 290.25
  C 855.56 290.64 852.76 290.61 850.35 291.85
  C 846.42 293.86 842.80 297.25 839.87 300.51
  Q 839.04 301.43 836.19 305.85
  Q 833.85 309.46 830.03 312.53
  Q 822.39 318.67 814.56 324.57
  C 808.25 329.32 801.93 329.00 794.29 329.03
  A 1.01 1.01 0.0 0 0 793.28 329.96
  Q 792.42 341.40 793.14 352.87
  A 0.59 0.57 0.0 0 0 793.69 353.41
  C 808.53 354.31 823.71 353.74 838.60 353.78
  Q 839.14 353.78 839.14 354.32
  L 839.00 376.64
  A 0.65 0.64 -0.5 0 1 838.36 377.28
  L 816.43 377.60
  A 0.47 0.47 0.0 0 0 815.97 378.06
  L 815.61 397.29
  Q 815.59 398.17 814.71 398.17
  L 731.97 398.12
  A 0.91 0.90 0.6 0 0 731.06 399.00
  L 730.73 411.87
  A 0.89 0.89 0.0 0 0 731.62 412.78
  L 792.50 412.95
  A 0.66 0.66 0.0 0 1 793.15 413.62
  L 792.54 450.48
  A 0.75 0.75 0.0 0 1 791.79 451.22
  Q 759.98 451.27 728.00 451.13
  C 723.46 451.11 719.42 451.59 715.65 448.09
  Q 708.00 441.00 700.69 433.56
  Q 698.87 431.71 698.96 429.20
  A 1.02 1.02 0.0 0 0 698.01 428.14
  Q 688.89 427.49 679.75 427.70
  C 674.88 427.82 669.16 429.24 671.48 435.02
  Z"
/>
<path fill="#ffc300" d="
  M 513.55 256.92
  Q 513.55 257.47 513.65 257.79
  Q 513.74 258.10 514.26 258.27
  C 517.86 259.44 519.23 262.13 521.33 264.14
  Q 524.55 267.24 527.64 270.47
  C 530.20 273.16 530.77 275.92 530.68 279.42
  A 1.63 1.62 0.2 0 0 532.34 281.08
  Q 534.79 281.04 535.44 282.13
  Q 539.84 284.15 541.67 287.21
  Q 541.92 287.62 542.35 287.85
  L 548.92 291.29
  L 549.02 327.78
  Q 549.03 328.34 548.46 328.40
  C 544.48 328.79 541.53 328.47 537.98 331.24
  Q 534.94 333.60 531.80 335.75
  Q 530.97 330.92 530.97 329.00
  Q 531.01 305.33 530.52 281.82
  A 0.56 0.56 0.0 0 0 529.97 281.27
  L 510.96 281.15
  A 0.45 0.45 0.0 0 1 510.51 280.70
  L 510.63 257.72
  Q 510.63 257.04 511.31 257.02
  L 513.55 256.92
  Z"
/>
<path fill="#ffc300" d="
  M 440.80 257.37
  L 463.25 257.33
  L 463.24 279.77
  A 0.47 0.47 0.0 0 1 462.78 280.24
  L 440.70 280.48
  A 1.23 1.22 -0.2 0 0 439.49 281.69
  L 439.29 303.59
  Q 439.28 304.95 437.91 304.96
  L 418.51 305.05
  A 0.43 0.42 -0.7 0 1 418.07 304.63
  Q 418.03 293.45 418.04 282.24
  Q 418.05 277.97 420.66 275.66
  Q 430.83 266.66 440.80 257.37
  Z"
/>
<path fill="#ff5a0d" d="
  M 837.12 257.50
  L 837.13 279.84
  A 1.54 1.54 0.0 0 1 835.44 281.37
  C 827.44 280.59 822.83 282.26 817.31 288.05
  Q 807.59 298.23 797.81 307.67
  Q 796.31 295.68 796.56 283.39
  C 796.59 281.81 795.70 281.10 794.19 281.30
  Q 794.40 280.80 795.01 280.83
  L 808.99 280.86
  Q 809.50 280.87 809.77 280.42
  C 811.75 277.03 815.67 276.82 815.71 272.46
  Q 815.76 265.49 815.99 258.69
  A 0.96 0.96 0.0 0 1 816.94 257.76
  L 837.12 257.50
  Z"
/>
<path fill="#e61737" d="
  M 570.04 279.50
  Q 569.19 280.18 568.55 280.93
  C 565.76 284.15 569.35 289.11 562.49 289.92
  Q 555.72 290.71 548.92 291.29
  L 542.35 287.85
  Q 541.92 287.62 541.67 287.21
  Q 539.84 284.15 535.44 282.13
  Q 536.84 281.25 539.25 281.20
  Q 551.57 280.97 563.92 281.00
  C 566.14 281.00 567.86 279.97 570.04 279.50
  Z"
/>
<path fill="#ff5a0d" d="
  M 359.07 353.92
  L 328.27 353.76
  A 1.00 0.99 90.0 0 1 327.29 352.77
  L 327.17 331.11
  A 1.32 1.32 0.0 0 0 325.86 329.80
  L 283.50 329.52
  A 1.06 1.05 0.8 0 1 282.45 328.45
  L 282.74 305.50
  L 318.81 305.65
  A 1.18 1.17 1.8 0 0 319.99 304.55
  Q 320.13 302.34 320.01 299.50
  C 319.82 294.80 315.19 293.03 314.17 288.67
  Q 313.29 284.91 314.51 280.85
  L 336.55 280.82
  A 0.47 0.47 0.0 0 1 337.02 281.29
  L 336.97 329.43
  Q 336.97 329.74 337.28 329.74
  L 357.76 329.70
  A 1.22 1.22 0.0 0 1 358.99 330.92
  L 359.07 353.92
  Z"
/>
<path fill="#ffc300" d="
  M 282.74 305.50
  L 282.45 328.45
  A 1.06 1.05 0.8 0 0 283.50 329.52
  L 325.86 329.80
  A 1.32 1.32 0.0 0 1 327.17 331.11
  L 327.29 352.77
  A 1.00 0.99 90.0 0 0 328.27 353.76
  L 359.07 353.92
  L 378.83 353.41
  A 0.55 0.55 0.0 0 1 379.39 353.96
  L 379.37 377.39
  A 1.25 1.24 -0.2 0 0 380.64 378.64
  L 394.25 378.45
  A 1.25 1.25 0.0 0 1 395.51 379.75
  Q 395.26 386.15 396.25 392.37
  A 1.81 1.81 0.0 0 0 398.79 393.73
  L 399.92 393.21
  L 398.78 402.56
  Q 398.58 404.22 397.43 405.43
  L 380.97 422.67
  A 0.54 0.53 66.7 0 1 380.05 422.30
  L 379.98 404.78
  A 0.89 0.88 -0.3 0 0 379.08 403.90
  C 373.38 403.97 364.89 403.13 359.65 404.80
  L 359.56 379.30
  A 0.83 0.82 89.7 0 0 358.73 378.47
  L 322.96 378.61
  Q 322.39 378.61 322.39 378.04
  L 322.36 354.45
  A 1.06 1.06 0.0 0 0 321.28 353.39
  Q 303.72 353.68 286.50 353.43
  Q 284.16 353.40 280.78 352.52
  C 274.29 348.10 268.73 339.63 265.20 332.65
  Q 264.61 331.47 264.52 330.98
  Q 264.26 329.59 262.85 329.57
  Q 254.97 329.46 247.75 329.52
  C 245.83 329.53 244.53 329.21 242.94 327.98
  Q 234.12 321.12 226.91 312.56
  Q 225.87 311.32 225.68 307.74
  Q 224.99 294.67 225.27 281.72
  A 0.54 0.53 0.5 0 1 225.81 281.20
  Q 232.37 281.29 239.00 281.29
  C 250.49 281.28 247.90 297.30 247.97 304.03
  Q 247.98 305.40 249.35 305.40
  L 282.74 305.50
  Z"
/>
<path fill="#ffc300" d="
  M 487.30 281.31
  L 487.28 304.60
  L 480.25 304.85
  L 464.30 304.73
  A 0.77 0.76 90.0 0 1 463.54 303.96
  L 463.72 281.79
  Q 463.72 281.25 464.26 281.25
  L 487.30 281.31
  Z"
/>
<path fill="#ffc300" d="
  M 794.19 281.30
  C 795.70 281.10 796.59 281.81 796.56 283.39
  Q 796.31 295.68 797.81 307.67
  Q 792.12 313.85 790.06 315.82
  Q 783.11 322.46 774.55 329.22
  L 774.27 304.75
  L 774.16 286.67
  A 1.76 1.73 71.7 0 1 774.84 285.28
  C 776.90 283.71 778.92 281.55 781.75 281.55
  Q 788.01 281.55 794.19 281.30
  Z"
/>
<path fill="#ff5a0d" d="
  M 698.35 304.04
  Q 699.80 305.44 704.75 305.51
  Q 715.70 305.67 726.78 305.22
  L 727.21 329.00
  Q 727.38 329.05 727.29 329.32
  A 0.49 0.48 -79.3 0 1 726.84 329.63
  L 716.54 329.67
  L 685.54 329.75
  A 1.22 1.21 -90.0 0 0 684.33 330.97
  L 684.40 353.81
  Q 661.87 353.57 639.00 354.01
  Q 635.76 354.08 635.49 352.36
  L 635.64 330.38
  A 0.57 0.57 0.0 0 1 636.20 329.82
  L 655.57 329.59
  A 0.66 0.65 90.0 0 0 656.22 328.93
  L 656.18 305.40
  Q 656.18 304.81 656.77 304.78
  C 670.18 304.09 683.94 304.56 697.38 304.62
  Q 698.28 304.62 698.35 304.04
  Z"
/>
<path fill="#e61737" d="
  M 487.28 304.60
  L 502.90 304.69
  A 0.91 0.90 90.0 0 1 503.79 305.59
  L 504.02 329.18
  A 0.37 0.37 0.0 0 1 503.65 329.55
  L 480.94 329.53
  L 480.25 304.85
  L 487.28 304.60
  Z"
/>
<path fill="#ffffe6" d="
  M 774.27 304.75
  L 774.55 329.22
  L 749.65 329.42
  L 727.21 329.00
  L 726.78 305.22
  Q 748.29 305.10 770.00 305.18
  Q 770.94 305.18 774.27 304.75
  Z"
/>
<path fill="#ffc300" d="
  M 727.21 329.00
  L 749.65 329.42
  L 749.66 352.77
  Q 749.47 353.47 748.75 353.50
  Q 736.45 353.96 716.23 353.45
  Q 716.16 343.62 716.10 334.50
  Q 716.09 332.25 716.54 329.67
  L 726.84 329.63
  A 0.49 0.48 -79.3 0 0 727.29 329.32
  Q 727.38 329.05 727.21 329.00
  Z"
/>
<path fill="#ffffe6" d="
  M 716.54 329.67
  Q 716.09 332.25 716.10 334.50
  Q 716.16 343.62 716.23 353.45
  L 711.16 353.56
  Q 697.69 352.81 684.40 353.81
  L 684.33 330.97
  A 1.22 1.21 -90.0 0 1 685.54 329.75
  L 716.54 329.67
  Z"
/>
<path fill="#ff5a0d" d="
  M 478.73 329.91
  L 478.69 353.52
  Q 478.68 353.96 478.24 353.96
  L 462.78 353.99
  A 0.31 0.31 0.0 0 0 462.47 354.30
  L 462.55 377.90
  Q 462.28 378.49 461.24 378.46
  Q 448.52 378.12 442.69 378.33
  Q 441.42 378.08 440.94 377.25
  L 441.17 354.30
  Q 441.17 354.03 441.45 354.02
  L 456.17 353.87
  A 1.06 1.05 -89.7 0 0 457.21 352.83
  L 457.41 343.01
  A 2.03 2.02 -5.9 0 1 458.99 341.08
  L 461.70 340.47
  Q 462.33 340.33 462.43 339.70
  L 463.16 335.30
  A 1.04 1.04 0.0 0 1 463.86 334.48
  Q 467.11 333.35 468.68 330.39
  Q 468.93 329.93 469.44 329.93
  L 478.73 329.91
  Z"
/>
<path fill="#ffc300" d="
  M 635.49 352.36
  Q 635.76 354.08 639.00 354.01
  Q 661.87 353.57 684.40 353.81
  Q 697.69 352.81 711.16 353.56
  L 711.16 378.11
  L 688.53 378.23
  L 677.45 378.39
  Q 674.36 378.44 676.83 380.29
  Q 679.53 382.31 682.96 382.73
  A 0.88 0.87 -86.4 0 1 683.73 383.61
  L 683.47 403.45
  C 679.22 405.06 676.46 403.79 673.23 400.63
  C 666.33 393.89 659.52 387.28 653.72 379.53
  Q 652.64 378.10 649.99 378.18
  Q 641.74 378.41 633.48 378.76
  A 0.65 0.65 0.0 0 0 632.86 379.40
  Q 632.61 388.78 632.52 398.24
  C 632.49 401.18 632.52 402.54 635.05 404.38
  Q 639.15 407.37 643.53 409.90
  C 648.52 412.79 652.13 415.56 656.22 418.94
  C 659.59 421.72 658.58 429.55 658.48 433.49
  Q 658.10 434.74 658.11 436.00
  Q 658.17 443.39 658.73 451.09
  Q 648.95 442.79 639.46 434.53
  C 628.40 424.90 621.21 416.47 612.57 406.68
  Q 610.17 403.96 607.49 404.65
  A 1.39 1.38 5.9 0 0 606.61 405.36
  Q 605.93 406.71 605.95 408.25
  Q 606.07 417.37 605.83 427.19
  Q 605.81 428.00 605.00 428.01
  L 544.92 428.37
  A 0.73 0.72 -0.4 0 0 544.20 429.09
  L 543.93 474.72
  A 1.15 1.15 0.0 0 1 542.78 475.87
  L 516.87 475.82
  A 0.57 0.56 0.0 0 0 516.30 476.38
  L 516.32 499.33
  A 0.90 0.89 0.7 0 0 517.20 500.22
  L 541.83 500.51
  A 0.73 0.73 0.0 0 1 542.55 501.24
  L 542.59 523.30
  L 542.96 535.73
  Q 542.99 536.84 543.80 537.60
  Q 554.68 547.87 565.29 557.48
  C 567.51 559.49 567.63 565.15 567.85 568.04
  Q 567.89 568.59 568.44 568.65
  C 571.47 569.00 573.98 568.92 576.46 571.04
  Q 582.04 575.80 587.10 581.11
  Q 587.84 581.88 587.80 583.00
  Q 587.69 586.00 587.62 589.00
  C 587.53 592.58 593.19 594.60 595.70 596.76
  C 599.04 599.63 602.03 602.47 605.96 604.55
  A 1.54 1.50 2.8 0 1 606.64 605.28
  C 607.99 608.31 607.63 612.18 607.73 615.38
  Q 607.78 626.17 607.63 636.75
  Q 607.55 642.43 608.96 647.92
  Q 609.34 649.40 609.70 649.77
  Q 618.32 658.57 626.22 668.05
  Q 628.82 671.17 628.89 675.76
  Q 629.23 697.75 628.93 712.00
  C 628.88 714.26 628.48 716.00 626.70 717.61
  Q 621.63 722.22 615.98 726.08
  C 613.14 728.01 611.08 730.36 608.81 732.73
  A 3.13 3.10 -22.4 0 0 607.95 734.77
  L 607.74 741.22
  A 2.44 2.43 -19.9 0 1 606.93 742.94
  C 600.87 748.33 585.54 756.08 585.53 765.24
  Q 585.51 775.62 585.52 786.00
  Q 585.52 789.08 584.18 790.18
  Q 577.36 795.78 571.20 802.11
  C 567.11 806.31 568.23 813.65 568.09 819.03
  A 0.98 0.98 0.0 0 1 567.05 819.98
  C 557.28 819.35 550.79 826.50 543.75 834.34
  Q 543.07 819.97 543.53 815.50
  Q 544.23 808.54 544.45 801.88
  Q 544.97 792.17 545.39 787.99
  C 545.66 785.36 551.96 778.80 554.73 778.49
  Q 559.76 777.93 564.97 777.40
  A 1.02 1.01 87.5 0 0 565.88 776.40
  L 566.05 754.55
  L 566.19 743.38
  A 4.10 4.08 66.8 0 1 567.27 740.66
  C 572.37 735.17 577.40 730.63 585.27 728.55
  A 1.04 1.03 -88.8 0 0 585.98 727.86
  Q 586.38 726.52 586.41 724.50
  Q 586.58 714.63 586.33 704.76
  C 586.28 702.49 586.36 700.00 587.99 698.08
  C 593.09 692.12 599.25 686.79 605.13 682.76
  C 608.26 680.62 607.48 673.81 607.25 670.50
  C 606.96 666.41 603.96 661.35 599.25 661.31
  Q 592.77 661.26 586.48 661.04
  A 0.82 0.82 0.0 0 1 585.69 660.23
  L 585.45 637.42
  Q 585.44 636.89 584.91 636.90
  L 569.05 637.17
  A 1.02 1.02 0.0 0 0 568.04 638.24
  Q 569.00 658.45 569.24 677.76
  Q 569.33 685.11 563.67 691.43
  Q 543.98 713.37 531.25 725.28
  Q 529.46 726.95 527.25 727.85
  C 523.85 729.24 519.81 728.08 516.36 730.32
  Q 513.46 732.19 509.29 737.04
  C 505.37 741.61 506.23 745.72 505.74 750.96
  Q 505.69 751.46 505.18 751.47
  C 498.80 751.63 492.06 751.09 485.76 752.06
  A 5.49 5.49 0.0 0 0 482.65 753.69
  C 472.89 763.95 463.75 774.52 454.59 785.32
  C 450.55 790.09 445.13 788.90 439.03 789.54
  Q 438.80 786.18 438.65 782.75
  C 438.39 776.91 439.92 774.35 444.00 770.50
  Q 451.46 763.46 458.77 756.27
  C 461.36 753.73 464.50 750.72 464.54 747.00
  Q 464.64 738.69 464.96 729.82
  Q 470.01 729.93 471.47 728.74
  C 477.93 723.43 483.41 717.20 489.17 711.17
  C 491.94 708.26 494.51 705.93 498.66 705.02
  C 507.07 703.18 513.60 693.82 519.42 688.00
  C 522.93 684.49 527.39 681.63 527.50 676.25
  Q 527.67 668.13 527.80 660.09
  A 0.55 0.55 0.0 0 1 528.34 659.55
  L 544.03 659.21
  A 0.81 0.81 0.0 0 0 544.82 658.40
  Q 544.78 639.88 545.28 622.25
  Q 545.40 618.12 545.89 614.02
  Q 545.95 613.48 546.50 613.46
  Q 554.87 613.24 559.25 606.91
  C 564.58 599.20 559.44 592.55 552.55 588.96
  Q 547.63 586.39 543.87 582.31
  Q 542.34 580.65 541.98 578.38
  C 540.82 570.97 541.50 562.31 541.48 554.75
  C 541.47 551.65 538.80 549.02 536.73 546.91
  A 3.23 3.22 -23.7 0 0 534.25 545.95
  L 522.54 546.60
  A 0.56 0.55 -1.0 0 1 521.95 546.04
  L 521.98 524.04
  A 0.69 0.69 0.0 0 0 521.29 523.35
  L 507.52 523.38
  Q 506.90 523.38 506.89 522.76
  L 506.49 499.97
  Q 506.49 499.45 505.97 499.47
  L 492.72 499.76
  A 0.55 0.54 88.9 0 1 492.17 499.22
  L 491.87 476.39
  A 0.60 0.60 0.0 0 0 491.27 475.80
  L 476.40 475.87
  Q 475.79 475.87 475.46 475.36
  C 470.63 467.72 466.45 463.39 466.49 453.58
  Q 466.55 441.04 466.65 428.63
  A 0.62 0.61 -0.5 0 0 466.02 428.02
  L 443.49 428.48
  Q 442.97 428.49 442.97 427.97
  L 442.69 378.33
  Q 448.52 378.12 461.24 378.46
  Q 462.28 378.49 462.55 377.90
  L 471.51 378.18
  A 1.30 1.29 0.9 0 1 472.77 379.47
  L 472.81 402.84
  A 1.15 1.14 89.3 0 0 473.97 403.98
  L 493.77 403.79
  A 1.17 1.17 0.0 0 1 494.95 404.96
  L 495.03 427.31
  A 0.78 0.77 0.0 0 0 495.81 428.08
  L 509.16 428.07
  Q 510.40 428.07 510.40 426.84
  L 510.56 404.67
  Q 510.56 404.03 511.20 404.03
  L 584.59 403.90
  A 0.66 0.66 0.0 0 0 585.25 403.24
  L 585.20 379.31
  Q 585.20 378.57 585.94 378.56
  L 612.18 378.34
  A 1.28 1.27 -90.0 0 0 613.44 377.07
  L 613.67 354.03
  A 0.50 0.50 0.0 0 1 614.16 353.53
  Q 624.09 353.39 634.25 353.02
  Q 634.94 352.99 635.49 352.36
  Z"
/>
<path fill="#ff5a0d" d="
  M 280.78 352.52
  Q 284.16 353.40 286.50 353.43
  Q 303.72 353.68 321.28 353.39
  A 1.06 1.06 0.0 0 1 322.36 354.45
  L 322.39 378.04
  Q 322.39 378.61 322.96 378.61
  L 358.73 378.47
  A 0.83 0.82 89.7 0 1 359.56 379.30
  L 359.65 404.80
  Q 357.39 408.99 353.02 413.02
  Q 348.07 417.59 343.20 422.26
  C 337.07 428.12 331.48 428.14 323.25 428.16
  Q 305.87 428.20 288.94 428.28
  Q 287.35 428.28 287.84 426.77
  C 288.98 423.25 292.56 421.23 295.33 419.14
  Q 296.71 418.10 299.48 415.12
  C 302.88 411.45 307.87 410.27 312.47 409.42
  A 1.17 1.16 -5.4 0 0 313.42 408.28
  L 313.56 379.42
  A 1.20 1.20 0.0 0 0 312.35 378.21
  L 252.89 378.46
  A 0.87 0.87 0.0 0 1 252.02 377.57
  Q 252.23 370.03 252.23 362.25
  C 252.23 357.32 256.34 353.69 261.25 353.95
  Q 272.37 354.54 280.00 353.74
  Q 281.16 353.61 280.78 352.52
  Z"
/>
<path fill="#ff5a0d" d="
  M 749.66 352.77
  Q 750.30 354.43 754.75 354.23
  Q 764.47 353.79 774.20 354.07
  C 781.27 354.27 783.42 358.02 787.77 362.38
  C 791.73 366.33 791.33 372.50 790.95 377.44
  A 1.18 1.17 -87.7 0 1 789.77 378.53
  L 711.16 378.11
  L 711.16 353.56
  L 716.23 353.45
  Q 736.45 353.96 748.75 353.50
  Q 749.47 353.47 749.66 352.77
  Z"
/>
<path fill="#ff5a0d" d="
  M 688.53 378.23
  C 688.52 382.15 691.67 384.27 693.94 386.95
  Q 695.77 389.10 697.63 390.63
  C 701.98 394.19 706.30 397.62 710.29 401.64
  Q 721.95 413.38 725.33 416.67
  C 728.97 420.23 734.65 419.42 739.31 419.64
  A 2.42 2.42 0.0 0 1 741.55 421.47
  Q 742.09 423.68 744.30 424.19
  A 1.43 1.43 0.0 0 1 745.39 425.74
  Q 745.15 427.82 743.26 427.91
  Q 725.88 428.70 708.50 427.96
  C 706.74 427.88 705.87 427.44 704.79 425.95
  Q 700.12 419.55 693.07 413.92
  C 690.34 411.74 688.00 408.75 686.50 405.29
  Q 685.72 403.46 683.47 403.45
  L 683.73 383.61
  A 0.88 0.87 -86.4 0 0 682.96 382.73
  Q 679.53 382.31 676.83 380.29
  Q 674.36 378.44 677.45 378.39
  L 688.53 378.23
  Z"
/>
<path fill="#e61737" d="
  M 658.73 451.09
  Q 662.88 455.58 667.22 460.18
  C 671.04 464.23 675.95 464.39 681.46 464.71
  C 684.47 464.88 685.39 465.92 687.29 467.97
  C 688.98 469.80 692.57 474.84 694.78 475.46
  Q 696.05 475.81 697.49 475.91
  L 734.57 476.09
  A 0.95 0.95 0.0 0 1 735.51 477.01
  L 736.14 500.47
  L 719.84 500.50
  Q 720.04 499.49 718.50 499.49
  Q 688.99 499.44 658.17 499.38
  A 1.42 1.42 0.0 0 1 656.75 497.93
  Q 656.97 487.65 656.44 476.88
  C 656.34 474.98 655.27 473.07 653.79 471.63
  C 647.86 465.87 640.87 460.41 635.65 454.06
  A 1.04 1.01 66.9 0 0 634.77 453.69
  Q 633.39 453.80 633.36 455.75
  Q 633.10 477.00 632.88 498.17
  A 0.81 0.80 -4.3 0 1 632.20 498.95
  Q 629.34 499.41 626.25 499.41
  Q 607.74 499.41 589.25 499.32
  A 1.12 1.12 0.0 0 1 588.13 498.17
  Q 588.45 486.23 587.79 474.24
  C 587.57 470.25 571.19 456.11 567.55 452.98
  A 1.37 1.37 0.0 0 0 565.28 454.01
  L 565.07 523.09
  L 542.59 523.30
  L 542.55 501.24
  A 0.73 0.73 0.0 0 0 541.83 500.51
  L 517.20 500.22
  A 0.90 0.89 0.7 0 1 516.32 499.33
  L 516.30 476.38
  A 0.57 0.56 0.0 0 1 516.87 475.82
  L 542.78 475.87
  A 1.15 1.15 0.0 0 0 543.93 474.72
  L 544.20 429.09
  A 0.73 0.72 -0.4 0 1 544.92 428.37
  L 605.00 428.01
  Q 605.81 428.00 605.83 427.19
  Q 606.07 417.37 605.95 408.25
  Q 605.93 406.71 606.61 405.36
  A 1.39 1.38 5.9 0 1 607.49 404.65
  Q 610.17 403.96 612.57 406.68
  C 621.21 416.47 628.40 424.90 639.46 434.53
  Q 648.95 442.79 658.73 451.09
  Z"
/>
<path fill="#ff5a0d" d="
  M 658.48 433.49
  Q 658.50 433.69 658.54 433.83
  Q 658.70 434.37 659.11 433.98
  L 659.34 433.76
  Q 659.62 433.49 660.01 433.48
  Q 666.00 433.27 671.48 435.02
  Q 676.46 444.51 678.84 447.42
  C 681.00 450.05 684.66 453.31 688.25 453.39
  Q 692.71 453.49 696.90 453.53
  Q 697.46 453.54 697.46 454.09
  L 697.49 475.91
  Q 696.05 475.81 694.78 475.46
  C 692.57 474.84 688.98 469.80 687.29 467.97
  C 685.39 465.92 684.47 464.88 681.46 464.71
  C 675.95 464.39 671.04 464.23 667.22 460.18
  Q 662.88 455.58 658.73 451.09
  Q 658.17 443.39 658.11 436.00
  Q 658.10 434.74 658.48 433.49
  Z"
/>
<path fill="#ff5a0d" d="
  M 398.32 452.01
  Q 390.19 458.37 383.32 465.45
  Q 381.31 467.53 379.87 470.55
  Q 378.28 473.89 376.94 476.17
  L 335.77 475.76
  C 334.85 471.11 338.88 469.78 341.80 467.42
  Q 349.62 461.12 356.34 453.71
  C 359.26 451.99 362.10 452.42 364.92 449.92
  Q 371.34 444.22 377.34 438.08
  Q 380.67 434.68 385.50 434.74
  Q 392.38 434.82 399.11 435.05
  A 0.80 0.80 0.0 0 1 399.89 435.82
  Q 400.31 444.72 398.32 452.01
  Z"
/>
<path fill="#e61737" d="
  M 376.94 476.17
  Q 373.52 478.94 371.44 480.67
  Q 361.54 488.90 358.31 492.81
  Q 356.41 495.11 355.28 497.63
  A 1.66 1.63 6.5 0 1 354.08 498.57
  Q 350.69 499.19 347.00 499.20
  Q 329.26 499.24 311.70 499.21
  A 0.72 0.72 0.0 0 1 310.98 498.49
  L 311.19 477.03
  A 0.79 0.79 0.0 0 1 311.97 476.25
  L 335.77 475.76
  L 376.94 476.17
  Z"
/>
<path fill="#ffffe6" d="
  M 243.81 500.28
  L 243.91 513.20
  A 0.83 0.83 0.0 0 1 243.07 514.04
  L 223.13 513.89
  L 222.76 500.35
  L 223.24 477.12
  A 0.75 0.74 0.4 0 1 223.99 476.39
  L 243.00 476.33
  A 0.74 0.74 0.0 0 1 243.74 477.06
  L 243.81 500.28
  Z"
/>
<rect fill="#e61737" x="-6.15" y="-8.20" transform="translate(768.90,490.58) rotate(-0.2)" width="12.30" height="16.40" rx="0.67"/>
<path fill="#ff5a0d" d="
  M 243.11 547.22
  L 243.42 525.44
  A 0.85 0.85 0.0 0 0 242.55 524.57
  L 223.12 524.93
  Q 223.90 519.58 223.13 513.89
  L 243.07 514.04
  A 0.83 0.83 0.0 0 0 243.91 513.20
  L 243.81 500.28
  L 265.30 500.08
  A 0.44 0.44 0.0 0 1 265.74 500.52
  L 265.67 546.03
  Q 265.67 547.21 264.49 547.22
  L 243.11 547.22
  Z"
/>
<path fill="#ffc300" d="
  M 222.76 500.35
  L 223.13 513.89
  Q 223.90 519.58 223.12 524.93
  Q 222.21 528.00 220.47 530.59
  C 218.60 533.37 219.80 544.64 220.13 547.40
  L 200.61 547.48
  A 0.32 0.31 0.0 0 1 200.29 547.17
  L 200.27 501.00
  A 0.63 0.62 -0.4 0 1 200.90 500.37
  L 222.76 500.35
  Z"
/>
<path fill="#ffffe6" d="
  M 822.21 523.59
  L 821.86 537.61
  A 1.15 1.15 0.0 0 1 820.69 538.73
  L 806.37 538.51
  L 800.52 538.66
  A 1.23 1.23 0.0 0 1 799.25 537.45
  L 799.06 523.73
  Q 799.96 523.70 800.63 523.04
  Q 800.96 522.71 800.96 522.24
  L 800.97 501.00
  A 0.78 0.78 0.0 0 1 801.75 500.22
  L 821.74 500.24
  Q 822.54 500.24 822.53 501.04
  L 822.21 523.59
  Z"
/>
<path fill="#e61737" d="
  M 654.04 501.94
  L 653.77 521.78
  A 1.14 1.14 0.0 0 1 652.64 522.90
  L 635.65 523.07
  A 1.14 1.14 0.0 0 1 634.50 521.93
  L 634.50 501.84
  A 1.14 1.14 0.0 0 1 635.65 500.70
  L 652.91 500.78
  A 1.14 1.14 0.0 0 1 654.04 501.94
  Z"
/>
<path fill="#ffffe6" d="
  M 719.84 500.50
  L 736.14 500.47
  L 736.37 523.66
  L 736.47 539.07
  A 0.67 0.67 0.0 0 1 735.78 539.75
  Q 730.99 539.62 726.00 539.72
  C 722.60 539.79 718.69 544.83 717.69 547.14
  Q 717.65 547.94 717.41 548.38
  Q 717.18 548.81 716.40 548.79
  Q 707.67 548.61 698.70 549.20
  L 698.58 525.64
  Q 698.57 523.98 700.23 523.98
  L 719.26 524.00
  A 0.55 0.54 90.0 0 0 719.80 523.45
  L 719.84 500.50
  Z"
/>
<path fill="#ff5a0d" d="
  M 653.31 616.50
  L 652.39 618.21
  Q 650.46 616.65 647.25 616.75
  Q 640.21 616.98 630.82 616.03
  Q 620.96 614.61 610.54 615.87
  A 1.51 1.51 0.0 0 1 609.54 615.65
  Q 608.14 614.81 607.73 615.38
  C 607.63 612.18 607.99 608.31 606.64 605.28
  A 1.54 1.50 2.8 0 0 605.96 604.55
  C 602.03 602.47 599.04 599.63 595.70 596.76
  C 593.19 594.60 587.53 592.58 587.62 589.00
  Q 587.69 586.00 587.80 583.00
  Q 587.84 581.88 587.10 581.11
  Q 582.04 575.80 576.46 571.04
  C 573.98 568.92 571.47 569.00 568.44 568.65
  Q 567.89 568.59 567.85 568.04
  C 567.63 565.15 567.51 559.49 565.29 557.48
  Q 554.68 547.87 543.80 537.60
  Q 542.99 536.84 542.96 535.73
  L 542.59 523.30
  L 565.07 523.09
  L 588.39 522.98
  Q 588.88 522.97 588.89 523.46
  L 589.24 546.04
  A 0.55 0.55 0.0 0 0 589.79 546.58
  L 659.54 546.48
  A 0.54 0.54 0.0 0 1 660.08 547.03
  L 659.70 569.00
  A 0.52 0.51 -0.0 0 1 659.19 569.50
  Q 636.75 569.74 614.25 569.75
  Q 612.57 569.75 611.51 570.07
  A 1.53 1.53 0.0 0 0 610.84 572.60
  Q 617.17 579.19 624.28 585.08
  C 627.29 587.57 631.16 586.79 633.59 589.41
  C 635.71 591.69 639.08 593.22 641.71 594.91
  C 644.75 596.88 648.16 599.93 652.46 601.38
  A 1.14 1.13 9.1 0 1 653.23 602.44
  L 653.31 616.50
  Z"
/>
<path fill="#ff5a0d" d="
  M 736.37 523.66
  L 754.01 523.72
  Q 754.81 523.73 754.82 524.52
  L 755.17 569.21
  A 2.16 2.16 0.0 0 1 753.05 571.39
  L 717.70 571.99
  L 717.69 547.14
  C 718.69 544.83 722.60 539.79 726.00 539.72
  Q 730.99 539.62 735.78 539.75
  A 0.67 0.67 0.0 0 0 736.47 539.07
  L 736.37 523.66
  Z"
/>
<path fill="#ff5a0d" d="
  M 822.21 523.59
  L 847.10 523.51
  Q 847.67 523.51 847.68 524.09
  L 847.82 547.29
  L 808.81 547.98
  Q 808.61 545.43 808.21 542.95
  C 807.93 541.28 807.04 540.09 806.37 538.51
  L 820.69 538.73
  A 1.15 1.15 0.0 0 0 821.86 537.61
  L 822.21 523.59
  Z"
/>
<path fill="#ffc300" d="
  M 799.06 523.73
  L 799.25 537.45
  A 1.23 1.23 0.0 0 0 800.52 538.66
  L 806.37 538.51
  C 807.04 540.09 807.93 541.28 808.21 542.95
  Q 808.61 545.43 808.81 547.98
  C 805.00 549.65 802.62 554.20 799.99 557.02
  A 4.40 4.38 66.7 0 0 798.82 559.98
  L 798.72 571.47
  L 785.40 571.52
  A 0.27 0.27 0.0 0 1 785.13 571.25
  L 785.31 524.07
  A 0.31 0.30 90.0 0 1 785.61 523.76
  L 799.06 523.73
  Z"
/>
<path fill="#e61737" d="
  M 243.11 547.22
  L 220.13 547.40
  C 219.80 544.64 218.60 533.37 220.47 530.59
  Q 222.21 528.00 223.12 524.93
  L 242.55 524.57
  A 0.85 0.85 0.0 0 1 243.42 525.44
  L 243.11 547.22
  Z"
/>
<rect fill="#710a2f" x="-5.37" y="-7.53" transform="translate(431.10,533.17) rotate(0.8)" width="10.74" height="15.06" rx="1.51"/>
<path fill="#710a2f" d="
  M 355.18 541.75
  L 355.77 530.37
  A 1.05 1.05 0.0 0 1 356.80 529.38
  L 366.95 529.25
  A 1.05 1.05 0.0 0 1 368.01 530.29
  L 368.10 541.71
  A 1.05 1.05 0.0 0 1 367.06 542.77
  L 356.23 542.85
  A 1.05 1.05 0.0 0 1 355.18 541.75
  Z"
/>
<rect fill="#ffc300" x="-11.02" y="-11.87" transform="translate(321.52,558.64) rotate(-0.1)" width="22.04" height="23.74" rx="0.67"/>
<path fill="#ffc300" d="
  M 717.69 547.14
  L 717.70 571.99
  L 699.19 572.49
  A 0.74 0.73 89.6 0 1 698.44 571.74
  L 698.70 549.20
  Q 707.67 548.61 716.40 548.79
  Q 717.18 548.81 717.41 548.38
  Q 717.65 547.94 717.69 547.14
  Z"
/>
<path fill="#e61737" d="
  M 847.82 547.29
  L 847.68 569.62
  A 1.13 1.13 0.0 0 1 846.57 570.75
  L 798.72 571.47
  L 798.82 559.98
  A 4.40 4.38 66.7 0 1 799.99 557.02
  C 802.62 554.20 805.00 549.65 808.81 547.98
  L 847.82 547.29
  Z"
/>
<path fill="#ffffe6" d="
  M 380.02 589.78
  L 357.31 590.06
  L 357.08 570.42
  Q 357.07 569.88 357.61 569.87
  L 379.51 569.30
  A 0.53 0.52 -0.5 0 1 380.06 569.83
  L 380.02 589.78
  Z"
/>
<path fill="#ffffe6" d="
  M 268.47 619.50
  L 268.09 630.23
  A 0.91 0.91 0.0 0 1 267.18 631.11
  L 244.74 631.02
  A 0.24 0.24 0.0 0 0 244.50 631.26
  L 244.41 650.65
  A 1.18 1.17 89.5 0 1 243.27 651.82
  L 227.99 652.23
  Q 227.07 652.52 225.95 652.37
  Q 225.44 652.30 225.44 651.79
  L 225.07 618.36
  A 0.32 0.32 0.0 0 1 225.39 618.04
  L 242.42 618.15
  Q 243.47 618.15 243.44 617.10
  Q 242.84 593.94 243.97 570.80
  Q 244.00 570.13 244.67 570.14
  L 268.82 570.31
  Q 269.19 570.31 269.18 570.68
  Q 268.06 594.99 268.47 619.50
  Z"
/>
<rect fill="#710a2f" x="-6.27" y="-9.96" transform="translate(277.87,580.47) rotate(0.6)" width="12.54" height="19.92" rx="1.21"/>
<rect fill="#710a2f" x="-6.63" y="-7.48" transform="translate(681.09,584.62) rotate(0.4)" width="13.26" height="14.96" rx="0.91"/>
<path fill="#ffc300" d="
  M 428.90 579.87
  L 428.84 579.16
  Q 428.80 578.62 429.33 578.61
  L 437.86 578.31
  Q 438.95 578.27 438.95 579.36
  L 438.96 607.05
  A 1.11 1.11 0.0 0 1 437.88 608.16
  L 424.51 608.52
  A 0.66 0.66 0.0 0 1 423.83 607.86
  L 423.92 585.31
  A 2.48 2.44 -20.7 0 1 424.78 583.45
  Q 426.16 582.26 427.86 581.56
  A 1.70 1.70 0.0 0 0 428.90 579.87
  Z"
/>
<path fill="#ffc300" d="
  M 380.02 589.78
  L 379.72 613.80
  Q 371.23 621.01 363.25 627.90
  C 360.57 630.22 359.16 632.09 359.18 635.50
  Q 359.21 641.50 359.49 648.46
  Q 359.55 649.89 358.12 649.88
  L 335.33 649.72
  L 335.58 615.65
  Q 335.58 615.09 336.15 615.11
  Q 341.53 615.24 346.65 611.16
  C 351.01 607.68 358.10 601.24 358.03 595.25
  Q 358.01 593.54 357.31 590.06
  L 380.02 589.78
  Z"
/>
<rect fill="#e61737" x="-9.21" y="-11.10" transform="translate(724.58,606.60) rotate(-0.1)" width="18.42" height="22.20" rx="1.02"/>
<rect fill="#ffc300" x="-11.01" y="-11.38" transform="translate(789.27,607.12) rotate(-0.2)" width="22.02" height="22.76" rx="0.83"/>
<path fill="#ff5a0d" d="
  M 505.77 612.69
  Q 506.47 625.02 505.57 635.72
  Q 500.42 635.47 495.01 635.67
  Q 490.20 635.86 485.36 635.84
  Q 483.89 635.83 483.93 637.91
  Q 483.36 636.59 481.00 636.59
  Q 470.01 636.61 458.31 636.74
  Q 457.06 636.76 457.06 635.51
  L 457.05 614.74
  Q 457.05 613.09 458.70 613.08
  L 505.77 612.69
  Z"
/>
<path fill="#e61737" d="
  M 379.72 613.80
  L 379.83 656.62
  A 0.83 0.83 0.0 0 1 379.00 657.45
  L 336.21 657.51
  A 0.90 0.89 0.3 0 1 335.31 656.61
  L 335.33 649.72
  L 358.12 649.88
  Q 359.55 649.89 359.49 648.46
  Q 359.21 641.50 359.18 635.50
  C 359.16 632.09 360.57 630.22 363.25 627.90
  Q 371.23 621.01 379.72 613.80
  Z"
/>
<path fill="#e61737" d="
  M 630.82 616.03
  L 630.95 635.25
  Q 630.96 636.50 632.21 636.67
  C 634.41 636.96 637.18 636.90 639.06 638.69
  Q 643.77 643.17 648.49 647.65
  C 652.37 651.32 652.62 655.65 652.95 660.48
  A 0.97 0.96 85.6 0 0 653.99 661.38
  Q 665.13 660.51 673.51 663.81
  Q 676.91 668.79 681.01 672.01
  C 681.85 672.68 682.75 674.09 682.75 675.00
  C 682.80 684.18 682.00 690.60 687.36 696.66
  Q 687.67 697.01 688.13 697.01
  L 698.12 697.08
  L 698.14 775.85
  Q 698.14 776.27 697.73 776.26
  L 678.04 776.21
  A 0.58 0.58 0.0 0 1 677.46 775.63
  Q 677.49 753.16 677.24 730.50
  C 677.20 727.33 676.95 723.84 674.46 721.53
  Q 664.98 712.77 653.94 706.08
  Q 652.92 705.47 651.74 705.28
  A 1.41 1.40 -82.6 0 0 650.13 706.53
  Q 649.90 708.94 649.90 711.25
  Q 649.92 731.81 649.90 752.37
  Q 649.90 758.70 649.82 759.14
  C 649.17 762.68 647.29 763.98 644.18 766.75
  C 638.97 771.40 633.02 776.49 626.00 776.44
  Q 616.49 776.36 606.97 776.50
  Q 606.42 776.50 606.41 777.06
  L 605.89 826.67
  A 0.83 0.83 0.0 0 1 605.08 827.49
  L 586.66 827.87
  A 0.97 0.97 0.0 0 0 585.71 828.84
  L 585.80 857.03
  A 0.90 0.89 -90.0 0 1 584.91 857.93
  L 544.53 858.00
  A 0.99 0.99 0.0 0 0 543.54 858.97
  L 543.24 878.45
  A 0.94 0.94 0.0 0 1 542.30 879.37
  L 502.04 879.52
  A 0.96 0.95 0.3 0 0 501.08 880.46
  L 500.88 902.55
  A 0.93 0.92 -89.7 0 1 499.96 903.47
  L 485.79 903.59
  A 0.55 0.55 0.0 0 1 485.23 903.04
  L 485.27 858.49
  A 1.41 1.40 -90.0 0 1 486.66 857.09
  C 491.80 857.04 499.91 858.03 504.07 854.81
  Q 512.88 848.00 520.87 839.74
  Q 521.56 842.72 527.25 842.63
  Q 533.59 842.53 539.97 842.22
  A 1.64 1.62 7.6 0 0 541.43 841.12
  L 543.75 834.34
  C 550.79 826.50 557.28 819.35 567.05 819.98
  A 0.98 0.98 0.0 0 0 568.09 819.03
  C 568.23 813.65 567.11 806.31 571.20 802.11
  Q 577.36 795.78 584.18 790.18
  Q 585.52 789.08 585.52 786.00
  Q 585.51 775.62 585.53 765.24
  C 585.54 756.08 600.87 748.33 606.93 742.94
  A 2.44 2.43 -19.9 0 0 607.74 741.22
  L 607.95 734.77
  A 3.13 3.10 -22.4 0 1 608.81 732.73
  C 611.08 730.36 613.14 728.01 615.98 726.08
  Q 621.63 722.22 626.70 717.61
  C 628.48 716.00 628.88 714.26 628.93 712.00
  Q 629.23 697.75 628.89 675.76
  Q 628.82 671.17 626.22 668.05
  Q 618.32 658.57 609.70 649.77
  Q 609.34 649.40 608.96 647.92
  Q 607.55 642.43 607.63 636.75
  Q 607.78 626.17 607.73 615.38
  Q 608.14 614.81 609.54 615.65
  A 1.51 1.51 0.0 0 0 610.54 615.87
  Q 620.96 614.61 630.82 616.03
  Z"
/>
<path fill="#e61737" d="
  M 653.31 616.50
  L 676.73 617.34
  A 0.61 0.61 0.0 0 1 677.32 617.93
  C 677.53 624.12 677.78 630.81 676.90 636.99
  Q 676.57 639.30 676.37 641.48
  Q 673.11 641.75 669.95 638.79
  Q 663.00 632.28 654.08 622.42
  Q 653.10 621.34 652.39 618.21
  L 653.31 616.50
  Z"
/>
<path fill="#ffc300" d="
  M 630.82 616.03
  Q 640.21 616.98 647.25 616.75
  Q 650.46 616.65 652.39 618.21
  Q 653.10 621.34 654.08 622.42
  Q 663.00 632.28 669.95 638.79
  Q 673.11 641.75 676.37 641.48
  L 681.39 642.12
  L 681.48 662.86
  A 1.20 1.19 84.9 0 1 680.49 664.05
  Q 676.92 664.67 673.51 663.81
  Q 665.13 660.51 653.99 661.38
  A 0.97 0.96 85.6 0 1 652.95 660.48
  C 652.62 655.65 652.37 651.32 648.49 647.65
  Q 643.77 643.17 639.06 638.69
  C 637.18 636.90 634.41 636.96 632.21 636.67
  Q 630.96 636.50 630.95 635.25
  L 630.82 616.03
  Z"
/>
<path fill="#ff5a0d" d="
  M 268.47 619.50
  Q 275.89 620.74 283.74 619.95
  A 1.08 1.08 0.0 0 1 284.93 621.03
  L 284.90 640.15
  A 1.17 1.17 0.0 0 1 283.73 641.32
  L 269.35 641.41
  A 0.75 0.75 0.0 0 0 268.61 642.15
  L 268.11 665.02
  A 1.10 1.10 0.0 0 1 266.99 666.10
  L 245.04 665.79
  A 0.72 0.71 64.9 0 1 244.58 665.62
  Q 239.69 661.46 235.12 657.15
  Q 233.04 655.18 232.36 653.46
  Q 232.19 653.04 231.74 652.95
  L 227.99 652.23
  L 243.27 651.82
  A 1.18 1.17 89.5 0 0 244.41 650.65
  L 244.50 631.26
  A 0.24 0.24 0.0 0 1 244.74 631.02
  L 267.18 631.11
  A 0.91 0.91 0.0 0 0 268.09 630.23
  L 268.47 619.50
  Z"
/>
<path fill="#ffc300" d="
  M 505.57 635.72
  C 505.46 643.60 506.00 651.01 504.84 658.39
  Q 504.76 658.89 504.30 659.09
  Q 500.98 660.51 500.23 661.20
  C 492.19 668.53 484.27 675.14 483.58 683.25
  A 1.14 1.13 89.4 0 1 482.57 684.29
  C 479.70 684.61 475.50 684.36 473.07 686.13
  Q 468.04 689.78 463.93 694.43
  C 461.49 697.20 461.29 700.76 461.17 704.03
  A 1.54 1.54 0.0 0 1 459.63 705.52
  Q 420.39 705.47 382.00 705.58
  C 378.81 705.59 373.20 705.34 370.55 707.28
  C 363.97 712.12 357.38 718.64 357.79 727.47
  A 0.76 0.76 0.0 0 1 357.09 728.26
  C 352.08 728.65 346.44 728.34 341.61 729.64
  Q 340.63 728.58 339.60 727.47
  Q 338.59 726.39 337.97 725.05
  Q 336.66 722.21 335.38 719.38
  Q 334.37 717.16 335.32 715.11
  L 336.89 706.27
  A 1.05 1.03 82.5 0 1 337.48 705.49
  Q 340.09 704.29 340.93 703.42
  Q 351.22 692.81 363.88 685.24
  C 367.43 683.11 370.77 682.94 374.75 682.91
  Q 390.73 682.77 406.35 682.91
  Q 424.58 683.39 442.50 683.69
  C 448.27 683.78 453.46 677.68 457.08 673.10
  C 460.00 669.39 459.67 663.73 459.46 659.25
  L 472.99 658.79
  Q 474.47 658.74 475.34 657.55
  C 478.05 653.88 482.87 648.67 483.70 644.15
  Q 484.25 641.12 483.93 637.91
  Q 483.89 635.83 485.36 635.84
  Q 490.20 635.86 495.01 635.67
  Q 500.42 635.47 505.57 635.72
  Z"
/>
<path fill="#e61737" d="
  M 566.05 754.55
  Q 562.94 754.73 559.87 754.87
  Q 556.66 755.02 554.36 756.22
  C 550.27 758.34 544.64 762.63 544.30 767.50
  Q 544.00 771.65 543.95 774.73
  Q 543.93 776.39 542.26 776.41
  L 504.84 776.74
  A 0.66 0.66 0.0 0 0 504.19 777.41
  L 504.31 797.46
  A 1.03 1.02 -0.6 0 1 503.29 798.49
  L 480.78 798.65
  A 0.58 0.57 -90.0 0 0 480.22 799.22
  L 479.87 826.47
  Q 479.86 827.42 478.91 827.44
  C 466.21 827.72 453.46 827.40 440.83 828.33
  A 1.97 1.96 89.7 0 0 439.01 830.18
  L 438.85 832.90
  A 1.29 1.28 0.2 0 1 437.62 834.11
  L 420.82 834.78
  A 0.52 0.52 0.0 0 0 420.32 835.29
  L 419.98 856.87
  Q 419.97 857.71 419.13 857.71
  L 380.81 857.90
  A 0.41 0.41 0.0 0 0 380.41 858.31
  L 380.64 905.02
  A 0.63 0.63 0.0 0 0 381.27 905.65
  L 403.88 905.70
  A 0.47 0.47 0.0 0 1 404.35 906.17
  L 404.30 925.96
  A 1.27 1.26 -0.2 0 1 403.04 927.22
  L 358.33 927.41
  A 0.87 0.87 0.0 0 1 357.45 926.52
  C 357.69 914.04 358.00 901.38 357.28 888.82
  A 1.15 1.14 19.8 0 0 356.92 888.06
  L 349.83 881.47
  C 352.27 881.10 358.22 881.83 358.34 878.51
  Q 358.66 869.94 358.62 857.00
  Q 358.61 853.88 359.68 852.97
  C 363.06 850.10 365.91 847.42 369.70 844.28
  C 374.02 840.70 377.99 837.08 380.51 831.91
  Q 383.07 826.66 387.56 822.85
  C 390.67 820.22 394.12 820.18 398.00 820.20
  Q 409.00 820.24 419.76 820.26
  A 0.59 0.59 0.0 0 0 420.35 819.66
  C 420.28 816.53 419.49 808.26 421.70 805.99
  Q 424.70 802.92 427.60 799.75
  C 429.64 797.52 432.44 795.61 434.62 793.14
  C 436.02 791.54 437.41 790.65 439.03 789.54
  C 445.13 788.90 450.55 790.09 454.59 785.32
  C 463.75 774.52 472.89 763.95 482.65 753.69
  A 5.49 5.49 0.0 0 1 485.76 752.06
  C 492.06 751.09 498.80 751.63 505.18 751.47
  Q 505.69 751.46 505.74 750.96
  C 506.23 745.72 505.37 741.61 509.29 737.04
  Q 513.46 732.19 516.36 730.32
  C 519.81 728.08 523.85 729.24 527.25 727.85
  Q 529.46 726.95 531.25 725.28
  Q 543.98 713.37 563.67 691.43
  Q 569.33 685.11 569.24 677.76
  Q 569.00 658.45 568.04 638.24
  A 1.02 1.02 0.0 0 1 569.05 637.17
  L 584.91 636.90
  Q 585.44 636.89 585.45 637.42
  L 585.69 660.23
  A 0.82 0.82 0.0 0 0 586.48 661.04
  Q 592.77 661.26 599.25 661.31
  C 603.96 661.35 606.96 666.41 607.25 670.50
  C 607.48 673.81 608.26 680.62 605.13 682.76
  C 599.25 686.79 593.09 692.12 587.99 698.08
  C 586.36 700.00 586.28 702.49 586.33 704.76
  Q 586.58 714.63 586.41 724.50
  Q 586.38 726.52 585.98 727.86
  A 1.04 1.03 -88.8 0 1 585.27 728.55
  C 577.40 730.63 572.37 735.17 567.27 740.66
  A 4.10 4.08 66.8 0 0 566.19 743.38
  L 566.05 754.55
  Z"
/>
<path fill="#ffffe6" d="
  M 776.10 650.08
  L 775.52 684.02
  A 1.20 1.20 0.0 0 1 774.32 685.20
  L 753.31 685.26
  Q 754.31 679.25 753.72 672.84
  L 753.80 639.23
  Q 753.80 638.75 754.28 638.75
  L 767.12 638.74
  A 2.77 2.76 -16.7 0 1 769.43 639.98
  L 776.10 650.08
  Z"
/>
<path fill="#ff5a0d" d="
  M 681.39 642.12
  Q 684.58 641.52 688.12 642.57
  Q 688.65 642.73 688.89 643.23
  Q 691.47 648.66 697.45 649.76
  Q 698.02 649.87 698.02 650.45
  L 698.12 697.08
  L 688.13 697.01
  Q 687.67 697.01 687.36 696.66
  C 682.00 690.60 682.80 684.18 682.75 675.00
  C 682.75 674.09 681.85 672.68 681.01 672.01
  Q 676.91 668.79 673.51 663.81
  Q 676.92 664.67 680.49 664.05
  A 1.20 1.19 84.9 0 0 681.48 662.86
  L 681.39 642.12
  Z"
/>
<path fill="#e61737" d="
  M 290.54 658.21
  L 291.03 642.95
  A 0.71 0.71 0.0 0 1 291.77 642.27
  L 301.54 642.77
  A 0.71 0.71 0.0 0 1 302.22 643.47
  L 302.33 657.44
  A 0.71 0.71 0.0 0 1 301.68 658.15
  L 291.31 658.94
  A 0.71 0.71 0.0 0 1 290.54 658.21
  Z"
/>
<path fill="#ff5a0d" d="
  M 776.10 650.08
  Q 779.47 652.03 779.95 654.54
  Q 780.72 658.58 781.57 659.43
  Q 786.16 663.97 793.50 670.01
  Q 795.12 671.33 795.22 673.75
  Q 795.70 684.74 795.12 695.87
  A 0.35 0.34 0.9 0 1 794.78 696.19
  L 775.25 696.44
  A 0.80 0.79 -1.1 0 0 774.46 697.25
  L 774.71 713.07
  A 1.03 1.03 0.0 0 1 773.69 714.11
  L 754.06 714.35
  A 0.68 0.68 0.0 0 1 753.37 713.68
  L 753.19 696.65
  L 753.31 685.26
  L 774.32 685.20
  A 1.20 1.20 0.0 0 0 775.52 684.02
  L 776.10 650.08
  Z"
/>
<path fill="#ff5a0d" d="
  M 459.46 659.25
  C 459.67 663.73 460.00 669.39 457.08 673.10
  C 453.46 677.68 448.27 683.78 442.50 683.69
  Q 424.58 683.39 406.35 682.91
  L 406.33 660.16
  A 0.89 0.88 -0.3 0 1 407.21 659.28
  L 459.46 659.25
  Z"
/>
<path fill="#ffc300" d="
  M 753.72 672.84
  Q 754.31 679.25 753.31 685.26
  L 753.19 696.65
  L 736.21 696.45
  A 0.97 0.96 -89.7 0 1 735.26 695.48
  L 735.32 673.04
  A 0.23 0.23 0.0 0 1 735.55 672.81
  L 753.72 672.84
  Z"
/>
<path fill="#ffc300" d="
  M 286.71 705.10
  L 269.57 705.53
  L 269.90 684.13
  A 0.61 0.60 0.5 0 1 270.51 683.54
  L 286.01 683.61
  Q 286.52 683.61 286.52 684.11
  L 286.71 705.10
  Z"
/>
<path fill="#e61737" d="
  M 286.71 705.10
  L 286.66 726.27
  A 1.24 1.24 0.0 0 1 285.45 727.51
  L 270.03 727.85
  A 0.68 0.68 0.0 0 1 269.33 727.16
  L 269.57 705.53
  L 286.71 705.10
  Z"
/>
<path fill="#ff5a0d" d="
  M 335.32 715.11
  Q 334.37 717.16 335.38 719.38
  Q 336.66 722.21 337.97 725.05
  Q 338.59 726.39 339.60 727.47
  Q 340.63 728.58 341.61 729.64
  L 337.24 734.09
  A 3.18 3.18 0.0 0 0 336.32 736.35
  L 336.37 765.21
  L 336.28 775.55
  A 0.80 0.80 0.0 0 1 335.49 776.34
  L 320.63 776.61
  A 0.45 0.45 0.0 0 1 320.17 776.17
  Q 319.89 753.45 319.85 730.50
  Q 319.85 727.30 321.33 725.60
  Q 324.29 722.20 335.32 715.11
  Z"
/>
<path fill="#ff5a0d" d="
  M 464.96 729.82
  Q 464.64 738.69 464.54 747.00
  C 464.50 750.72 461.36 753.73 458.77 756.27
  Q 451.46 763.46 444.00 770.50
  C 439.92 774.35 438.39 776.91 438.65 782.75
  Q 438.80 786.18 439.03 789.54
  C 437.41 790.65 436.02 791.54 434.62 793.14
  C 432.44 795.61 429.64 797.52 427.60 799.75
  Q 424.70 802.92 421.70 805.99
  C 419.49 808.26 420.28 816.53 420.35 819.66
  A 0.59 0.59 0.0 0 1 419.76 820.26
  Q 409.00 820.24 398.00 820.20
  C 394.12 820.18 390.67 820.22 387.56 822.85
  Q 383.07 826.66 380.51 831.91
  C 377.99 837.08 374.02 840.70 369.70 844.28
  C 365.91 847.42 363.06 850.10 359.68 852.97
  Q 358.61 853.88 358.62 857.00
  Q 358.66 869.94 358.34 878.51
  C 358.22 881.83 352.27 881.10 349.83 881.47
  Q 347.93 880.48 346.73 878.44
  A 0.72 0.71 -11.7 0 0 346.19 878.09
  L 341.38 877.65
  A 0.84 0.83 -87.7 0 1 340.63 876.83
  Q 340.50 859.32 340.18 842.25
  Q 340.11 838.26 339.80 835.34
  A 4.01 3.99 -23.6 0 1 341.16 831.90
  C 345.42 828.18 349.04 824.69 353.80 821.93
  Q 354.24 821.67 354.25 821.15
  C 354.31 817.13 353.86 813.61 356.78 810.41
  Q 359.82 807.06 363.44 804.34
  Q 365.53 802.77 368.15 802.39
  Q 371.89 801.85 375.65 801.87
  A 0.97 0.97 0.0 0 0 376.62 800.91
  Q 376.69 792.38 376.66 784.25
  C 376.65 782.22 377.20 781.08 378.75 779.65
  C 387.08 771.98 394.95 763.88 403.11 756.03
  C 405.04 754.18 407.00 754.04 409.50 754.05
  Q 417.03 754.10 424.46 754.16
  A 0.63 0.63 0.0 0 0 425.09 753.52
  L 424.70 729.88
  L 464.96 729.82
  Z"
/>
<path fill="#ffffe6" d="
  M 775.04 799.28
  L 775.10 819.75
  L 754.10 819.66
  Q 753.90 819.66 753.71 819.57
  Q 753.58 819.52 753.34 819.48
  L 752.76 799.27
  L 752.76 748.91
  A 0.80 0.79 90.0 0 1 753.55 748.11
  L 772.96 748.08
  A 2.12 2.11 89.9 0 1 775.08 750.20
  L 775.04 799.28
  Z"
/>
<path fill="#ffffe6" d="
  M 265.08 796.78
  Q 265.25 797.62 265.07 798.16
  Q 264.90 798.68 264.36 798.69
  L 244.69 798.97
  Q 244.54 798.92 244.35 798.51
  Q 244.25 798.27 244.25 797.97
  Q 244.31 784.96 243.98 777.75
  Q 243.92 776.34 242.56 775.52
  L 242.54 750.74
  A 0.83 0.83 0.0 0 1 243.41 749.91
  L 264.35 750.88
  A 0.85 0.84 1.8 0 1 265.16 751.73
  L 265.08 796.78
  Z"
/>
<path fill="#ff5a0d" d="
  M 242.56 775.52
  Q 243.92 776.34 243.98 777.75
  Q 244.31 784.96 244.25 797.97
  Q 244.25 798.27 244.35 798.51
  Q 244.54 798.92 244.69 798.97
  Q 244.68 799.06 244.65 799.12
  Q 244.55 799.33 244.55 799.41
  L 244.16 819.59
  C 241.02 819.53 237.78 819.51 237.38 823.12
  Q 236.75 828.81 237.57 834.57
  L 224.60 835.21
  Q 224.13 835.23 224.13 834.77
  L 224.13 776.49
  A 0.48 0.48 0.0 0 1 224.63 776.01
  Q 232.88 776.41 241.25 776.29
  Q 242.61 776.27 242.56 775.52
  Z"
/>
<rect fill="#ffc300" x="-9.33" y="-16.57" transform="translate(665.88,811.90) rotate(-0.2)" width="18.66" height="33.14" rx="0.67"/>
<path fill="#ffc300" d="
  M 265.08 796.78
  Q 264.97 798.66 265.96 799.12
  L 265.92 819.20
  A 0.43 0.43 0.0 0 1 265.49 819.63
  L 244.16 819.59
  L 244.55 799.41
  Q 244.55 799.33 244.65 799.12
  Q 244.68 799.06 244.69 798.97
  L 264.36 798.69
  Q 264.90 798.68 265.07 798.16
  Q 265.25 797.62 265.08 796.78
  Z"
/>
<path fill="#e61737" d="
  M 265.96 799.12
  L 283.18 799.17
  A 0.79 0.78 0.4 0 1 283.97 799.96
  L 283.84 834.37
  A 0.46 0.46 0.0 0 1 283.38 834.83
  L 266.26 834.60
  A 0.79 0.78 -89.6 0 0 265.47 835.39
  L 265.47 857.54
  A 1.03 1.02 -0.6 0 1 264.46 858.56
  L 244.74 858.96
  Q 243.50 858.98 243.50 857.74
  L 243.58 835.49
  A 1.12 1.12 0.0 0 0 242.41 834.37
  L 237.57 834.57
  Q 236.75 828.81 237.38 823.12
  C 237.78 819.51 241.02 819.53 244.16 819.59
  L 265.49 819.63
  A 0.43 0.43 0.0 0 0 265.92 819.20
  L 265.96 799.12
  Z"
/>
<path fill="#e61737" d="
  M 752.70 844.76
  Q 757.78 839.75 764.76 836.89
  C 768.04 835.54 770.49 834.02 773.38 832.36
  A 2.65 2.63 76.5 0 0 774.71 830.17
  L 775.10 819.75
  L 775.04 799.28
  L 795.39 799.22
  Q 795.88 799.21 795.88 799.70
  L 796.09 857.59
  A 0.69 0.69 0.0 0 1 795.41 858.28
  L 754.49 858.80
  A 1.20 1.20 0.0 0 1 753.28 857.65
  L 752.70 844.76
  Z"
/>
<path fill="#ffc300" d="
  M 752.76 799.27
  L 753.34 819.48
  L 753.07 819.63
  Q 752.67 819.85 752.69 820.30
  C 752.92 827.88 752.41 835.46 753.11 843.01
  Q 753.22 844.24 752.01 844.73
  C 749.44 844.66 743.44 838.34 741.90 836.60
  Q 741.40 836.04 739.49 835.90
  Q 736.67 835.69 734.60 835.31
  Q 733.44 835.09 733.44 833.90
  L 733.40 799.82
  Q 733.40 799.26 733.96 799.27
  L 752.76 799.27
  Z"
/>
<path fill="#ff5a0d" d="
  M 544.45 801.88
  Q 544.23 808.54 543.53 815.50
  Q 543.07 819.97 543.75 834.34
  L 541.43 841.12
  A 1.64 1.62 7.6 0 1 539.97 842.22
  Q 533.59 842.53 527.25 842.63
  Q 521.56 842.72 520.87 839.74
  Q 522.03 828.03 521.49 815.49
  Q 521.42 813.84 523.14 812.14
  Q 527.16 808.18 531.21 804.25
  C 534.53 801.03 540.22 802.03 544.45 801.88
  Z"
/>
<path fill="#ff5a0d" d="
  M 753.34 819.48
  Q 753.58 819.52 753.71 819.57
  Q 753.90 819.66 754.10 819.66
  L 775.10 819.75
  L 774.71 830.17
  A 2.65 2.63 76.5 0 1 773.38 832.36
  C 770.49 834.02 768.04 835.54 764.76 836.89
  Q 757.78 839.75 752.70 844.76
  Q 752.19 844.82 752.01 844.73
  Q 753.22 844.24 753.11 843.01
  C 752.41 835.46 752.92 827.88 752.69 820.30
  Q 752.67 819.85 753.07 819.63
  L 753.34 819.48
  Z"
/>
<rect fill="#e61737" x="-8.05" y="-8.37" transform="translate(628.05,840.89) rotate(0.3)" width="16.10" height="16.74" rx="0.79"/>
<path fill="#ff5a0d" d="
  M 699.31 879.49
  L 673.60 878.99
  L 674.04 857.03
  A 0.46 0.45 0.6 0 1 674.50 856.59
  L 698.48 856.57
  Q 699.00 856.57 699.01 857.08
  L 699.31 879.49
  Z"
/>
<rect fill="#e61737" x="-11.81" y="-48.37" transform="translate(452.66,905.13) rotate(0.2)" width="23.62" height="96.74" rx="0.89"/>
<path fill="#e61737" d="
  M 699.31 879.49
  L 698.67 902.92
  A 0.96 0.96 0.0 0 1 697.71 903.86
  L 674.28 903.91
  A 0.54 0.54 0.0 0 1 673.74 903.38
  L 673.60 878.99
  L 699.31 879.49
  Z"
/>
<path fill="#ff5a0d" d="
  M 650.33 906.54
  L 629.45 905.68
  L 629.53 882.27
  A 0.44 0.44 0.0 0 1 629.97 881.83
  L 650.26 881.80
  A 0.39 0.39 0.0 0 1 650.66 882.19
  L 650.33 906.54
  Z"
/>
<path fill="#e61737" d="
  M 286.17 882.04
  A 0.69 0.69 0.0 0 1 286.85 882.73
  L 286.59 907.50
  A 2.64 1.56 -89.4 0 1 285.00 910.13
  L 270.32 909.97
  A 2.64 1.56 -89.4 0 1 268.79 907.32
  L 269.05 882.55
  A 0.69 0.69 0.0 0 1 269.75 881.86
  L 286.17 882.04
  Z"
/>
<path fill="#e61737" d="
  M 752.64 910.54
  L 739.10 910.67
  A 0.61 0.61 0.0 0 1 738.48 910.06
  L 738.49 895.51
  A 0.61 0.61 0.0 0 1 739.09 894.90
  L 752.66 894.72
  A 0.61 0.61 0.0 0 1 753.28 895.33
  L 753.24 909.93
  A 0.61 0.61 0.0 0 1 752.64 910.54
  Z"
/>
<path fill="#e61737" d="
  M 629.45 905.68
  L 650.33 906.54
  L 650.26 925.74
  A 1.52 1.52 0.0 0 1 648.75 927.25
  L 613.35 927.50
  A 0.64 0.64 0.0 0 1 612.70 926.85
  L 612.95 906.82
  A 1.04 1.04 0.0 0 1 613.99 905.79
  L 629.45 905.68
  Z"
/>
<path fill="#e61737" d="
  M 551.82 905.67
  L 576.28 905.58
  A 0.98 0.98 0.0 0 1 577.26 906.56
  L 577.25 926.03
  A 0.98 0.98 0.0 0 1 576.28 927.01
  L 551.47 927.17
  A 0.98 0.98 0.0 0 1 550.48 926.18
  L 550.84 906.63
  A 0.98 0.98 0.0 0 1 551.82 905.67
  Z"
/>
<rect fill="#710a2f" x="-6.09" y="-9.16" transform="translate(515.23,917.82) rotate(0.1)" width="12.18" height="18.32" rx="1.36"/>
</svg>
