<?xml version="1.0" encoding="UTF-8" standalone="no"?>
<!DOCTYPE svg PUBLIC "-//W3C//DTD SVG 1.1//EN" "http://www.w3.org/Graphics/SVG/1.1/DTD/svg11.dtd">
<svg xmlns="http://www.w3.org/2000/svg" version="1.1" viewBox="0.00 0.00 1024.00 1024.00">
<path fill="#031725" d="
  M 0.00 0.00
  L 1024.00 0.00
  L 1024.00 1024.00
  L 0.00 1024.00
  L 0.00 0.00
  Z"
/>
<path fill="#ffcc6e" d="
  M 650.26 241.92
  Q 645.58 239.73 641.51 237.46
  Q 637.08 235.00 632.49 235.32
  Q 617.33 225.03 598.74 224.76
  C 589.15 219.29 578.43 217.39 567.71 216.39
  C 555.47 213.52 542.50 213.18 529.99 212.00
  Q 516.84 210.75 501.56 203.92
  Q 485.25 196.63 473.87 179.84
  Q 473.57 179.38 473.02 179.41
  Q 472.50 179.44 472.35 179.04
  Q 472.09 178.32 471.17 178.80
  C 467.48 168.97 466.48 160.84 466.30 150.99
  Q 466.26 148.91 467.41 150.64
  C 484.25 176.02 514.20 189.47 544.25 190.60
  Q 552.92 190.92 568.75 190.73
  C 587.03 190.52 605.89 195.75 621.41 205.30
  C 635.91 214.22 644.54 225.75 650.26 241.92
  Z"
/>
<path fill="#ff7e01" d="
  M 471.17 178.80
  Q 472.09 178.32 472.35 179.04
  Q 472.50 179.44 473.02 179.41
  Q 473.57 179.38 473.87 179.84
  Q 485.25 196.63 501.56 203.92
  Q 516.84 210.75 529.99 212.00
  C 542.50 213.18 555.47 213.52 567.71 216.39
  Q 551.51 217.61 535.26 218.51
  Q 519.46 219.38 504.83 213.62
  C 490.53 207.99 476.34 193.82 471.17 178.80
  Z"
/>
<path fill="#f1f5ec" d="
  M 484.23 380.94
  Q 484.91 381.55 485.94 381.63
  C 488.68 383.67 491.55 383.98 494.48 385.21
  Q 498.48 386.89 498.54 386.92
  Q 515.11 393.38 530.60 402.12
  Q 531.19 402.45 531.47 402.86
  Q 532.13 403.86 531.18 404.14
  C 520.46 401.43 509.31 400.13 498.36 398.46
  C 490.13 397.21 482.00 396.82 473.75 396.24
  Q 450.25 394.60 427.95 387.35
  C 421.72 385.32 415.77 382.17 409.93 379.09
  Q 381.60 364.15 368.77 335.04
  A 0.49 0.49 0.0 0 0 367.88 335.04
  C 362.94 346.08 361.94 363.22 365.93 374.59
  Q 366.62 376.56 366.69 378.47
  C 359.29 371.55 352.92 361.14 348.37 352.97
  Q 336.25 331.19 334.34 308.64
  Q 333.35 297.05 334.98 283.64
  C 337.65 261.63 348.33 239.52 363.39 223.43
  C 371.28 215.01 378.47 208.71 387.75 203.43
  Q 388.61 202.93 389.02 203.19
  A 1.34 1.34 0.0 0 1 389.49 204.95
  C 373.76 234.79 370.02 269.79 381.45 300.44
  C 392.30 329.50 414.08 354.53 442.66 367.41
  Q 462.78 376.47 484.23 380.94
  Z"
/>
<path fill="#fe4313" d="
  M 598.74 224.76
  Q 617.33 225.03 632.49 235.32
  Q 638.90 239.78 643.07 244.61
  Q 645.31 247.22 642.02 246.21
  C 630.75 242.76 620.07 241.60 607.25 244.02
  C 595.56 246.22 580.27 254.61 573.03 264.22
  C 569.52 268.90 567.48 270.95 565.50 277.26
  C 562.63 286.37 561.15 294.78 562.90 304.02
  C 564.64 313.23 568.16 320.85 573.64 328.39
  C 578.09 334.52 586.29 341.87 592.22 345.84
  C 608.09 356.45 624.06 367.39 638.50 379.92
  Q 637.83 379.93 637.88 380.80
  C 637.93 381.63 638.62 382.14 638.74 383.13
  Q 638.75 383.25 638.85 383.25
  Q 638.91 383.26 638.96 383.24
  Q 639.08 383.21 639.14 383.28
  Q 640.22 384.46 639.88 386.10
  Q 639.78 386.58 639.48 386.96
  Q 639.18 387.34 639.10 387.81
  Q 639.03 388.30 639.26 388.73
  L 639.49 389.15
  Q 639.68 389.51 639.48 389.86
  L 631.86 403.67
  Q 631.62 404.11 631.66 404.69
  Q 631.70 405.30 631.40 405.82
  Q 631.16 406.23 631.20 406.70
  Q 631.42 409.43 629.17 408.99
  Q 619.66 396.97 608.03 386.96
  Q 593.15 373.34 576.42 363.37
  Q 574.99 361.29 573.23 359.73
  C 563.20 350.89 554.26 343.13 546.18 331.33
  C 539.97 322.25 536.27 316.26 532.43 306.97
  C 531.04 303.60 530.34 299.77 529.31 295.75
  Q 527.82 289.95 529.35 283.02
  Q 529.79 281.04 529.91 279.02
  Q 529.94 278.59 529.69 278.94
  L 525.61 284.41
  C 532.46 262.43 547.35 245.83 567.00 234.46
  Q 580.19 226.83 598.74 224.76
  Z"
/>
<path fill="#fe4313" d="
  M 508.49 272.32
  Q 507.51 273.01 506.74 274.01
  Q 506.64 274.14 506.48 274.01
  Q 506.24 273.82 506.00 274.02
  Q 501.98 277.35 498.46 281.20
  Q 489.61 290.89 481.27 301.01
  Q 476.82 306.41 472.82 317.99
  Q 472.64 311.82 474.55 303.27
  C 478.12 287.34 483.90 273.73 494.50 261.48
  C 511.03 242.38 533.74 231.13 558.41 226.76
  Q 559.85 226.50 558.55 227.18
  C 538.71 237.53 521.47 254.19 508.49 272.32
  Z"
/>
<path fill="#f1f5ec" d="
  M 650.26 241.92
  Q 668.91 252.50 674.82 273.41
  A 0.40 0.38 -25.4 0 1 674.66 273.83
  Q 674.38 274.01 674.02 273.72
  Q 664.17 265.70 651.25 263.84
  Q 644.93 262.75 638.58 261.68
  C 635.76 261.20 633.00 261.11 630.17 260.97
  C 612.58 260.09 593.26 269.79 588.89 288.09
  C 584.15 307.94 597.69 326.09 611.48 338.59
  C 618.54 344.99 623.58 350.37 629.72 356.25
  Q 631.78 358.65 634.87 364.38
  Q 641.82 377.30 645.29 386.19
  L 638.50 379.92
  C 624.06 367.39 608.09 356.45 592.22 345.84
  C 586.29 341.87 578.09 334.52 573.64 328.39
  C 568.16 320.85 564.64 313.23 562.90 304.02
  C 561.15 294.78 562.63 286.37 565.50 277.26
  C 567.48 270.95 569.52 268.90 573.03 264.22
  C 580.27 254.61 595.56 246.22 607.25 244.02
  C 620.07 241.60 630.75 242.76 642.02 246.21
  Q 645.31 247.22 643.07 244.61
  Q 638.90 239.78 632.49 235.32
  Q 637.08 235.00 641.51 237.46
  Q 645.58 239.73 650.26 241.92
  Z"
/>
<path fill="#b5c4c2" d="
  M 651.25 263.84
  C 621.82 260.76 597.21 287.48 609.93 316.30
  Q 613.16 323.63 619.48 330.55
  Q 619.76 337.92 623.98 343.92
  Q 626.03 346.84 627.04 348.73
  Q 628.40 351.26 629.97 353.66
  Q 630.44 354.38 630.48 354.95
  Q 630.57 356.06 629.72 356.25
  C 623.58 350.37 618.54 344.99 611.48 338.59
  C 597.69 326.09 584.15 307.94 588.89 288.09
  C 593.26 269.79 612.58 260.09 630.17 260.97
  C 633.00 261.11 635.76 261.20 638.58 261.68
  Q 644.93 262.75 651.25 263.84
  Z"
/>
<path fill="#c91700" d="
  M 508.49 272.32
  Q 507.56 274.81 506.19 276.99
  C 495.65 293.86 489.86 310.89 486.60 330.52
  Q 484.03 345.97 486.26 361.50
  Q 486.73 364.80 487.59 367.44
  Q 488.31 369.67 486.50 368.18
  C 483.30 365.52 479.96 358.38 478.38 354.53
  Q 470.98 336.58 472.82 317.99
  Q 476.82 306.41 481.27 301.01
  Q 489.61 290.89 498.46 281.20
  Q 501.98 277.35 506.00 274.02
  Q 506.24 273.82 506.48 274.01
  Q 506.64 274.14 506.74 274.01
  Q 507.51 273.01 508.49 272.32
  Z"
/>
<path fill="#f03206" d="
  M 576.42 363.37
  Q 564.13 358.98 557.62 356.13
  C 545.91 351.01 536.90 345.48 528.90 335.78
  C 528.26 335.02 527.26 334.32 526.72 333.23
  Q 526.49 332.79 526.06 332.54
  Q 525.00 331.94 523.78 330.38
  C 519.54 317.16 520.31 298.88 525.61 284.41
  L 529.69 278.94
  Q 529.94 278.59 529.91 279.02
  Q 529.79 281.04 529.35 283.02
  Q 527.82 289.95 529.31 295.75
  C 530.34 299.77 531.04 303.60 532.43 306.97
  C 536.27 316.26 539.97 322.25 546.18 331.33
  C 554.26 343.13 563.20 350.89 573.23 359.73
  Q 574.99 361.29 576.42 363.37
  Z"
/>
<path fill="#ffcc6e" d="
  M 331.20 366.63
  L 327.04 387.20
  Q 324.23 394.63 323.68 402.51
  Q 320.04 414.47 322.26 426.75
  Q 322.43 427.67 323.22 429.62
  Q 323.86 431.21 323.84 432.65
  C 302.28 402.68 297.91 359.92 313.30 326.25
  Q 313.49 325.83 313.81 325.69
  A 0.34 0.34 0.0 0 1 314.29 325.92
  Q 319.33 348.06 331.20 366.63
  Z"
/>
<path fill="#c91700" d="
  M 523.78 330.38
  Q 525.00 331.94 526.06 332.54
  Q 526.49 332.79 526.72 333.23
  C 527.26 334.32 528.26 335.02 528.90 335.78
  C 536.90 345.48 545.91 351.01 557.62 356.13
  Q 564.13 358.98 576.42 363.37
  Q 593.15 373.34 608.03 386.96
  Q 605.11 386.60 604.40 388.54
  Q 604.24 388.98 603.77 389.06
  Q 601.65 389.40 600.18 390.95
  Q 599.93 391.21 599.58 391.24
  Q 595.36 391.61 591.94 394.21
  A 0.15 0.15 0.0 0 0 591.96 394.47
  Q 592.12 394.55 592.28 394.62
  Q 592.69 394.78 592.34 395.04
  L 588.46 397.89
  Q 588.03 398.20 587.51 398.07
  Q 583.52 397.02 583.59 399.17
  C 573.66 391.11 563.41 383.62 553.76 375.23
  C 540.62 363.79 527.43 348.01 523.78 330.38
  Z"
/>
<path fill="#ffcc6e" d="
  M 619.48 330.55
  C 630.70 339.33 643.60 348.60 653.07 357.03
  C 676.74 378.10 691.37 403.37 695.00 435.91
  Q 698.65 468.54 684.79 500.29
  Q 677.43 517.14 669.22 528.20
  Q 668.98 528.37 668.72 528.37
  Q 668.13 528.37 668.40 527.84
  Q 669.76 525.15 671.13 522.52
  Q 675.24 514.63 677.02 505.96
  Q 681.20 485.68 679.59 464.95
  C 677.67 439.92 667.80 415.42 652.86 395.32
  Q 651.65 393.70 649.02 390.82
  Q 646.76 388.34 645.29 386.19
  Q 641.82 377.30 634.87 364.38
  Q 631.78 358.65 629.72 356.25
  Q 630.57 356.06 630.48 354.95
  Q 630.44 354.38 629.97 353.66
  Q 628.40 351.26 627.04 348.73
  Q 626.03 346.84 623.98 343.92
  Q 619.76 337.92 619.48 330.55
  Z"
/>
<path fill="#b5c4c2" d="
  M 531.18 404.14
  Q 543.92 408.75 551.69 414.05
  Q 554.84 416.20 564.31 424.23
  C 565.64 425.36 567.40 426.26 568.52 427.21
  Q 573.62 431.58 578.88 435.75
  Q 580.31 436.89 580.61 438.48
  Q 568.50 431.21 561.15 428.36
  C 541.89 420.87 521.81 418.05 501.25 417.47
  C 477.37 416.80 452.80 417.57 430.01 412.93
  Q 411.01 409.06 394.01 399.79
  Q 378.31 391.23 366.69 378.47
  Q 366.62 376.56 365.93 374.59
  C 361.94 363.22 362.94 346.08 367.88 335.04
  A 0.49 0.49 0.0 0 1 368.77 335.04
  Q 381.60 364.15 409.93 379.09
  C 415.77 382.17 421.72 385.32 427.95 387.35
  Q 450.25 394.60 473.75 396.24
  C 482.00 396.82 490.13 397.21 498.36 398.46
  C 509.31 400.13 520.46 401.43 531.18 404.14
  Z"
/>
<path fill="#fe4313" d="
  M 579.77 460.55
  L 580.46 462.03
  Q 580.83 462.82 580.01 462.52
  C 578.77 462.05 577.71 461.16 576.60 460.71
  Q 570.28 458.11 563.99 455.43
  C 559.65 453.58 555.09 452.40 550.58 451.04
  C 538.86 447.53 525.91 446.92 513.75 447.32
  C 498.07 447.83 482.53 450.48 467.00 452.58
  C 437.99 456.49 408.95 457.56 383.32 445.84
  C 365.24 437.56 350.39 425.79 339.33 408.93
  Q 333.83 400.54 331.65 393.54
  C 331.04 391.59 331.11 389.37 330.87 387.26
  Q 330.81 386.77 330.39 386.51
  Q 328.38 385.23 327.04 387.20
  L 331.20 366.63
  Q 345.52 389.94 366.82 406.68
  Q 372.13 410.86 386.82 418.68
  C 419.49 436.07 457.28 434.87 493.00 434.72
  Q 511.87 434.65 530.40 438.09
  Q 557.81 443.19 579.77 460.55
  Z"
/>
<path fill="#f03206" d="
  M 638.50 379.92
  L 645.29 386.19
  Q 646.76 388.34 649.02 390.82
  Q 651.65 393.70 652.86 395.32
  C 667.80 415.42 677.67 439.92 679.59 464.95
  L 678.29 468.20
  Q 678.08 468.72 677.86 468.21
  Q 677.73 467.94 677.75 467.67
  Q 677.77 467.33 677.43 467.26
  C 676.13 467.02 675.31 467.01 673.92 467.43
  C 672.49 467.87 671.13 467.40 669.74 467.62
  Q 665.28 468.32 662.25 466.50
  Q 659.80 465.02 657.87 466.31
  Q 657.42 466.61 657.02 466.24
  Q 656.81 466.05 656.51 466.12
  Q 656.21 466.18 656.11 466.47
  L 656.00 466.75
  Q 655.99 466.80 655.39 466.47
  Q 655.14 466.33 654.73 466.26
  Q 654.33 466.19 654.38 466.59
  Q 654.40 466.82 654.22 467.03
  A 0.13 0.13 0.0 0 1 654.00 466.98
  L 653.90 466.62
  Q 653.87 466.51 653.85 466.62
  Q 653.63 467.81 652.84 467.76
  Q 650.68 449.96 643.24 433.44
  Q 637.49 420.61 629.17 408.99
  Q 631.42 409.43 631.20 406.70
  Q 631.16 406.23 631.40 405.82
  Q 631.70 405.30 631.66 404.69
  Q 631.62 404.11 631.86 403.67
  L 639.48 389.86
  Q 639.68 389.51 639.49 389.15
  L 639.26 388.73
  Q 639.03 388.30 639.10 387.81
  Q 639.18 387.34 639.48 386.96
  Q 639.78 386.58 639.88 386.10
  Q 640.22 384.46 639.14 383.28
  Q 639.08 383.21 638.96 383.24
  Q 638.91 383.26 638.85 383.25
  Q 638.75 383.25 638.74 383.13
  C 638.62 382.14 637.93 381.63 637.88 380.80
  Q 637.83 379.93 638.50 379.92
  Z"
/>
<path fill="#b5c4c2" d="
  M 484.23 380.94
  L 487.96 381.43
  L 485.94 381.63
  Q 484.91 381.55 484.23 380.94
  Z"
/>
<path fill="#ffcc6e" d="
  M 485.94 381.63
  L 487.96 381.43
  Q 504.66 383.82 521.01 387.94
  C 551.73 395.70 581.60 417.20 593.38 447.58
  Q 594.61 450.76 592.05 448.51
  L 580.61 438.48
  Q 580.31 436.89 578.88 435.75
  Q 573.62 431.58 568.52 427.21
  C 567.40 426.26 565.64 425.36 564.31 424.23
  Q 554.84 416.20 551.69 414.05
  Q 543.92 408.75 531.18 404.14
  Q 532.13 403.86 531.47 402.86
  Q 531.19 402.45 530.60 402.12
  Q 515.11 393.38 498.54 386.92
  Q 498.48 386.89 494.48 385.21
  C 491.55 383.98 488.68 383.67 485.94 381.63
  Z"
/>
<path fill="#c91700" d="
  M 579.77 460.55
  Q 587.14 465.64 592.31 472.96
  Q 592.56 473.32 592.14 473.18
  Q 587.63 471.70 583.14 470.09
  C 542.37 455.53 500.85 467.42 459.46 477.57
  C 413.63 488.80 362.84 480.97 331.57 442.79
  Q 330.57 439.78 329.17 437.07
  Q 327.41 433.66 326.76 431.41
  C 325.34 426.49 323.88 422.19 323.89 416.91
  Q 323.91 409.67 323.68 402.51
  Q 324.23 394.63 327.04 387.20
  Q 328.38 385.23 330.39 386.51
  Q 330.81 386.77 330.87 387.26
  C 331.11 389.37 331.04 391.59 331.65 393.54
  Q 333.83 400.54 339.33 408.93
  C 350.39 425.79 365.24 437.56 383.32 445.84
  C 408.95 457.56 437.99 456.49 467.00 452.58
  C 482.53 450.48 498.07 447.83 513.75 447.32
  C 525.91 446.92 538.86 447.53 550.58 451.04
  C 555.09 452.40 559.65 453.58 563.99 455.43
  Q 570.28 458.11 576.60 460.71
  C 577.71 461.16 578.77 462.05 580.01 462.52
  Q 580.83 462.82 580.46 462.03
  L 579.77 460.55
  Z"
/>
<path fill="#841711" d="
  M 608.03 386.96
  Q 619.66 396.97 629.17 408.99
  Q 637.49 420.61 643.24 433.44
  Q 643.01 433.65 642.55 433.37
  Q 642.16 433.13 642.17 433.59
  C 642.23 436.52 643.49 439.20 644.09 441.34
  C 644.80 443.87 645.74 446.45 646.14 448.95
  C 648.84 465.90 648.04 486.57 640.98 502.75
  Q 629.49 529.10 609.47 549.73
  C 599.01 560.52 587.17 566.48 574.90 572.88
  Q 571.18 574.82 574.09 571.80
  Q 578.85 566.85 584.37 561.12
  Q 601.84 542.96 611.91 519.82
  C 619.33 502.78 621.42 486.62 620.63 469.00
  Q 620.31 461.80 618.56 454.79
  Q 610.98 424.61 588.14 403.62
  Q 585.85 401.52 583.59 399.17
  Q 583.52 397.02 587.51 398.07
  Q 588.03 398.20 588.46 397.89
  L 592.34 395.04
  Q 592.69 394.78 592.28 394.62
  Q 592.12 394.55 591.96 394.47
  A 0.15 0.15 0.0 0 1 591.94 394.21
  Q 595.36 391.61 599.58 391.24
  Q 599.93 391.21 600.18 390.95
  Q 601.65 389.40 603.77 389.06
  Q 604.24 388.98 604.40 388.54
  Q 605.11 386.60 608.03 386.96
  Z"
/>
<path fill="#fe4313" d="
  M 323.68 402.51
  Q 323.91 409.67 323.89 416.91
  C 323.88 422.19 325.34 426.49 326.76 431.41
  Q 327.41 433.66 329.17 437.07
  Q 330.57 439.78 331.57 442.79
  L 323.84 432.65
  Q 323.86 431.21 323.22 429.62
  Q 322.43 427.67 322.26 426.75
  Q 320.04 414.47 323.68 402.51
  Z"
/>
<path fill="#c91700" d="
  M 679.59 464.95
  Q 681.20 485.68 677.02 505.96
  Q 675.24 514.63 671.13 522.52
  Q 669.76 525.15 668.40 527.84
  Q 668.13 528.37 668.72 528.37
  Q 668.98 528.37 669.22 528.20
  Q 654.17 550.89 633.23 568.19
  Q 620.79 578.48 615.21 581.23
  Q 606.08 585.74 598.40 589.50
  Q 595.25 591.05 598.05 588.93
  C 618.74 573.26 634.71 552.52 644.57 528.08
  C 652.37 508.76 655.03 488.63 652.84 467.76
  Q 653.63 467.81 653.85 466.62
  Q 653.87 466.51 653.90 466.62
  L 654.00 466.98
  A 0.13 0.13 0.0 0 0 654.22 467.03
  Q 654.40 466.82 654.38 466.59
  Q 654.33 466.19 654.73 466.26
  Q 655.14 466.33 655.39 466.47
  Q 655.99 466.80 656.00 466.75
  L 656.11 466.47
  Q 656.21 466.18 656.51 466.12
  Q 656.81 466.05 657.02 466.24
  Q 657.42 466.61 657.87 466.31
  Q 659.80 465.02 662.25 466.50
  Q 665.28 468.32 669.74 467.62
  C 671.13 467.40 672.49 467.87 673.92 467.43
  C 675.31 467.01 676.13 467.02 677.43 467.26
  Q 677.77 467.33 677.75 467.67
  Q 677.73 467.94 677.86 468.21
  Q 678.08 468.72 678.29 468.20
  L 679.59 464.95
  Z"
/>
<path fill="#f03206" d="
  M 571.92 487.80
  Q 547.60 488.52 524.67 497.12
  C 506.19 504.05 486.60 512.27 469.02 517.33
  Q 448.09 523.34 424.00 524.75
  C 407.23 525.73 389.33 523.90 373.54 517.92
  Q 367.02 515.45 362.26 512.08
  Q 348.97 499.55 340.98 483.23
  Q 340.36 481.96 340.30 480.78
  A 0.57 0.56 17.9 0 1 341.22 480.31
  C 352.80 489.70 368.84 496.04 383.34 498.93
  Q 408.16 503.89 434.75 501.03
  Q 448.88 499.52 458.47 497.08
  C 471.24 493.82 483.99 490.58 496.70 487.09
  Q 525.42 479.20 555.25 482.25
  Q 564.98 483.25 573.71 486.98
  Q 574.65 487.38 573.75 487.85
  Q 572.95 488.26 571.92 487.80
  Z"
/>
<path fill="#59181d" d="
  M 571.92 487.80
  Q 570.46 488.67 570.59 489.28
  A 2.61 1.14 -23.3 0 1 568.82 491.17
  C 557.26 496.65 546.08 504.17 535.52 511.36
  Q 521.96 520.60 518.88 522.43
  C 482.84 543.81 432.60 555.14 393.37 534.89
  C 380.76 528.37 371.31 522.42 362.26 512.08
  Q 367.02 515.45 373.54 517.92
  C 389.33 523.90 407.23 525.73 424.00 524.75
  Q 448.09 523.34 469.02 517.33
  C 486.60 512.27 506.19 504.05 524.67 497.12
  Q 547.60 488.52 571.92 487.80
  Z"
/>
<path fill="#c91700" d="
  M 581.36 533.55
  Q 580.83 532.37 580.25 532.73
  Q 578.73 532.22 578.60 530.63
  A 2.06 0.57 25.5 0 0 577.27 529.47
  Q 577.03 529.34 576.75 529.34
  Q 576.36 529.35 576.26 529.26
  Q 575.89 528.99 575.95 528.13
  Q 589.66 513.34 599.94 496.00
  Q 600.02 495.86 600.17 495.93
  L 600.18 495.94
  Q 600.33 496.01 600.26 496.17
  Q 598.76 499.57 595.32 508.75
  Q 590.49 521.63 581.36 533.55
  Z"
/>
<path fill="#f03206" d="
  M 575.95 528.13
  Q 575.89 528.99 576.26 529.26
  Q 576.36 529.35 576.75 529.34
  Q 577.03 529.34 577.27 529.47
  A 2.06 0.57 25.5 0 1 578.60 530.63
  Q 578.73 532.22 580.25 532.73
  Q 580.83 532.37 581.36 533.55
  Q 564.44 554.73 546.38 569.89
  C 541.02 574.38 533.01 579.95 526.18 585.39
  C 513.78 595.29 499.39 604.91 488.19 613.94
  Q 463.82 633.58 444.37 656.88
  Q 440.25 661.81 435.58 669.06
  C 432.42 672.62 430.03 677.50 427.88 680.72
  Q 423.68 687.02 420.53 693.67
  Q 409.47 715.52 404.19 739.02
  Q 403.86 739.37 403.83 740.05
  Q 403.80 740.64 403.22 740.63
  Q 402.52 740.61 402.13 741.02
  Q 401.79 741.37 401.36 741.59
  Q 400.41 742.08 399.37 741.87
  Q 398.82 741.76 398.35 742.04
  Q 395.19 743.87 391.61 744.25
  Q 391.30 744.28 391.39 743.98
  Q 391.48 743.66 390.69 744.14
  Q 390.24 744.41 390.16 744.93
  L 389.83 747.27
  A 0.32 0.32 0.0 0 1 389.20 747.30
  Q 388.93 746.17 389.08 745.00
  Q 389.13 744.65 388.86 744.42
  Q 388.73 744.31 388.57 744.22
  A 0.79 0.79 0.0 0 1 388.20 743.50
  Q 388.35 741.64 387.49 740.89
  Q 386.79 723.65 390.50 706.62
  C 390.74 705.52 390.45 704.27 390.84 703.08
  Q 391.62 700.70 391.63 700.61
  Q 393.20 692.54 396.05 685.64
  Q 403.04 673.26 405.35 669.54
  C 413.42 656.57 423.31 644.13 434.69 633.29
  Q 455.65 613.32 479.97 597.47
  Q 503.69 582.00 527.40 566.55
  C 544.44 555.45 561.86 542.86 575.95 528.13
  Z"
/>
<path fill="#f1f5ec" d="
  M 396.05 685.64
  Q 393.20 692.54 391.63 700.61
  Q 391.62 700.70 390.84 703.08
  C 390.45 704.27 390.74 705.52 390.50 706.62
  Q 386.79 723.65 387.49 740.89
  Q 386.47 777.43 404.79 808.78
  Q 405.65 810.15 405.82 811.34
  C 395.47 799.27 389.06 789.21 382.54 774.63
  C 370.45 747.62 367.63 717.80 372.38 688.73
  C 381.83 630.82 422.46 587.05 474.44 562.87
  C 495.07 553.27 516.41 545.53 537.46 537.31
  Q 540.19 536.24 538.09 538.29
  C 533.28 542.97 527.43 546.70 521.88 550.49
  C 509.11 559.21 497.22 567.60 482.00 577.69
  Q 452.33 597.37 427.30 625.80
  C 420.32 633.73 414.36 643.98 408.82 653.81
  Q 402.69 664.69 396.05 685.64
  Z"
/>
<path fill="#f1f5ec" d="
  M 690.81 732.69
  Q 687.37 735.31 684.64 738.40
  C 679.14 744.60 673.72 750.59 667.42 756.02
  C 664.75 758.31 661.34 760.25 658.30 762.42
  Q 655.66 764.32 653.23 765.48
  C 632.02 775.71 611.35 780.35 587.51 777.03
  Q 552.15 772.11 528.56 745.69
  Q 512.01 727.16 506.97 704.52
  Q 504.11 691.66 506.55 674.44
  Q 506.62 673.96 506.28 673.62
  L 506.06 673.40
  A 0.33 0.33 0.0 0 0 505.50 673.55
  Q 499.33 695.88 496.50 711.50
  C 495.98 714.39 496.50 718.16 496.50 721.84
  Q 496.50 725.61 497.83 729.24
  Q 500.56 736.68 501.94 744.66
  C 488.21 716.86 488.18 687.11 501.72 659.70
  C 518.45 625.84 546.36 601.86 579.76 585.50
  Q 582.00 584.40 580.24 586.17
  C 572.55 593.89 563.76 601.90 557.51 609.21
  C 539.49 630.30 526.84 653.84 527.69 682.29
  C 528.40 706.35 541.30 729.31 561.77 742.28
  C 597.35 764.83 644.63 756.48 677.90 734.62
  C 682.51 731.59 687.81 727.08 692.79 723.48
  Q 693.81 722.75 693.44 723.95
  L 690.81 732.69
  Z"
/>
<path fill="#ffcc6e" d="
  M 642.90 822.91
  Q 636.23 825.63 630.09 828.31
  Q 624.13 830.90 618.61 832.31
  C 609.63 834.60 600.19 837.38 591.51 837.81
  C 568.53 838.96 543.62 834.94 523.40 823.66
  Q 486.73 803.19 467.50 764.92
  Q 463.80 757.56 461.18 748.08
  Q 454.09 722.37 457.88 696.77
  C 460.03 682.21 464.88 670.15 471.96 657.33
  C 472.90 655.62 474.27 654.02 475.33 652.23
  C 478.20 647.39 482.29 643.63 484.05 638.52
  Q 491.32 631.90 498.78 626.81
  Q 501.12 625.22 499.54 627.56
  C 494.83 634.55 489.68 642.30 486.02 649.47
  Q 475.52 670.03 473.47 690.50
  C 469.62 728.98 483.54 760.97 510.41 787.84
  C 515.93 793.35 522.20 797.75 529.10 802.40
  C 560.02 823.21 599.42 829.27 635.50 820.46
  Q 641.62 818.97 647.30 816.27
  Q 647.51 816.17 647.69 816.18
  Q 648.00 816.20 648.09 816.33
  A 0.86 0.86 0.0 0 1 648.00 817.40
  L 642.90 822.91
  Z"
/>
<path fill="#ff7e01" d="
  M 484.05 638.52
  C 482.29 643.63 478.20 647.39 475.33 652.23
  C 474.27 654.02 472.90 655.62 471.96 657.33
  C 464.88 670.15 460.03 682.21 457.88 696.77
  Q 454.09 722.37 461.18 748.08
  Q 463.80 757.56 467.50 764.92
  Q 486.73 803.19 523.40 823.66
  C 543.62 834.94 568.53 838.96 591.51 837.81
  C 600.19 837.38 609.63 834.60 618.61 832.31
  Q 624.13 830.90 630.09 828.31
  Q 636.23 825.63 642.90 822.91
  Q 614.60 852.32 575.24 856.57
  C 547.61 859.56 519.23 852.52 495.62 837.12
  C 476.55 824.68 460.68 804.69 450.63 783.42
  C 427.41 734.32 442.60 673.18 484.05 638.52
  Z"
/>
<path fill="#59181d" d="
  M 435.58 669.06
  C 435.75 669.99 435.45 670.68 434.85 671.38
  Q 434.54 671.73 434.62 672.25
  Q 434.70 672.75 434.45 673.19
  Q 432.86 676.05 431.39 680.01
  Q 426.36 693.49 424.88 698.45
  Q 420.72 712.27 419.22 726.63
  C 417.97 738.49 419.34 751.49 421.78 763.13
  C 425.57 781.29 433.83 798.97 444.07 814.41
  C 447.41 819.45 451.84 824.78 455.80 829.92
  C 461.99 837.94 470.60 844.26 477.32 850.19
  Q 481.69 854.06 486.51 856.67
  C 489.75 858.42 492.36 860.54 495.40 862.44
  C 493.79 863.08 492.08 861.30 490.61 860.67
  C 488.25 859.64 486.49 858.02 484.02 857.17
  Q 478.75 855.35 474.10 852.40
  C 472.64 851.48 471.24 849.90 469.62 848.82
  C 465.37 846.00 461.53 842.64 457.49 839.53
  C 456.54 838.80 455.60 837.49 454.49 836.60
  Q 450.93 833.73 448.17 830.11
  C 445.91 827.13 443.28 824.61 441.57 822.43
  Q 436.63 816.15 426.50 799.01
  C 418.65 785.72 413.97 768.98 412.79 752.85
  C 412.09 743.27 412.18 736.58 413.31 726.91
  C 413.76 723.01 414.89 719.32 415.89 715.49
  C 416.83 711.93 417.07 708.06 417.78 704.30
  Q 417.81 704.14 417.65 704.08
  Q 417.53 704.03 417.45 703.92
  Q 417.36 703.78 417.41 703.55
  Q 417.51 703.04 417.82 702.63
  Q 418.12 702.25 418.25 701.78
  L 420.53 693.67
  Q 423.68 687.02 427.88 680.72
  C 430.03 677.50 432.42 672.62 435.58 669.06
  Z"
/>
<path fill="#b5c4c2" d="
  M 690.81 732.69
  C 684.36 752.80 669.57 772.33 653.69 784.69
  Q 644.58 791.78 630.76 796.75
  C 581.23 814.57 529.38 793.06 503.50 748.27
  Q 502.70 746.88 501.94 744.66
  Q 500.56 736.68 497.83 729.24
  Q 496.50 725.61 496.50 721.84
  C 496.50 718.16 495.98 714.39 496.50 711.50
  Q 499.33 695.88 505.50 673.55
  A 0.33 0.33 0.0 0 1 506.06 673.40
  L 506.28 673.62
  Q 506.62 673.96 506.55 674.44
  Q 504.11 691.66 506.97 704.52
  Q 512.01 727.16 528.56 745.69
  Q 552.15 772.11 587.51 777.03
  C 611.35 780.35 632.02 775.71 653.23 765.48
  Q 655.66 764.32 658.30 762.42
  C 661.34 760.25 664.75 758.31 667.42 756.02
  C 673.72 750.59 679.14 744.60 684.64 738.40
  Q 687.37 735.31 690.81 732.69
  Z"
/>
<path fill="#841711" d="
  M 420.53 693.67
  L 418.25 701.78
  Q 418.12 702.25 417.82 702.63
  Q 417.51 703.04 417.41 703.55
  Q 417.36 703.78 417.45 703.92
  Q 417.53 704.03 417.65 704.08
  Q 417.81 704.14 417.78 704.30
  C 417.07 708.06 416.83 711.93 415.89 715.49
  C 414.89 719.32 413.76 723.01 413.31 726.91
  C 412.18 736.58 412.09 743.27 412.79 752.85
  C 413.97 768.98 418.65 785.72 426.50 799.01
  Q 436.63 816.15 441.57 822.43
  C 443.28 824.61 445.91 827.13 448.17 830.11
  Q 450.93 833.73 454.49 836.60
  C 455.60 837.49 456.54 838.80 457.49 839.53
  C 461.53 842.64 465.37 846.00 469.62 848.82
  C 471.24 849.90 472.64 851.48 474.10 852.40
  Q 478.75 855.35 484.02 857.17
  C 486.49 858.02 488.25 859.64 490.61 860.67
  C 492.08 861.30 493.79 863.08 495.40 862.44
  Q 500.93 866.07 507.21 867.96
  A 0.53 0.52 -74.7 0 1 507.57 868.60
  L 507.50 868.86
  Q 507.44 869.11 507.18 869.06
  Q 502.76 868.07 498.25 867.59
  Q 492.10 866.93 489.33 866.30
  C 465.67 860.91 445.40 849.47 427.25 833.68
  C 419.82 827.22 412.71 819.02 405.82 811.34
  Q 405.65 810.15 404.79 808.78
  Q 405.72 809.59 406.85 809.11
  Q 407.33 808.91 407.36 808.38
  C 407.47 806.66 406.42 805.24 406.06 804.07
  Q 402.20 791.72 401.92 788.24
  C 401.01 777.09 401.21 766.38 401.67 755.22
  C 401.90 749.78 403.29 744.49 404.19 739.02
  Q 409.47 715.52 420.53 693.67
  Z"
/>
<path fill="#c91700" d="
  M 404.19 739.02
  C 403.29 744.49 401.90 749.78 401.67 755.22
  C 401.21 766.38 401.01 777.09 401.92 788.24
  Q 402.20 791.72 406.06 804.07
  C 406.42 805.24 407.47 806.66 407.36 808.38
  Q 407.33 808.91 406.85 809.11
  Q 405.72 809.59 404.79 808.78
  Q 386.47 777.43 387.49 740.89
  Q 388.35 741.64 388.20 743.50
  A 0.79 0.79 0.0 0 0 388.57 744.22
  Q 388.73 744.31 388.86 744.42
  Q 389.13 744.65 389.08 745.00
  Q 388.93 746.17 389.20 747.30
  A 0.32 0.32 0.0 0 0 389.83 747.27
  L 390.16 744.93
  Q 390.24 744.41 390.69 744.14
  Q 391.48 743.66 391.39 743.98
  Q 391.30 744.28 391.61 744.25
  Q 395.19 743.87 398.35 742.04
  Q 398.82 741.76 399.37 741.87
  Q 400.41 742.08 401.36 741.59
  Q 401.79 741.37 402.13 741.02
  Q 402.52 740.61 403.22 740.63
  Q 403.80 740.64 403.83 740.05
  Q 403.86 739.37 404.19 739.02
  Z"
/>
</svg>
