<svg width="100" height="100" viewBox="0 0 100 100" fill="none" xmlns="http://www.w3.org/2000/svg">
<path d="M41.486 58.113C41.486 65.3814 38.8366 71.5564 32.7954 71.5564C38.8366 71.5564 41.486 77.7314 41.486 84.9997C41.486 77.7314 44.1354 71.5564 50.1766 71.5564C44.1354 71.5564 41.486 65.3814 41.486 58.113Z" fill="white"/>
<path d="M58.5 38C58.5 39.8923 57.7378 41.5 56 41.5C57.7378 41.5 58.5 43.1077 58.5 45C58.5 43.1077 59.2621 41.5 61 41.5C59.2621 41.5 58.5 39.8923 58.5 38Z" fill="white"/>
<path d="M31.7525 26.2735C31.7525 29.1426 30.5868 31.5801 27.9287 31.5801C30.5868 31.5801 31.7525 34.0176 31.7525 36.8867C31.7525 34.0176 32.9183 31.5801 35.5764 31.5801C32.9183 31.5801 31.7525 29.1426 31.7525 26.2735Z" fill="white"/>
</svg>
