<svg width="100" height="100" viewBox="0 0 100 100" fill="none" xmlns="http://www.w3.org/2000/svg">
<g id="t Mark">
<path id="Background (Stroke)" fill-rule="evenodd" clip-rule="evenodd" d="M71.2253 26.2072C72.3298 26.2072 73.2253 27.1026 73.2253 28.2072V41.5422C73.2253 42.2513 72.8498 42.9074 72.2385 43.2666L60.4161 50.2131V60.0063C60.4161 62.4619 61.0229 63.6934 61.7064 64.3444C61.8908 64.52 62.1006 64.6741 62.3411 64.8078C63.0546 65.2043 64.0803 65.4433 65.5135 65.4433H71.7291C72.8337 65.4433 73.7291 66.3387 73.7291 67.4433V81.505C73.7291 82.214 73.3537 82.8701 72.7423 83.2293L58.2847 91.7244C57.9776 91.9049 57.6277 92 57.2715 92L45.5544 91.9996C43.7441 91.9996 41.988 91.8483 40.3122 91.5282C39.3793 91.3501 38.4701 91.1194 37.5899 90.833C33.8798 89.6257 30.7139 87.4344 28.4957 84.1048C26.2878 80.7906 25.117 76.4977 25.117 71.2363V52.0372H17.5002C16.3957 52.0372 15.5003 51.1418 15.5002 50.0373L15.5 38.5402C15.5 37.8311 15.8754 37.175 16.4868 36.8157L25.8422 31.3189C29.1181 27.6858 30.7185 22.8683 31.0007 18.3695C31.0423 17.7062 31.4106 17.107 31.9836 16.7703L46.441 8.27563C46.7481 8.09516 47.0979 8 47.4541 8H58.4155C59.5201 8 60.4155 8.89539 60.4155 9.99993L60.4161 26.2072H71.2253ZM58.4161 28.2072L58.4155 10H47.4541L32.9968 18.4947C32.687 23.4337 30.9016 28.8248 27.1138 32.8914L17.5 38.5401L17.5002 50.0372H27.117V71.2363C27.117 81.1738 31.5349 86.7595 38.2088 88.9311C39.0042 89.19 39.8316 89.4003 40.6874 89.5638C42.2252 89.8574 43.8546 89.9996 45.5544 89.9996L57.2715 90L71.7291 81.505V67.4433H65.5135C63.8858 67.4433 62.4855 67.1763 61.3693 66.5558C60.988 66.3438 60.6398 66.0906 60.327 65.7927C59.0986 64.6226 58.4161 62.763 58.4161 60.0063V49.0686L71.2253 41.5422V28.2072H58.4161Z" fill="black"/>
<g id="Extrusion">
<path id="Bottom Edge" fill-rule="evenodd" clip-rule="evenodd" d="M41.5745 41.5424V62.7417L27.117 71.2364V50.0371L41.5745 41.5424ZM60.0114 81.5047H71.7288L57.2713 89.9994H45.5542L45.554 89.9996C34.9706 89.9996 27.117 84.4861 27.117 71.2365L41.5745 62.7418C41.5745 75.9912 49.4279 81.5048 60.0112 81.5049L60.0114 81.5047Z" fill="url(#paint0_linear_964_7955)"/>
<path id="Right Under" d="M58.4161 41.5423H71.2254L56.7679 50.037H43.9586L58.4161 41.5423Z" fill="url(#paint1_linear_964_7955)"/>
<path id="Left Top" d="M47.4543 10C47.044 16.5415 44.0451 23.8762 37.2339 27.8761L22.7842 36.3662C29.5899 32.3653 32.5867 25.0337 32.9968 18.4947L47.4543 10Z" fill="url(#paint2_linear_964_7955)"/>
<path id="Left Under" d="M31.9575 41.5423H41.5749L27.1174 50.037H17.5L31.9575 41.5423Z" fill="url(#paint3_linear_964_7955)"/>
<path id="Left Side" d="M31.9575 30.0455V41.5427L17.5 50.0374V38.5402L31.9575 30.0455Z" fill="url(#paint4_linear_964_7955)"/>
</g>
<path id="Surface" d="M60.0545 81.505C49.471 81.505 41.6175 75.9914 41.6175 62.7419V41.5425H32V30.0453C42.5834 27.2672 46.9932 18.0352 47.4971 10H58.4585V28.2075H71.2678V41.5425H58.4585V60.0065C58.4585 65.52 61.1884 67.4433 65.5562 67.4433H71.7718V81.505H60.0545Z" fill="url(#paint5_linear_964_7955)"/>
</g>
<defs>
<linearGradient id="paint0_linear_964_7955" x1="31.3257" y1="11.3498" x2="35.6722" y2="89.1161" gradientUnits="userSpaceOnUse">
<stop stop-color="#53CCFF"/>
<stop offset="0.338542" stop-color="#8EB9FE"/>
<stop offset="1" stop-color="#E7B5F4"/>
</linearGradient>
<linearGradient id="paint1_linear_964_7955" x1="57.592" y1="41.5423" x2="57.592" y2="50.037" gradientUnits="userSpaceOnUse">
<stop stop-color="#679EF0"/>
<stop offset="1" stop-color="#72DAFC"/>
</linearGradient>
<linearGradient id="paint2_linear_964_7955" x1="35.1153" y1="10" x2="35.1153" y2="36.3708" gradientUnits="userSpaceOnUse">
<stop offset="0.114583" stop-color="#FFA0F8"/>
<stop offset="0.395833" stop-color="#48D1FF"/>
<stop offset="1" stop-color="#A6DBFD"/>
</linearGradient>
<linearGradient id="paint3_linear_964_7955" x1="19.7712" y1="36.2495" x2="20.0194" y2="49.9202" gradientUnits="userSpaceOnUse">
<stop stop-color="#53CCFF"/>
<stop offset="0.338542" stop-color="#8EB9FE"/>
<stop offset="1" stop-color="#E7B5F4"/>
</linearGradient>
<linearGradient id="paint4_linear_964_7955" x1="-23.172" y1="84.739" x2="44.7718" y2="59.8538" gradientUnits="userSpaceOnUse">
<stop stop-color="#FFE0FB"/>
<stop offset="0.65625" stop-color="#C4DDFE"/>
<stop offset="1" stop-color="#86B8FE"/>
</linearGradient>
<linearGradient id="paint5_linear_964_7955" x1="96.3368" y1="121.989" x2="-2.40588" y2="66.5684" gradientUnits="userSpaceOnUse">
<stop stop-color="#D0EFFF"/>
<stop offset="0.375" stop-color="#FFE7F6"/>
<stop offset="1" stop-color="#9CE8FF"/>
</linearGradient>
</defs>
</svg>
