<svg width="56" height="56" viewBox="0 0 56 56" fill="none" xmlns="http://www.w3.org/2000/svg">
<path d="M24.7889 4.84768C26.7802 3.71744 29.2198 3.71744 31.2111 4.84768L46.7111 13.6457C48.7441 14.7996 50 16.9556 50 19.2915V36.7085C50 39.0444 48.7441 41.2004 46.7111 42.3543L31.2111 51.1523C29.2198 52.2826 26.7802 52.2826 24.7889 51.1523L9.28894 42.3543C7.25592 41.2004 6 39.0444 6 36.7085V19.2915C6 16.9556 7.25592 14.7996 9.28894 13.6457L24.7889 4.84768Z" fill="url(#paint0_linear_625_14753)"/>
<path fill-rule="evenodd" clip-rule="evenodd" d="M45.2302 16.2547L29.7302 7.45669C28.6574 6.84777 27.3426 6.84777 26.2698 7.45669L10.7698 16.2547C9.67488 16.8762 9 18.0362 9 19.2915V36.7085C9 37.9638 9.67489 39.1238 10.7698 39.7453L26.2698 48.5433C27.3426 49.1522 28.6574 49.1522 29.7302 48.5433L45.2302 39.7453C46.3251 39.1238 47 37.9638 47 36.7085V19.2915C47 18.0362 46.3251 16.8762 45.2302 16.2547ZM31.2111 4.84768C29.2198 3.71744 26.7802 3.71744 24.7889 4.84768L9.28894 13.6457C7.25592 14.7996 6 16.9556 6 19.2915V36.7085C6 39.0444 7.25592 41.2004 9.28894 42.3543L24.7889 51.1523C26.7802 52.2826 29.2198 52.2826 31.2111 51.1523L46.7111 42.3543C48.7441 41.2004 50 39.0444 50 36.7085V19.2915C50 16.9556 48.7441 14.7996 46.7111 13.6457L31.2111 4.84768Z" fill="#814E23"/>
<path d="M26.5075 9.356C27.4319 8.82583 28.5681 8.82583 29.4925 9.356L43.4925 17.3854C44.4249 17.9202 45 18.9129 45 19.9878V36.0122C45 37.0871 44.4249 38.0798 43.4925 38.6146L29.4925 46.644C28.5681 47.1741 27.4319 47.1741 26.5075 46.644L12.5075 38.6146C11.5751 38.0798 11 37.0871 11 36.0122V19.9878C11 18.9129 11.5751 17.9202 12.5075 17.3854L26.5075 9.356Z" fill="url(#paint1_linear_625_14753)"/>
<path fill-rule="evenodd" clip-rule="evenodd" d="M42.4975 19.1203L28.4975 11.0909C28.1894 10.9142 27.8106 10.9142 27.5025 11.0909L13.5025 19.1203C13.1917 19.2986 13 19.6295 13 19.9878V36.0122C13 36.3705 13.1917 36.7014 13.5025 36.8797L27.5025 44.9091C27.8106 45.0858 28.1894 45.0858 28.4975 44.9091L42.4975 36.8797C42.8083 36.7014 43 36.3705 43 36.0122V19.9878C43 19.6295 42.8083 19.2986 42.4975 19.1203ZM29.4925 9.356C28.5681 8.82583 27.4319 8.82583 26.5075 9.356L12.5075 17.3854C11.5751 17.9202 11 18.9129 11 19.9878V36.0122C11 37.0871 11.5751 38.0798 12.5075 38.6146L26.5075 46.644C27.4319 47.1741 28.5681 47.1741 29.4925 46.644L43.4925 38.6146C44.4249 38.0798 45 37.0871 45 36.0122V19.9878C45 18.9129 44.4249 17.9202 43.4925 17.3854L29.4925 9.356Z" fill="url(#paint2_linear_625_14753)"/>
<g filter="url(#filter0_i_625_14753)">
<path d="M34 39H29.8667C26.1487 39 23.378 37.1427 23.378 32.7006V25.5861H20V21.7331C23.7173 20.7966 25.2727 17.6906 25.4513 15H29.3113V20.9753H33.816V25.6667H29.312V31.7811C29.312 33.6377 30.2773 34.2797 31.814 34.2797H33.9947L34 39Z" fill="url(#paint3_linear_625_14753)"/>
</g>
<path fill-rule="evenodd" clip-rule="evenodd" d="M34.7075 39.7067C34.5199 39.8945 34.2654 40 34 40H29.8667C27.8556 40 25.9656 39.4984 24.5671 38.2665C23.1466 37.0151 22.378 35.1387 22.378 32.7006V26.5861H20C19.4477 26.5861 19 26.1384 19 25.5861V21.7331C19 21.2749 19.3114 20.8753 19.7557 20.7634C22.937 19.9619 24.2948 17.3237 24.4535 14.9337C24.4884 14.4083 24.9248 14 25.4513 14H29.3113C29.8636 14 30.3113 14.4477 30.3113 15V19.9753H33.816C34.3683 19.9753 34.816 20.423 34.816 20.9753V25.6667C34.816 26.219 34.3683 26.6667 33.816 26.6667H30.312V31.7811C30.312 32.5456 30.5081 32.8496 30.6581 32.9854C30.8277 33.1391 31.1593 33.2797 31.814 33.2797H33.9947C34.5465 33.2797 34.994 33.7267 34.9947 34.2785L35 38.9989C35.0003 39.2643 34.8951 39.5189 34.7075 39.7067ZM29.312 25.6667H33.816V20.9753H29.3113V15H25.4513C25.2727 17.6906 23.7173 20.7966 20 21.7331V25.5861H23.378V32.7006C23.378 37.1427 26.1487 39 29.8667 39H34L33.9947 34.2797H31.814C30.2773 34.2797 29.312 33.6377 29.312 31.7811V25.6667Z" fill="url(#paint4_linear_625_14753)"/>
<path d="M45.0001 29.9999C45.0001 33.2439 43.7807 35.9999 41.0001 35.9999C43.7807 35.9999 45.0001 38.7559 45.0001 41.9999C45.0001 38.7559 46.2196 35.9999 49.0001 35.9999C46.2196 35.9999 45.0001 33.2439 45.0001 29.9999Z" fill="white"/>
<path d="M11 12C11 15.244 9.78057 18 7 18C9.78057 18 11 20.756 11 24C11 20.756 12.2194 18 15 18C12.2194 18 11 15.244 11 12Z" fill="white"/>
<defs>
<filter id="filter0_i_625_14753" x="20" y="15" width="14" height="25" filterUnits="userSpaceOnUse" color-interpolation-filters="sRGB">
<feFlood flood-opacity="0" result="BackgroundImageFix"/>
<feBlend mode="normal" in="SourceGraphic" in2="BackgroundImageFix" result="shape"/>
<feColorMatrix in="SourceAlpha" type="matrix" values="0 0 0 0 0 0 0 0 0 0 0 0 0 0 0 0 0 0 127 0" result="hardAlpha"/>
<feOffset dy="2"/>
<feGaussianBlur stdDeviation="0.5"/>
<feComposite in2="hardAlpha" operator="arithmetic" k2="-1" k3="1"/>
<feColorMatrix type="matrix" values="0 0 0 0 0 0 0 0 0 0 0 0 0 0 0 0 0 0 0.08 0"/>
<feBlend mode="normal" in2="shape" result="effect1_innerShadow_625_14753"/>
</filter>
<linearGradient id="paint0_linear_625_14753" x1="23.7661" y1="5.80005" x2="35.2524" y2="47.5264" gradientUnits="userSpaceOnUse">
<stop stop-color="#FAC565"/>
<stop offset="0.645833" stop-color="#A06428"/>
<stop offset="1" stop-color="#9F602D"/>
</linearGradient>
<linearGradient id="paint1_linear_625_14753" x1="18.9516" y1="14.3222" x2="36.7661" y2="41.5061" gradientUnits="userSpaceOnUse">
<stop stop-color="#794921"/>
<stop offset="0.223958" stop-color="#AD7132"/>
<stop offset="0.578125" stop-color="#F3BE62"/>
<stop offset="1" stop-color="#AD7132"/>
</linearGradient>
<linearGradient id="paint2_linear_625_14753" x1="19.5" y1="14.5422" x2="37.9127" y2="41.7041" gradientUnits="userSpaceOnUse">
<stop stop-color="#A06428"/>
<stop offset="1" stop-color="#FAC565"/>
</linearGradient>
<linearGradient id="paint3_linear_625_14753" x1="27" y1="15" x2="27" y2="39" gradientUnits="userSpaceOnUse">
<stop stop-color="#814E23"/>
</linearGradient>
<linearGradient id="paint4_linear_625_14753" x1="24.5" y1="17.5" x2="32.5" y2="38.5" gradientUnits="userSpaceOnUse">
<stop stop-color="#FAC465"/>
<stop offset="1" stop-color="#A16528"/>
</linearGradient>
</defs>
</svg>
