<svg width="22" height="22" viewBox="0 0 22 22" fill="none" xmlns="http://www.w3.org/2000/svg">
<g clip-path="url(#clip0_185_6048)">
<path d="M11 20C15.9706 20 20 15.9706 20 11C20 10.734 19.9885 10.4706 19.9658 10.2105C19.9115 9.5847 20.3749 9 21.0031 9V9C21.4755 9 21.8854 9.33713 21.936 9.80689C21.9783 10.1988 22 10.5969 22 11C22 17.0751 17.0751 22 11 22C8.30033 22 5.8278 21.0275 3.91366 19.4136C3.56777 19.122 3 19.3554 3 19.8078V21C3 21.5523 2.55228 22 2 22V22C1.44772 22 1 21.5523 1 21V16C1 15.4477 1.44772 15 2 15H7C7.55228 15 8 15.4477 8 16V16C8 16.5523 7.55228 17 7 17H5.41021C4.97798 17 4.76143 17.5012 5.08718 17.7853C6.66864 19.1646 8.73676 20 11 20Z" fill="white"/>
<path d="M11 2C13.2632 2 15.3314 2.8354 16.9128 4.21466C17.2386 4.49876 17.022 5 16.5898 5H15C14.4477 5 14 5.44772 14 6V6C14 6.55228 14.4477 7 15 7H20C20.5523 7 21 6.55228 21 6V1C21 0.447715 20.5523 0 20 0V0C19.4477 0 19 0.447715 19 0.999999V2.19215C19 2.64457 18.4322 2.878 18.0863 2.58637C16.1722 0.972536 13.6997 0 11 0C4.92487 0 0 4.92487 0 11C0 11.4031 0.0216865 11.8012 0.0639567 12.1931C0.114624 12.6629 0.524466 13 0.996949 13V13C1.62507 13 2.08854 12.4153 2.03415 11.7895C2.01154 11.5294 2 11.266 2 11C2 6.02944 6.02944 2 11 2Z" fill="white"/>
</g>
<defs>
<clipPath id="clip0_185_6048">
<rect width="22" height="22" fill="white"/>
</clipPath>
</defs>
</svg>
