<svg width="151" height="137" viewBox="0 0 151 137" fill="none" xmlns="http://www.w3.org/2000/svg">
<path fill-rule="evenodd" clip-rule="evenodd" d="M11.1415 36.7969L11.1415 42.2428H8.6772C6.93887 42.2428 2.63485 42.7087 0.714239 46.8516C-1.18278 50.9437 1.16522 54.5447 2.37108 56.0307L11.1415 66.9752L11.1415 83.0611C11.1415 90.9049 16.1093 96.915 22.4739 99.311C23.0892 102.642 25.0362 105.625 27.9262 107.539L69.2079 134.879C73.6172 137.799 79.3873 137.696 83.6878 134.62L121.861 107.316C124.37 105.522 126.106 102.904 126.804 99.9777C133.998 98.0793 139.858 91.7038 139.858 83.1796V77.7337H142.323C144.061 77.7337 148.365 77.2677 150.286 73.1248C152.183 69.0331 149.835 65.4323 148.629 63.9461L139.858 53.0013V42.6229C139.858 42.3585 139.849 42.0953 139.83 41.8339C139.849 41.5725 139.858 41.3093 139.858 41.0449V36.9386C139.858 28.5406 134.178 22.2415 127.146 20.2349V15.7864C127.146 8.81151 121.454 3.15728 114.433 3.15728L74.7054 0L34.978 3.15728C27.9569 3.15728 22.2652 8.81151 22.2652 15.7864V20.6267C15.9977 23.076 11.1415 29.0456 11.1415 36.7969Z" fill="#01CF35"/>
</svg>
