<svg width="22" height="22" viewBox="0 0 22 22" fill="none" xmlns="http://www.w3.org/2000/svg">
<path d="M8.07019 9.57143C10.3484 9.57143 12.1952 7.65265 12.1952 5.28571C12.1952 2.91878 10.3484 1 8.07019 1C5.79201 1 3.94519 2.91878 3.94519 5.28571C3.94519 7.65265 5.79201 9.57143 8.07019 9.57143Z" fill="white"/>
<path d="M15.7814 9.57143C17.234 9.57143 18.4116 8.29224 18.4116 6.71429C18.4116 5.13633 17.234 3.85714 15.7814 3.85714C14.3288 3.85714 13.1512 5.13633 13.1512 6.71429C13.1512 8.29224 14.3288 9.57143 15.7814 9.57143Z" fill="white"/>
<path d="M17.7139 16.0841C17.7927 16.2953 17.8524 16.5058 17.8943 16.7143H19.9194C21.3243 16.7143 22.5077 15.3478 21.7774 13.9998C20.8097 12.2134 18.9166 11 16.7395 11C15.9318 11 15.1631 11.167 14.4663 11.4684C15.9269 12.7052 17.0593 14.3309 17.7139 16.0841Z" fill="white"/>
<path d="M8.25 11C4.53468 11 1.36588 14.0727 0.136904 17.7457C-0.437663 19.4629 0.883283 21 2.47735 21H14.0226C15.6167 21 16.9377 19.4629 16.3631 17.7457C15.1341 14.0727 11.9653 11 8.25 11Z" fill="white"/>
</svg>
