<svg width="20" height="22" viewBox="0 0 20 22" fill="none" xmlns="http://www.w3.org/2000/svg">
<path d="M19.55 8.61699L10.567 0.656996C10.4099 0.554625 10.2265 0.500122 10.039 0.500122C9.85151 0.500122 9.66807 0.554625 9.511 0.656996L0.528 8.61699C0.211 8.82699 0 9.246 0 9.56V20.872C0 21.186 0.317 21.5 0.634 21.5H6.34V15.111C6.34 14.587 6.763 14.168 7.292 14.168H12.681C13.209 14.168 13.632 14.588 13.632 15.111V21.5H19.338C19.655 21.5 19.973 21.186 19.973 20.872V9.56C20.078 9.246 19.867 8.72199 19.55 8.61699" fill="white"/>
</svg>
