<svg width="48" height="48" viewBox="0 0 48 48" fill="none" xmlns="http://www.w3.org/2000/svg">
<ellipse cx="16.75" cy="12.7502" rx="2.25" ry="2.25" fill="#E8D73A"/>
<path d="M30.2367 9.06839C30.2396 9.05382 30.2604 9.05382 30.2633 9.06839L30.6606 11.1155C31.4769 15.3203 34.4441 18.7861 38.473 20.2404C38.4821 20.2437 38.4821 20.2566 38.473 20.2599C34.4441 21.7142 31.4769 25.1799 30.6606 29.3847L30.2633 31.4319C30.2604 31.4464 30.2396 31.4464 30.2367 31.4319L29.8394 29.3847C29.0231 25.1799 26.0559 21.7142 22.027 20.2599C22.0179 20.2566 22.0179 20.2437 22.027 20.2404C26.0559 18.7861 29.0231 15.3203 29.8394 11.1155L30.2367 9.06839Z" fill="#E8D73A" stroke="#E8D73A" stroke-width="2"/>
<path d="M16.7372 22.5589C16.7402 22.5452 16.7598 22.5452 16.7628 22.5589L16.9826 23.574C17.7132 26.9474 20.1837 29.6771 23.4676 30.7395C23.4778 30.7428 23.4778 30.7572 23.4676 30.7605C20.1837 31.8229 17.7132 34.5526 16.9826 37.926L16.7628 38.9411C16.7598 38.9548 16.7402 38.9548 16.7372 38.9411L16.5174 37.926C15.7868 34.5526 13.3163 31.8229 10.0324 30.7605C10.0222 30.7572 10.0222 30.7428 10.0324 30.7395C13.3163 29.6771 15.7868 26.9474 16.5174 23.574L16.7372 22.5589Z" fill="#E8D73A" stroke="#E8D73A" stroke-width="2"/>
</svg>
