<svg width="48" height="48" viewBox="0 0 48 48" fill="none" xmlns="http://www.w3.org/2000/svg">
<path d="M22.3995 22.6162C24.9353 15.9081 23.4029 10.5736 17.8023 6.61286C17.3707 6.30767 16.7684 6.55671 16.6351 7.06818C16.1589 8.89494 14.9633 12.6784 12.699 15.3308C9.67773 18.87 6 21.5805 6 26.358C6 31.814 8.12102 36.5538 13.0127 39.2613C13.556 39.5619 14.1632 39.0598 14.0498 38.4494C13.5675 35.8534 13.7127 33.8352 14.8332 31.6703C15.1655 31.0281 16.1301 31.3186 16.4331 31.9752C17.2892 33.8303 19.575 33.9547 23.2904 35.783C23.4774 35.875 23.6989 35.8886 23.8935 35.8141C32.5821 32.4891 35.8589 25.8666 30.054 18.6002C29.7524 18.2227 29.1776 18.2524 28.8867 18.6381C26.8218 21.3765 25.0126 22.9295 23.1694 23.5405C22.6231 23.7216 22.196 23.1546 22.3995 22.6162Z" fill="#FF4930"/>
<path d="M31.1852 24.6668C32.6444 22.103 33.3408 19.5713 33.1896 17.0894C33.0245 14.3808 31.8567 11.8476 29.7867 9.50071C28.909 8.50564 27.4156 8.87484 26.8979 9.91228C26.1327 11.4457 24.5162 14.2675 22.3387 15.9908C21.7008 16.4957 21.0492 16.9648 20.386 17.4423C20.2315 17.5535 20.0764 17.6652 19.9207 17.7779C19.1081 18.366 18.2863 18.9766 17.5324 19.6496C16.009 21.0096 14.7207 22.6616 14.2165 25.0339C13.1587 30.0103 14.0734 34.8932 17.9407 38.4445C18.5012 38.9593 19.241 38.9953 19.8103 38.7178C20.3631 38.4484 20.7737 37.8816 20.8015 37.1878C20.8722 35.426 21.2012 34.1114 21.966 32.8916C22.2627 35.8197 23.9222 38.483 26.7359 40.8838C27.1239 41.2148 27.645 41.3603 28.1547 41.2683C36.7382 39.7188 41.8131 30.7084 38.0968 22.5023C37.5851 21.3723 36.1838 21.2288 35.3692 21.9508C33.6843 23.444 32.3367 24.2872 31.1852 24.6668Z" fill="#FF4930" stroke="#001935" stroke-width="2"/>
</svg>
