<svg width="48" height="48" viewBox="0 0 48 48" fill="none" xmlns="http://www.w3.org/2000/svg">
<path fill-rule="evenodd" clip-rule="evenodd" d="M36.7279 12.7688C29.6985 5.74372 18.3015 5.74372 11.2721 12.7688C5.2642 18.773 4.3911 27.9656 8.65278 34.8965C8.65431 34.899 8.65759 34.8997 8.66 34.8981C8.66234 34.8965 8.66552 34.8971 8.6671 34.8994L9.86569 36.6764C10.1745 37.1343 10.7961 37.2551 11.2539 36.9463L16.094 33.6816C16.5519 33.3728 16.6727 32.7512 16.3639 32.2934L15.6522 31.2382C15.3433 30.7804 14.7218 30.6595 14.2639 30.9684L12.1886 32.3682C11.7111 32.6902 11.0579 32.5445 10.8019 32.0287C9.2104 28.8217 8.86117 25.1554 9.75423 21.7468C9.90794 21.1601 10.5697 20.895 11.1101 21.1703L12.7558 22.0088C13.2478 22.2596 13.85 22.0639 14.1007 21.5718L14.6786 20.4378C14.9293 19.9457 14.7336 19.3436 14.2415 19.0928L12.4748 18.1926C11.9519 17.9262 11.7676 17.2668 12.1149 16.7938C12.5544 16.1954 13.0448 15.6227 13.5862 15.0816C15.7615 12.9076 18.448 11.5559 21.2589 11.0264C21.8446 10.9161 22.3636 11.3825 22.3636 11.9785V13.0455C22.3636 13.5977 22.8114 14.0455 23.3636 14.0455H24.6364C25.1886 14.0455 25.6364 13.5977 25.6364 13.0455V11.9785C25.6364 11.3825 26.1554 10.9161 26.7411 11.0264C29.552 11.5559 32.2385 12.9076 34.4138 15.0816C34.9552 15.6227 35.4456 16.1954 35.8851 16.7938C36.2325 17.2668 36.0481 17.9262 35.5252 18.1926L33.7585 19.0928C33.2664 19.3436 33.0707 19.9457 33.3214 20.4378L33.8992 21.5718C34.15 22.0639 34.7522 22.2596 35.2442 22.0088L36.8899 21.1703C37.4303 20.895 38.0921 21.1601 38.2458 21.7468C39.1291 25.1183 38.797 28.742 37.2496 31.9239C36.9964 32.4444 36.3397 32.5936 35.8598 32.2699L33.9298 30.9681C33.4719 30.6593 32.8504 30.7801 32.5416 31.2379L31.8299 32.2931C31.521 32.7509 31.6419 33.3725 32.0997 33.6813L36.8111 36.8592C37.269 37.168 37.8905 37.0472 38.1993 36.5893L39.4685 34.7077C39.4695 34.7063 39.4691 34.7044 39.4677 34.7034C39.4663 34.7025 39.4659 34.7007 39.4667 34.6993C43.5919 27.792 42.679 18.7162 36.7279 12.7688ZM26.9574 28.9209C26.9119 29.0936 26.9172 29.2747 26.9497 29.4503C26.9827 29.6286 27 29.8123 27 30.0001C27 31.657 25.6569 33.0001 24 33.0001C22.3431 33.0001 21 31.657 21 30.0001C21 29.0505 21.4413 28.2039 22.13 27.6542C22.2724 27.5405 22.397 27.4037 22.4757 27.2393L28.8856 13.843C29.4093 12.7485 31.0641 13.3565 30.7545 14.5297L26.9574 28.9209Z" fill="url(#paint0_linear_975_3084)"/>
<defs>
<linearGradient id="paint0_linear_975_3084" x1="6" y1="7.5" x2="42" y2="7.5" gradientUnits="userSpaceOnUse">
<stop stop-color="#E8D73A"/>
<stop offset="0.545" stop-color="#FF8A00"/>
<stop offset="1" stop-color="#FF4930"/>
</linearGradient>
</defs>
</svg>
