<svg width="48" height="48" viewBox="0 0 48 48" fill="none" xmlns="http://www.w3.org/2000/svg">
<path d="M14.0834 9.83325C10.9538 9.83325 8.41675 12.3703 8.41675 15.4999V32.4999C8.41675 35.6295 10.9538 38.1666 14.0834 38.1666H15.5001C16.2825 38.1666 16.9167 37.5323 16.9167 36.7499V11.2499C16.9167 10.4675 16.2825 9.83325 15.5001 9.83325H14.0834Z" fill="#FF61CE"/>
<path d="M21.1667 9.83325C20.3843 9.83325 19.7501 10.4675 19.7501 11.2499V36.7499C19.7501 37.5323 20.3843 38.1666 21.1667 38.1666H26.8334C27.6158 38.1666 28.2501 37.5323 28.2501 36.7499V11.2499C28.2501 10.4675 27.6158 9.83325 26.8334 9.83325H21.1667Z" fill="#FF61CE"/>
<path d="M32.5001 9.83325C31.7177 9.83325 31.0834 10.4675 31.0834 11.2499V36.7499C31.0834 37.5323 31.7177 38.1666 32.5001 38.1666H33.9167C37.0464 38.1666 39.5834 35.6295 39.5834 32.4999V15.4999C39.5834 12.3703 37.0464 9.83325 33.9167 9.83325H32.5001Z" fill="#FF61CE"/>
</svg>
