<svg width="48" height="48" viewBox="0 0 48 48" fill="none" xmlns="http://www.w3.org/2000/svg">
<circle cx="26" cy="26" r="17" fill="#01CF35"/>
<circle cx="22.9375" cy="22.9375" r="17.9375" fill="#01CF35" stroke="#001935" stroke-width="2" stroke-linejoin="round"/>
<path fill-rule="evenodd" clip-rule="evenodd" d="M26.111 32.3545L28.9613 31.972C29.2068 31.9391 29.379 31.7132 29.3458 31.4677L28.9386 28.4579C28.9054 28.2128 28.68 28.0409 28.4349 28.0738L27.1402 28.2475C25.9152 28.4119 25.0745 27.9849 24.8688 26.4515L24.8194 26.084C24.7865 25.8387 24.9587 25.6131 25.204 25.5802L27.8862 25.2203C28.1316 25.1874 28.3038 24.9618 28.2708 24.7165L27.9654 22.44C27.9325 22.1946 27.7069 22.0225 27.4616 22.0554L24.7794 22.4153C24.534 22.4482 24.3085 22.276 24.2756 22.0307L24.2418 21.7791C24.2089 21.5337 24.3811 21.3082 24.6264 21.2753L27.3285 20.9127C27.5738 20.8798 27.746 20.6542 27.7131 20.4089L27.3361 17.5993C27.3032 17.354 27.0776 17.1818 26.8323 17.2147L24.1297 17.5773C23.8843 17.6102 23.6588 17.4381 23.6259 17.1927L23.0681 13.0357C23.0352 12.7904 22.8096 12.6182 22.5643 12.6511L20.348 12.9485C20.1137 12.98 19.9457 13.188 19.948 13.4244C19.9683 15.4898 19.0906 17.8502 16.6491 19.0086C16.4649 19.096 16.3508 19.2896 16.3779 19.4917L16.6993 21.8867C16.7322 22.1321 16.9578 22.3042 17.2031 22.2713L19.0076 22.0292C19.2529 21.9963 19.4784 22.1685 19.5114 22.4138L19.5451 22.6654C19.578 22.9107 19.4058 23.1363 19.1605 23.1692L17.3561 23.4113C17.1107 23.4443 16.9385 23.6698 16.9715 23.9151L17.2769 26.1917C17.3098 26.437 17.5354 26.6092 17.7807 26.5762L19.5852 26.3341C19.8305 26.3012 20.0561 26.4734 20.089 26.7187L20.2402 27.8457C20.7325 31.5145 23.147 32.7522 26.111 32.3545Z" fill="white"/>
</svg>
