<svg width="21" height="22" viewBox="0 0 21 22" fill="none" xmlns="http://www.w3.org/2000/svg">
<path d="M7.55075 20.8406C7.4493 20.8406 7.34785 20.7391 7.34785 20.7391C6.73916 20.4348 6.43481 19.8261 6.63771 19.2174L8.86959 13.3333H5.31887C5.21742 13.3333 5.01452 13.3333 4.91307 13.2319C4.50727 13.1304 4.30437 12.9275 4.10148 12.6232C3.89858 12.2174 3.89858 11.6087 4.30437 11.2029L13.029 1.56523C13.3334 1.15943 13.9421 0.956534 14.4493 1.15943C14.5508 1.15943 14.6522 1.26088 14.6522 1.26088C15.2609 1.56523 15.5652 2.17392 15.3623 2.78262L13.1305 8.15943H16.6812C16.7826 8.15943 16.9855 8.15943 17.087 8.26088C17.4928 8.36233 17.6957 8.76813 17.7971 9.07248C18 9.47827 18 10.087 17.5942 10.4928L8.86959 20.3333C8.66669 20.6377 8.2609 20.8406 7.8551 20.8406C7.8551 20.942 7.6522 20.942 7.55075 20.8406Z" fill="white"/>
</svg>
