<svg width="21" height="22" viewBox="0 0 21 22" fill="none" xmlns="http://www.w3.org/2000/svg">
<path d="M19.0826 3H1.91739C0.547826 3 0 3.63913 0 5.0087V16.4217C0 17.8826 0.547826 18.4304 1.91739 18.4304H19.0826C20.4522 18.4304 21 17.7913 21 16.4217V5.0087C21 3.63913 20.4522 3 19.0826 3ZM19.4478 15.4174C19.7217 15.6913 19.2652 16.1478 18.9913 16.4217C18.9 16.6043 18.7174 16.8783 18.5348 16.8783C18.3522 16.8783 18.3522 16.9696 18.2609 16.787L13.2391 12.2217L12.6913 12.6783C12.0522 13.2261 11.2304 13.6826 10.5 13.6826C9.67826 13.6826 8.94783 13.3174 8.3087 12.6783L7.76087 12.1304L3.01304 16.513C2.92174 16.6043 2.73913 16.6957 2.55652 16.6957C2.37391 16.6957 2.1913 16.6043 2.1 16.513C1.82609 16.2391 1.36957 15.6 1.64348 15.3261L6.3 10.8522L1.73478 6.28696C1.46087 6.01304 1.82609 5.55652 2.0087 5.28261C2.28261 5.0087 2.73913 4.91739 3.01304 5.1L9.13043 11.1261C9.49565 11.4913 9.95217 11.8565 10.4087 11.9478C10.9565 11.9478 11.413 11.5826 11.8696 11.1261L17.8957 5.0087C18.1696 4.73478 18.7174 5.0087 18.9913 5.28261C19.2652 5.55652 19.3565 6.19565 19.1739 6.37826L14.7 10.7609L19.4478 15.4174Z" fill="white"/>
</svg>
