<svg width="41" height="35" viewBox="0 0 41 35" fill="none" xmlns="http://www.w3.org/2000/svg">
<g clip-path="url(#clip0_1980_918)">
<path d="M0.763763 30H6.14838L7.87915 24.2308H16.9176L18.4561 30H24.033L15.3791 5H9.60992L0.763763 30ZM12.3022 10.5769L16.1484 20.3846H8.64838L12.3022 10.5769ZM39.033 24.2308V16.5385C39.033 14.4231 38.6484 12.8846 37.1099 12.1154C35.7638 11.1538 33.8407 10.7692 31.9176 10.7692C28.8407 10.7692 26.7253 11.5385 25.3791 13.0769C24.6099 14.0385 24.2253 15.3846 24.033 16.9231H28.6484C28.8407 16.1538 29.033 15.7692 29.4176 15.3846C29.8022 14.8077 30.5715 14.6154 31.7253 14.6154C32.6868 14.6154 33.4561 14.8077 34.033 15C34.6099 15.1923 34.8022 15.7692 34.8022 16.5385C34.8022 17.1154 34.4176 17.5 33.8407 17.8846C33.4561 18.0769 32.8791 18.2692 31.9176 18.2692L30.1868 18.4615C28.2638 18.6538 26.9176 19.0385 25.9561 19.6154C24.2253 20.5769 23.2638 22.1154 23.2638 24.4231C23.2638 26.1538 23.8407 27.5 24.8022 28.2692C25.9561 29.2308 27.3022 30 29.033 30C30.3791 30 31.3407 29.4231 32.3022 28.8462C33.0715 28.4615 33.8407 27.6923 34.6099 27.1154C34.6099 27.5 34.6099 27.8846 34.8022 28.2692C34.8022 28.6538 34.9945 29.8077 35.1868 30.1923H40.3791V28.6538C40.1868 28.4615 39.8022 28.2692 39.6099 28.0769C39.8022 27.5 39.033 24.8077 39.033 24.2308ZM34.8022 22.1154C34.8022 23.6538 34.2253 24.8077 33.4561 25.3846C32.6868 25.9615 31.533 26.3462 30.5715 26.3462C29.9945 26.3462 29.4176 26.1538 28.8407 25.7692C28.4561 25.3846 28.0715 24.8077 28.0715 24.0385C28.0715 23.0769 28.4561 22.5 29.2253 22.1154C29.6099 21.9231 30.3791 21.7308 31.3407 21.5385L32.4945 21.3462C33.0715 21.1538 33.4561 21.1538 33.8407 20.9615C34.2253 20.7692 34.4176 20.7692 34.8022 20.5769V22.1154Z" fill="black"/>
</g>
<defs>
<clipPath id="clip0_1980_918">
<rect width="40" height="35" fill="white" transform="translate(0.571442)"/>
</clipPath>
</defs>
</svg>
