<svg width="41" height="35" viewBox="0 0 41 35" fill="none" xmlns="http://www.w3.org/2000/svg">
<g clip-path="url(#clip0_1980_1110)">
<path d="M38.3952 18.2C37.9286 17.9667 37.2286 18.2 36.9952 18.4333L30.2286 23.5667C29.9952 23.8 29.9952 23.8 29.7619 23.8V18.6667H1.7619V25.6667H6.42857V33.1333C6.42857 34.0667 7.12857 35 8.29523 35H27.8952C29.0619 35 29.7619 34.0667 29.7619 33.1333V28C29.7619 28.2333 29.9952 28.4667 30.2286 28.4667L36.9952 33.6C37.4619 34.0667 37.9286 34.0667 38.3952 33.8333C38.8619 33.6 39.0952 33.1333 39.0952 32.6667V19.6C39.0952 19.1333 38.8619 18.4333 38.3952 18.2ZM8.29523 16.1C8.99523 16.1 10.1619 16.3333 10.8619 16.3333H23.6952C24.3952 16.3333 25.5619 16.1 26.0286 16.1C29.7619 15.4 32.5619 12.1333 32.5619 8.16667C32.5619 3.73333 28.8286 0 24.3952 0C21.5952 0 18.7952 1.4 17.3952 3.96667H17.1619C15.5286 1.4 12.9619 0 10.1619 0C5.49523 0 1.7619 3.73333 1.7619 8.16667C1.7619 12.1333 4.5619 15.1667 8.29523 16.1ZM22.7619 9.8C25.0952 9.8 26.9619 7.93333 26.9619 5.6V4.9C27.8952 5.6 28.3619 6.76667 28.3619 8.16667C28.3619 10.5 26.4952 12.3667 24.1619 12.3667C22.0619 12.3667 20.4286 10.9667 19.9619 8.86667C20.6619 9.56667 21.5952 9.8 22.7619 9.8ZM8.29523 10.0333C10.6286 10.0333 12.4952 8.16667 12.4952 5.83333V5.13333C13.4286 5.6 13.8952 6.76667 13.8952 8.16667C13.8952 10.5 12.0286 12.3667 9.69524 12.3667C7.59524 12.3667 5.9619 10.9667 5.49524 8.86667C6.19524 9.56667 7.12857 10.0333 8.29523 10.0333Z" fill="#FF61CE"/>
</g>
<defs>
<clipPath id="clip0_1980_1110">
<rect width="40" height="35" fill="white" transform="translate(0.428574)"/>
</clipPath>
</defs>
</svg>
