<svg fill="none" height="24" width="24" xmlns="http://www.w3.org/2000/svg" xmlns:xlink="http://www.w3.org/1999/xlink"><radialGradient id="a" cx="0" cy="0" gradientTransform="matrix(16.25 12.075 -86.05465 115.80848 4.5 8.58)" gradientUnits="userSpaceOnUse" r="1"><stop offset="0" stop-color="#53ccff"/><stop offset=".339" stop-color="#8eb9fe"/><stop offset="1" stop-color="#e7b5f4"/></radialGradient><mask id="b" fill="#000" height="19" maskUnits="userSpaceOnUse" width="22" x="1" y="3"><path d="m1 3h22v19h-22z" fill="#fff"/><path clip-rule="evenodd" d="m11.074 4h-5.449c-.002 0-.005 0-.007.002a.015.015 0 0 0 -.004.006.018.018 0 0 0 0 .015l2.008 4.033a.015.015 0 0 0 .004.005.011.011 0 0 0 .012.002.013.013 0 0 0 .004-.004l3.441-4.032a.016.016 0 0 0 .004-.008v-.01a.015.015 0 0 0 -.006-.006.012.012 0 0 0 -.007-.003zm1.843.027 3.44 4.032a.014.014 0 0 0 .006.004h.006a.012.012 0 0 0 .005-.002.014.014 0 0 0 .005-.005l2.007-4.033a.018.018 0 0 0 0-.015.015.015 0 0 0 -.004-.006.012.012 0 0 0 -.007-.002h-5.449c-.002 0-.005 0-.007.003a.015.015 0 0 0 -.005.007.018.018 0 0 0 .003.017zm-4.45 4.293 3.524-4.13a.013.013 0 0 1 .004-.003.01.01 0 0 1 .01 0l.004.003 3.525 4.13a.017.017 0 0 1 .003.016.015.015 0 0 1 -.005.007.011.011 0 0 1 -.007.002h-7.05c-.002 0-.005 0-.007-.002a.014.014 0 0 1 -.004-.007.017.017 0 0 1 -.001-.009l.003-.007zm-6.398.025h4.817c.002 0 .004 0 .006-.002a.014.014 0 0 0 .005-.005.017.017 0 0 0 0-.015l-1.984-3.985a.014.014 0 0 0 -.004-.005.01.01 0 0 0 -.011-.001.013.013 0 0 0 -.005.004l-2.834 3.985a.017.017 0 0 0 -.002.015.014.014 0 0 0 .005.007.011.011 0 0 0 .007.002zm17.038-4.01 2.834 3.987a.015.015 0 0 1 .003.007.015.015 0 0 1 0 .008.014.014 0 0 1 -.005.006.011.011 0 0 1 -.007.002h-4.819a.01.01 0 0 1 -.006-.002.013.013 0 0 1 -.004-.005.016.016 0 0 1 -.002-.007c0-.003 0-.005.002-.007l1.984-3.987a.014.014 0 0 1 .005-.004.011.011 0 0 1 .005-.002.01.01 0 0 1 .005 0l.005.005zm-8.095 15.708-3.72-10.828c-.005-.012-.013-.018-.026-.018h-5.254l-.006.001a.011.011 0 0 0 -.006.005.01.01 0 0 0 .001.011l8.999 10.834c.015.018.019.016.011-.005zm4.956-10.83-3.956 11.434a.013.013 0 0 1 -.012.008c-.003 0-.005 0-.008-.002a.013.013 0 0 1 -.004-.006l-3.956-11.435a.01.01 0 0 1 .002-.01.013.013 0 0 1 .005-.004.014.014 0 0 1 .006-.001h7.91l.006.001c.002 0 .003.002.005.004a.012.012 0 0 1 .002.005.01.01 0 0 1 0 .005zm.744-.01-3.724 10.836c-.008.026-.004.028.014.006l8.996-10.832a.009.009 0 0 0 .002-.005l-.001-.006a.011.011 0 0 0 -.004-.004.011.011 0 0 0 -.006-.001h-5.269a.009.009 0 0 0 -.008.005z" fill="#000" fill-rule="evenodd"/></mask><path clip-rule="evenodd" d="m11.074 4h-5.449c-.002 0-.005 0-.007.002a.015.015 0 0 0 -.004.006.018.018 0 0 0 0 .015l2.008 4.033a.015.015 0 0 0 .004.005.011.011 0 0 0 .012.002.013.013 0 0 0 .004-.004l3.441-4.032a.016.016 0 0 0 .004-.008v-.01a.015.015 0 0 0 -.006-.006.012.012 0 0 0 -.007-.003zm1.843.027 3.44 4.032a.014.014 0 0 0 .006.004h.006a.012.012 0 0 0 .005-.002.014.014 0 0 0 .005-.005l2.007-4.033a.018.018 0 0 0 0-.015.015.015 0 0 0 -.004-.006.012.012 0 0 0 -.007-.002h-5.449c-.002 0-.005 0-.007.003a.015.015 0 0 0 -.005.007.018.018 0 0 0 .003.017zm-4.45 4.293 3.524-4.13a.013.013 0 0 1 .004-.003.01.01 0 0 1 .01 0l.004.003 3.525 4.13a.017.017 0 0 1 .003.016.015.015 0 0 1 -.005.007.011.011 0 0 1 -.007.002h-7.05c-.002 0-.005 0-.007-.002a.014.014 0 0 1 -.004-.007.017.017 0 0 1 -.001-.009l.003-.007zm-6.398.025h4.817c.002 0 .004 0 .006-.002a.014.014 0 0 0 .005-.005.017.017 0 0 0 0-.015l-1.984-3.985a.014.014 0 0 0 -.004-.005.01.01 0 0 0 -.011-.001.013.013 0 0 0 -.005.004l-2.834 3.985a.017.017 0 0 0 -.002.015.014.014 0 0 0 .005.007.011.011 0 0 0 .007.002zm17.038-4.01 2.834 3.987a.015.015 0 0 1 .003.007.015.015 0 0 1 0 .008.014.014 0 0 1 -.005.006.011.011 0 0 1 -.007.002h-4.819a.01.01 0 0 1 -.006-.002.013.013 0 0 1 -.004-.005.016.016 0 0 1 -.002-.007c0-.003 0-.005.002-.007l1.984-3.987a.014.014 0 0 1 .005-.004.011.011 0 0 1 .005-.002.01.01 0 0 1 .005 0l.005.005zm-8.095 15.708-3.72-10.828c-.005-.012-.013-.018-.026-.018h-5.254l-.006.001a.011.011 0 0 0 -.006.005.01.01 0 0 0 .001.011l8.999 10.834c.015.018.019.016.011-.005zm4.956-10.83-3.956 11.434a.013.013 0 0 1 -.012.008c-.003 0-.005 0-.008-.002a.013.013 0 0 1 -.004-.006l-3.956-11.435a.01.01 0 0 1 .002-.01.013.013 0 0 1 .005-.004.014.014 0 0 1 .006-.001h7.91l.006.001c.002 0 .003.002.005.004a.012.012 0 0 1 .002.005.01.01 0 0 1 0 .005zm.744-.01-3.724 10.836c-.008.026-.004.028.014.006l8.996-10.832a.009.009 0 0 0 .002-.005l-.001-.006a.011.011 0 0 0 -.004-.004.011.011 0 0 0 -.006-.001h-5.269a.009.009 0 0 0 -.008.005z" fill="url(#a)" fill-rule="evenodd"/><path d="m5.625 4v-1h-.015zm5.449 0 .003-1h-.003zm-5.456.002.57.822zm-.004.006.9.436zm-.002.008-1 .002zm.002.007-.897.442.002.004zm2.008 4.033-.896.446.003.005.893-.45zm.004.005-.613.791.613-.79zm.016-.002.753.659.008-.01-.76-.649zm3.441-4.032.76.649.002-.002zm.004-.008-.986-.167zm0-.01.942-.332-.943.333zm-.006-.006.618-.787zm5.277 4.056-.761.65.008.009zm-3.441-4.032-.762.647.001.002.76-.65zm3.452 4.037-.153-.989zm.005-.003-.612-.79zm.005-.005.892.451.003-.005-.896-.446zm2.007-4.033.896.446.001-.003zm0-.015.9-.436v-.002l-.9.437zm-.004-.006-.57.822zm-.007-.002.015-1h-.015zm-5.449 0v-1h-.003zm-.007.003-.618-.787zm-.006.016.986-.167zm-.922.171.76.65a.756.756 0 0 0 .011-.013zm-3.525 4.13.75.662.011-.013-.76-.65zm3.53-4.133.444.896-.445-.896zm.009 0-.445.896zm.004.003-.771.637a.797.797 0 0 0 .01.013zm3.525 4.13-.761.65a.816.816 0 0 0 .011.012zm.003.007.985-.173zm0 .01.941.335-.942-.336zm-.012.008.027-1h-.027zm-7.05 0v-1h-.027zm-.011-.009-.942.336zm-.001-.009-.985-.173zm-1.577.018.01-1h-.01zm-4.817 0-.036 1a1 1 0 0 0 .036 0zm4.828-.022.897-.442-.002-.004zm-1.984-3.985.895-.446-.005-.01zm-.004-.005-.586.81zm-.006-.002.09-.996zm-.006 0 .444.897-.444-.896zm-.004.005-.815-.58zm-2.834 3.985-.815-.58-.01.016zm-.002.008-.995-.104zm0 .008.931-.367-.93.367zm19.884-.015-.815.58.004.004zm-2.834-3.986.815-.58-.007-.01zm2.837 3.993-.994.111zm0 .004-.99-.14zm0 .004.927.373-.928-.373zm-.005.006.592.806zm-.007.002.012-1h-.012zm-4.819 0v-1h-.017zm-.006-.002-.555.832zm-.006-.012 1 .009-1-.01zm.002-.007.89.457.005-.012zm1.984-3.987-.886-.462-.009.017zm.005-.004-.585-.812.584.812zm.005-.002-.094-.996zm.005 0 .436-.9zm-11.81 4.885.945-.325-.001-.004-.945.329zm3.72 10.828.946-.324v-.002zm-9.006-10.847-.494-.87zm-.006.006.879.478zm0 .006-.995.097.995-.096zm.002.005-.774.633.005.006.77-.639zm8.999 10.834.77-.638v-.001zm1.011.6.929.37a.98.98 0 0 0 .016-.044l-.945-.327zm3.956-11.436-.945-.329v.002zm-3.976 11.441.539-.843zm-.004-.006-.945.327a.98.98 0 0 0 .016.045zm-3.956-11.435.945-.327v-.002l-.945.33zm0-.005.984.18zm.002-.005-.774-.632.775.632zm.005-.004.41.912zm.006-.001-.015 1h.015zm7.91 0v1h.015zm.006.001-.41.912zm.005.004.775-.632zm.002.005-.983.18zm-2.98 10.832-.945-.325-.003.007zm3.724-10.837-.94-.343a.612.612 0 0 0 -.006.018zm-3.71 10.843-.769-.639-.002.002zm8.996-10.832-.75-.662a.834.834 0 0 0 -.02.023zm.001-.01.887-.462-.887.461zm-.004-.005-.501.866zm-.006-.001v1h.001v-1zm-5.269 0-.006 1h.006zm-.005.001.549.836zm-11.09-4.198h5.449v-2h-5.449zm.562-.176a.988.988 0 0 1 -.547.176l-.03-2c-.21.003-.404.071-.56.18zm.326-.38a.985.985 0 0 1 -.326.38l-1.137-1.644a1.015 1.015 0 0 0 -.335.391l1.8.873zm.099-.431c0 .144-.031.292-.099.431l-1.799-.873c-.07.144-.103.298-.102.447zm-.102-.433c.068.14.1.288.1.432l-2 .006c.001.149.035.302.106.446zm2.006 4.03-2.007-4.032-1.79.891 2.007 4.033 1.79-.891zm-.28-.34a.985.985 0 0 1 .277.334l-1.785.902c.063.126.157.246.284.345l1.225-1.581zm-.453-.196a.988.988 0 0 1 .453.195l-1.222 1.583c.128.1.286.172.464.2l.306-1.976zm-.51.056a.989.989 0 0 1 .51-.056l-.306 1.977c.18.028.359.006.522-.057l-.725-1.864zm-.385.27a.987.987 0 0 1 .385-.27l.727 1.865c.162-.063.295-.163.395-.277l-1.505-1.318zm3.433-4.024-3.438 4.034 1.52 1.299 3.442-4.033-1.521-1.299zm-.221.475a.984.984 0 0 1 .22-.473l1.524 1.295c.127-.149.2-.32.228-.489l-1.972-.332zm.042.49a.981.981 0 0 1 -.042-.49l1.972.333a1.018 1.018 0 0 0 -.044-.508l-1.886.666zm.32.447a.985.985 0 0 1 -.32-.446l1.886-.667a1.016 1.016 0 0 0 -.33-.46l-1.234 1.575zm.608.211a.988.988 0 0 1 -.607-.21l1.235-1.574a1.012 1.012 0 0 0 -.621-.215l-.006 2zm6.048 2.41-3.441-4.033-1.522 1.299 3.441 4.033 1.524-1.298zm-.393-.279a.987.987 0 0 1 .385.27l-1.506 1.317c.1.114.233.214.395.277zm-.51-.055a.989.989 0 0 1 .51.055l-.725 1.865c.163.063.343.085.522.057l-.306-1.976zm-.454.195a.988.988 0 0 1 .454-.196l.306 1.977c.178-.028.336-.1.465-.2zm-.276.334a.986.986 0 0 1 .276-.335l1.224 1.582c.128-.098.222-.22.285-.345zm2.005-4.027-2.007 4.033 1.79.89 2.009-4.032-1.79-.891zm-.103.435c0-.144.033-.293.101-.432l1.794.885c.071-.144.105-.298.105-.448zm.099.431a.982.982 0 0 1 -.099-.431l2 .005c0-.15-.032-.303-.102-.446l-1.8.872zm.326.38a.985.985 0 0 1 -.326-.38l1.799-.873a1.014 1.014 0 0 0 -.335-.391zm.548.177a.988.988 0 0 1 -.547-.176l1.137-1.644a1.012 1.012 0 0 0 -.56-.18l-.031 2zm-5.434 0h5.449v-2h-5.449zm.61-.21a.988.988 0 0 1 -.607.21l-.006-2c-.239 0-.455.085-.622.216l1.236 1.573zm.32-.447a.985.985 0 0 1 -.32.446l-1.235-1.573c-.164.13-.271.295-.33.46l1.886.667zm.043-.491a.982.982 0 0 1 -.042.49l-1.886-.665c-.059.165-.072.34-.044.508zm-.22-.473a.983.983 0 0 1 .22.473l-1.972.333c.029.168.101.34.228.49zm-2.449.162-3.524 4.13 1.521 1.298 3.525-4.13zm.32-.25c-.135.068-.245.16-.33.263l1.542 1.273c-.082.1-.19.19-.322.256zm.45-.105c-.16 0-.314.038-.45.106l.89 1.79a.99.99 0 0 1 -.44.104zm.45.106a1.01 1.01 0 0 0 -.45-.106v2a.99.99 0 0 1 -.44-.103zm.33.262a1.013 1.013 0 0 0 -.33-.263l-.89 1.792a.988.988 0 0 1 -.322-.256zm3.514 4.117-3.524-4.131-1.522 1.3 3.525 4.13 1.521-1.3zm.228.483a1.016 1.016 0 0 0 -.239-.496l-1.499 1.324a.984.984 0 0 1 -.232-.481zm-.044.518c.06-.168.074-.347.044-.518l-1.97.346a.984.984 0 0 1 .043-.5zm-.341.467c.17-.13.281-.298.341-.467l-1.883-.672a.986.986 0 0 1 .332-.453zm-.64.206c.243.006.466-.074.64-.206l-1.21-1.592a.989.989 0 0 1 .626-.202zm-7.022 0h7.05v-2h-7.05zm-.612-.206c.173.132.397.212.64.206l-.055-2a.989.989 0 0 1 .625.202zm-.341-.467c.06.169.17.337.341.467l1.21-1.592c.167.126.274.29.332.453zm-.044-.518c-.03.171-.016.35.044.518l1.883-.672a.983.983 0 0 1 .043.5zm.239-.496c-.133.15-.209.326-.239.496l1.97.347a.985.985 0 0 1 -.232.48l-1.5-1.323zm-.831-.313h-4.817v2h4.817v-2zm-.548.166a.989.989 0 0 1 .558-.166l-.02 2c.212.002.41-.062.57-.17l-1.107-1.664zm-.336.381c.07-.14.18-.278.336-.381l1.109 1.664c.159-.106.273-.246.345-.392l-1.79-.89zm-.103.437c0-.146.033-.296.103-.437l1.79.891c.072-.145.106-.3.107-.45zm.1.436a.983.983 0 0 1 -.1-.436l2 .003c0-.15-.034-.306-.105-.45l-1.794.882zm-1.98-3.982 1.983 3.987 1.79-.892-1.984-3.985-1.79.891zm.305.36a.986.986 0 0 1 -.3-.349l1.78-.913a1.014 1.014 0 0 0 -.308-.358zm.49.184a.989.989 0 0 1 -.49-.184l1.172-1.62a1.011 1.011 0 0 0 -.502-.188zm.528-.099a.99.99 0 0 1 -.528.099l.18-1.992a1.01 1.01 0 0 0 -.54.1zm.366-.312a.987.987 0 0 1 -.366.312l-.887-1.792c-.161.08-.287.194-.376.32l1.63 1.16zm-2.834 3.984 2.834-3.986-1.63-1.158-2.834 3.985zm.177-.469a.984.984 0 0 1 -.166.454l-1.651-1.13c-.1.148-.155.31-.172.469l1.99.207zm-.063-.462c.06.15.08.31.063.462l-1.989-.207c-.016.158.004.323.065.478zm-.313-.418a.986.986 0 0 1 .313.418l-1.86.733c.06.155.166.31.322.43l1.225-1.58zm-.57-.206a.989.989 0 0 1 .57.206l-1.225 1.582c.158.123.36.204.583.211l.071-1.998zm20.651.396-2.834-3.986-1.63 1.159 2.834 3.986zm.182.476a1.015 1.015 0 0 0 -.185-.48l-1.623 1.168a.984.984 0 0 1 -.18-.466zm-.004.256c.012-.086.013-.172.004-.257l-1.988.224a.983.983 0 0 1 .004-.248l1.98.28zm-.063.236c.031-.078.052-.158.063-.237l-1.98-.28a.99.99 0 0 1 .061-.229zm-.34.438c.165-.12.276-.279.34-.438l-1.856-.746a.987.987 0 0 1 .33-.427zm-.61.197a1.01 1.01 0 0 0 .61-.196l-1.185-1.612a.99.99 0 0 1 .598-.192l-.024 2zm-4.808 0h4.819v-2h-4.819zm-.56-.17c.162.109.363.174.577.17l-.034-2a.99.99 0 0 1 .566.166l-1.11 1.664zm-.348-.397c.072.147.186.29.347.397l1.11-1.664a.987.987 0 0 1 .338.387zm-.104-.456c-.001.152.032.31.104.456l1.795-.879c.07.142.101.294.1.442l-2-.018zm.112-.456a1.016 1.016 0 0 0 -.112.456l2 .017a.983.983 0 0 1 -.109.442zm1.98-3.974-1.986 3.986 1.79.891 1.986-3.986zm.314-.37c-.138.098-.239.223-.306.353l1.773.925a.987.987 0 0 1 -.298.344l-1.17-1.623zm.496-.187a1.011 1.011 0 0 0 -.496.186l1.169 1.623a.989.989 0 0 1 -.486.182zm.535.096a1.01 1.01 0 0 0 -.535-.096l.187 1.991a.99.99 0 0 1 -.523-.094l.87-1.8zm.377.315a1.012 1.012 0 0 0 -.377-.315l-.871 1.8a.987.987 0 0 1 -.368-.306l1.616-1.18zm-13.57 5.795 3.721 10.828 1.892-.65-3.72-10.828-1.892.65zm.921.657a.974.974 0 0 1 -.919-.653l1.889-.658a1.027 1.027 0 0 0 -.97-.69v2zm-5.254 0h5.254v-2h-5.254zm.487-.129a.988.988 0 0 1 -.487.129v-2c-.171 0-.344.043-.5.132l.987 1.74zm.38-.387a.99.99 0 0 1 -.38.387l-.987-1.74a1.011 1.011 0 0 0 -.39.397l1.758.956zm.116-.57a.99.99 0 0 1 -.115.57l-1.757-.956a1.01 1.01 0 0 0 -.118.581zm-.218-.53a.99.99 0 0 1 .218.53l-1.99.195c.02.205.101.391.223.54l1.549-1.264zm8.993 10.829-8.998-10.835-1.539 1.278 8.999 10.833 1.538-1.277zm-1.704.957c-.003-.009-.025-.072-.039-.16a.998.998 0 0 1 1.64-.902c.06.052.098.099.104.106l-1.54 1.275a1.08 1.08 0 0 0 .34.271 1.002 1.002 0 0 0 1.387-1.237zm2.891.608 3.956-11.435-1.89-.654-3.956 11.435zm-.411.522c.168-.108.312-.27.395-.477l-1.857-.743a.987.987 0 0 1 .385-.466zm-.546.16c.188 0 .379-.053.546-.16l-1.077-1.686a.986.986 0 0 1 .531-.155v2zm-.546-.16c.167.107.358.16.546.16v-2c.183 0 .368.05.531.154zm-.395-.477c.083.207.227.37.395.477l1.077-1.686a.987.987 0 0 1 .385.466zm-3.972-11.481 3.956 11.435 1.89-.654-3.956-11.435zm-.039-.513a1.01 1.01 0 0 0 .04.515l1.889-.658a.99.99 0 0 1 .039.504l-1.968-.36zm.211-.456a1.011 1.011 0 0 0 -.21.456l1.967.361a.989.989 0 0 1 -.206.446zm.37-.284a1.013 1.013 0 0 0 -.37.284l1.55 1.263a.988.988 0 0 1 -.36.277zm.431-.09a1.014 1.014 0 0 0 -.43.09l.819 1.824a.985.985 0 0 1 -.42.087l.031-2zm7.895 0h-7.91v2h7.91zm.416.09a1.014 1.014 0 0 0 -.431-.09l.03 2a.985.985 0 0 1 -.419-.086zm.37.284a1.013 1.013 0 0 0 -.37-.284l-.82 1.824a.988.988 0 0 1 -.36-.277zm.21.456a1.012 1.012 0 0 0 -.21-.456l-1.55 1.263a.988.988 0 0 1 -.207-.446l1.968-.36zm-.039.515c.057-.164.072-.341.04-.515l-1.968.361a.988.988 0 0 1 .04-.504zm-2.978 10.823 3.723-10.837-1.89-.65-3.724 10.837zm-1.703-.956c.006-.006.043-.052.101-.103a.997.997 0 0 1 1.642.89c-.012.089-.035.154-.038.162l-1.896-.636a1.009 1.009 0 0 0 -.041.509 1.002 1.002 0 0 0 1.652.579c.064-.057.108-.11.123-.128zm8.997-10.834-8.995 10.832 1.539 1.278 8.995-10.832zm-.22.506a.99.99 0 0 1 .24-.529l1.5 1.323a1.01 1.01 0 0 0 .244-.539zm.104.584a.99.99 0 0 1 -.104-.584l1.984.255a1.009 1.009 0 0 0 -.106-.594zm.382.4a.99.99 0 0 1 -.382-.4l1.774-.923a1.01 1.01 0 0 0 -.39-.408l-1.002 1.73zm.496.133a.989.989 0 0 1 -.496-.133l1.002-1.731a1.012 1.012 0 0 0 -.507-.136zm-5.27 0h5.27v-2h-5.27zm.544-.163a.99.99 0 0 1 -.55.163l.012-2a1.01 1.01 0 0 0 -.56.165zm.387-.489a.992.992 0 0 1 -.387.49l-1.098-1.673a1.008 1.008 0 0 0 -.393.497z" fill="#0008d0" mask="url(#b)"/></svg>