<svg width="100" height="100" viewBox="0 0 100 100" fill="none" xmlns="http://www.w3.org/2000/svg">
<path d="M45.5545 89.9996C34.971 89.9996 27.1175 84.4861 27.1175 71.2365V50.0372H17.5V38.54C19.4674 38.0236 21.2215 37.2841 22.7768 36.3708C29.588 32.3709 32.5869 25.0362 32.9971 18.4947H43.9585V36.7022H56.7678V50.0372H43.9585V68.5011C43.9585 74.0147 46.6884 75.938 51.0562 75.938H57.2718V89.9996H45.5545Z" fill="#7C5CFF"/>
<path d="M71.2253 41.5422V28.2072L56.7678 36.7018V50.0369L71.2253 41.5422Z" fill="#7C5CFF"/>
<path d="M72.2681 28.2072C72.2681 27.6312 71.8012 27.1643 71.2253 27.1643H59.459L59.4584 9.99996C59.4584 9.42402 58.9915 8.95713 58.4155 8.95713H47.4541C47.2684 8.95713 47.086 9.00675 46.9258 9.10085L32.4685 17.5955C32.1697 17.7711 31.9777 18.0836 31.956 18.4294C31.6606 23.139 29.9716 28.2303 26.4525 32.0704L16.9717 37.641C16.6529 37.8283 16.4571 38.1704 16.4571 38.5401L16.4574 50.0373C16.4574 50.6132 16.9243 51.0801 17.5002 51.0801H26.0742V71.2363C26.0742 76.3577 27.2132 80.4533 29.2923 83.5741C31.3767 86.703 34.3546 88.7737 37.8861 89.9228C38.7257 90.1961 39.5957 90.417 40.4918 90.5881C42.1015 90.8955 43.797 91.0425 45.5544 91.0425L57.2715 91.0429C57.4573 91.0429 57.6397 90.9933 57.7998 90.8991L72.2575 82.4041C72.5762 82.2168 72.772 81.8747 72.772 81.505V67.4433C72.772 66.8674 72.3051 66.4004 71.7291 66.4004H65.5135C63.9872 66.4004 62.7822 66.148 61.876 65.6443C61.5681 65.4731 61.2921 65.2716 61.0463 65.0375C60.102 64.1381 59.459 62.606 59.459 60.0063V49.6654L71.7536 42.4414C72.0724 42.2541 72.2681 41.912 72.2681 41.5422V28.2072Z" fill="#F7F7F7" stroke="black" stroke-width="2.08574" stroke-linejoin="round"/>
<path d="M71.2255 28.2072H58.4162L43.9587 36.7018H56.768L71.2255 28.2072Z" fill="#7C5CFF"/>
<path d="M58.4162 28.2075V10L43.9587 18.4947V36.7022L58.4162 28.2075Z" fill="#7C5CFF"/>
<path d="M58.4155 10H47.4541L32.9966 18.4947H43.958L58.4155 10Z" fill="#7C5CFF"/>
<path d="M58.4162 41.5423H71.2255L56.768 50.037H43.9587L58.4162 41.5423Z" fill="url(#paint0_linear_514_1617)"/>
<path d="M58.4162 41.5423H71.2255L56.768 50.037H43.9587L58.4162 41.5423Z" stroke="black"/>
<path d="M47.4543 10C47.044 16.5415 44.0451 23.8762 37.2339 27.8761L22.7841 36.3662C29.5898 32.3653 32.5866 25.0337 32.9968 18.4947L47.4543 10Z" fill="url(#paint1_linear_514_1617)"/>
<path d="M47.4543 10C47.044 16.5415 44.0451 23.8762 37.2339 27.8761L22.7841 36.3662C29.5898 32.3653 32.5866 25.0337 32.9968 18.4947L47.4543 10Z" stroke="black"/>
<path d="M71.7293 67.4437H65.5137L51.0562 75.9384H57.2718L71.7293 67.4437Z" fill="#7C5CFF"/>
<path d="M71.729 81.5053V67.4437L57.2715 75.9384V90L71.729 81.5053Z" fill="#7C5CFF"/>
<path d="M37.2343 27.8763C35.679 28.7896 33.9249 29.5291 31.9575 30.0455L17.5 38.5402C19.4674 38.0238 21.2215 37.2843 22.7768 36.3709L37.2343 27.8763Z" fill="#7C5CFF"/>
<path d="M31.9575 41.5423H41.575L27.1175 50.037H17.5L31.9575 41.5423Z" fill="url(#paint2_radial_514_1617)"/>
<path d="M31.9575 41.5423H41.575L27.1175 50.037H17.5L31.9575 41.5423Z" stroke="black"/>
<path fill-rule="evenodd" clip-rule="evenodd" d="M41.5744 41.5424V62.7417L27.1169 71.2364V50.0371L41.5744 41.5424ZM60.0114 81.5047H71.7287L57.2712 89.9994H45.5542L45.5539 89.9996C34.9705 89.9996 27.1169 84.4861 27.1169 71.2365L41.5744 62.7418C41.5744 75.9912 49.4279 81.5048 60.0111 81.5049L60.0114 81.5047Z" fill="url(#paint3_radial_514_1617)"/>
<path d="M31.9575 30.0455V41.5427L17.5 50.0374V38.5402L31.9575 30.0455Z" fill="url(#paint4_radial_514_1617)"/>
<path d="M31.9575 30.0455V41.5427L17.5 50.0374V38.5402L31.9575 30.0455Z" stroke="black"/>
<path d="M47.0296 77.2776C50.3013 80.1828 54.8294 81.505 60.012 81.505H71.7293V67.4433H65.5137C62.7237 67.4433 60.602 66.6586 59.4332 64.6546L47.0296 77.2776Z" fill="url(#paint5_radial_514_1617)"/>
<path d="M47.0296 77.2776L59.4332 64.6546C58.4161 62.9105 58.4161 60.708 58.4161 60.0065V47.6054L41.634 64.6842C42.0624 71.5564 44.7457 75.2495 47.0296 77.2776Z" fill="url(#paint6_radial_514_1617)"/>
<path d="M41.634 64.6842C41.5949 64.0562 41.575 63.4088 41.575 62.7419V41.5425H31.9575V30.0453C42.5409 27.2672 46.9507 18.0352 47.4547 10H58.4161V28.2075H71.2254V41.5425H58.4161V47.6054L41.634 64.6842Z" fill="url(#paint7_radial_514_1617)"/>
<path d="M41.486 58.113C41.486 65.3814 38.8366 71.5564 32.7954 71.5564C38.8366 71.5564 41.486 77.7314 41.486 84.9997C41.486 77.7314 44.1354 71.5564 50.1766 71.5564C44.1354 71.5564 41.486 65.3814 41.486 58.113Z" fill="white"/>
<path d="M58.5 38C58.5 39.8923 57.7379 41.5 56 41.5C57.7379 41.5 58.5 43.1077 58.5 45C58.5 43.1077 59.2621 41.5 61 41.5C59.2621 41.5 58.5 39.8923 58.5 38Z" fill="white"/>
<path d="M31.7526 26.2735C31.7526 29.1426 30.5868 31.5801 27.9287 31.5801C30.5868 31.5801 31.7526 34.0176 31.7526 36.8867C31.7526 34.0176 32.9183 31.5801 35.5764 31.5801C32.9183 31.5801 31.7526 29.1426 31.7526 26.2735Z" fill="white"/>
<defs>
<linearGradient id="paint0_linear_514_1617" x1="57.5921" y1="41.5423" x2="57.5921" y2="50.037" gradientUnits="userSpaceOnUse">
<stop stop-color="#679EF0"/>
<stop offset="1" stop-color="#72DAFC"/>
</linearGradient>
<linearGradient id="paint1_linear_514_1617" x1="35.1153" y1="10" x2="35.1153" y2="36.3708" gradientUnits="userSpaceOnUse">
<stop offset="0.114583" stop-color="#FFA0F8"/>
<stop offset="0.395833" stop-color="#48D1FF"/>
<stop offset="1" stop-color="#A6DBFD"/>
</linearGradient>
<radialGradient id="paint2_radial_514_1617" cx="0" cy="0" r="1" gradientUnits="userSpaceOnUse" gradientTransform="translate(25.6764 42.9799) rotate(48.7367) scale(8.95374 28.7277)">
<stop stop-color="#53CCFF"/>
<stop offset="0.338542" stop-color="#8EB9FE"/>
<stop offset="1" stop-color="#E7B5F4"/>
</radialGradient>
<radialGradient id="paint3_radial_514_1617" cx="0" cy="0" r="1" gradientUnits="userSpaceOnUse" gradientTransform="translate(42.2681 49.7428) rotate(74.0917) scale(39.9219 68.1065)">
<stop stop-color="#53CCFF"/>
<stop offset="0.338542" stop-color="#8EB9FE"/>
<stop offset="1" stop-color="#E7B5F4"/>
</radialGradient>
<radialGradient id="paint4_radial_514_1617" cx="0" cy="0" r="1" gradientUnits="userSpaceOnUse" gradientTransform="translate(5.68081 58.3196) rotate(-42.4792) scale(39.1211 35.8278)">
<stop stop-color="#FFE0FB"/>
<stop offset="0.65625" stop-color="#C4DDFE"/>
<stop offset="1" stop-color="#86B8FE"/>
</radialGradient>
<radialGradient id="paint5_radial_514_1617" cx="0" cy="0" r="1" gradientUnits="userSpaceOnUse" gradientTransform="translate(64.1259 63.6287) rotate(-118.864) scale(66.6391 23.6488)">
<stop stop-color="#D0EFFF"/>
<stop offset="0.375" stop-color="#FFE7F6"/>
<stop offset="1" stop-color="#9CE8FF"/>
</radialGradient>
<radialGradient id="paint6_radial_514_1617" cx="0" cy="0" r="1" gradientUnits="userSpaceOnUse" gradientTransform="translate(64.1259 63.6287) rotate(-118.864) scale(66.6391 23.6488)">
<stop stop-color="#D0EFFF"/>
<stop offset="0.375" stop-color="#FFE7F6"/>
<stop offset="1" stop-color="#9CE8FF"/>
</radialGradient>
<radialGradient id="paint7_radial_514_1617" cx="0" cy="0" r="1" gradientUnits="userSpaceOnUse" gradientTransform="translate(64.1259 63.6287) rotate(-118.864) scale(66.6391 23.6488)">
<stop stop-color="#D0EFFF"/>
<stop offset="0.375" stop-color="#FFE7F6"/>
<stop offset="1" stop-color="#9CE8FF"/>
</radialGradient>
</defs>
</svg>
